<?xml version="1.0" standalone="no"?>
<!DOCTYPE svg PUBLIC "-//W3C//DTD SVG 1.1//EN" "http://www.w3.org/Graphics/SVG/1.1/DTD/svg11.dtd" >
<svg>
<metadata>
Created by FontForge 20090914 at Mon Oct 13 12:16:50 2014
 By www-data
Copyright (C) 2004, 2009 Hoefler &#38; Frere-Jones. http://www.typography.com
</metadata>
<defs>
<font id="Sentinel-Bold" horiz-adv-x="1153" >
  <font-face 
    font-family="Sentinel Bold"
    font-weight="400"
    font-stretch="normal"
    units-per-em="2048"
    panose-1="0 0 0 0 0 0 0 0 0 0"
    ascent="1638"
    descent="-410"
    x-height="958"
    cap-height="1348"
    bbox="-139.003 -748 2533 2298"
    underline-thickness="102"
    underline-position="-102"
    unicode-range="U+0020-U+FB04"
  />
<missing-glyph horiz-adv-x="1024" 
d="M0 -410v2048h1024v-2048h-1024zM145 1536l367 -799l367 799h-734zM102 -156l353 770l-353 770v-1540zM922 1384l-353 -770l353 -770v1540zM512 492l-367 -799h734z" />
    <glyph glyph-name="f_f" unicode="ff" horiz-adv-x="1400" 
d="M688 1421c139.333 0 235.664 -30 288.997 -90c83.333 64 183.666 96 300.999 96c99.333 0 174 -18 224 -54s75 -84 75 -144c0 -42.667 -14.167 -78.667 -42.5 -108s-64.166 -44 -107.499 -44c-46 0 -82.333 12.333 -109 37s-40 59.667 -40 105
c0 34.667 9.66699 61.667 29 81c-17.333 8.66699 -34.666 13 -51.999 13c-46 0 -81.667 -18.667 -107 -56s-38 -101.333 -38 -192v-117h289v-160h-275v-618h203v-170h-612v170h110v618h-319v-618h110v-170h-548v170h137v618h-174v160h174v15
c0 76.667 13.167 144.834 39.5 204.501s62.333 107.667 108 144s96.834 63.666 153.501 81.999s117.334 27.5 182.001 27.5zM824.998 948v40.999c0 35.333 1.33301 62 4 80c-35.333 5.33301 -62.833 19.5 -82.5 42.5s-29.5 53.833 -29.5 92.5c0 36 9.33301 64.667 28 86
c-17.333 10 -40.333 15 -69 15c-58 0 -103.167 -20.167 -135.5 -60.5s-48.5 -113.166 -48.5 -218.499v-78h333z" />
    <glyph glyph-name="fi" unicode="fi" horiz-adv-x="1320" 
d="M834 788l-327.999 -0.000976562v-618h112v-170h-552v170h139v618h-174v160h174v15c0 78 13.5 147.167 40.5 207.5s64 108.833 111 145.5s100.167 64.334 159.5 83.001s123.666 28 192.999 28c120.667 0 213.167 -19.833 277.5 -59.5s96.5 -89.834 96.5 -150.501
c0 -43.333 -15.833 -79.5 -47.5 -108.5s-72.5 -43.5 -122.5 -43.5c-54.667 0 -97 12.167 -127 36.5s-45 58.5 -45 102.5c0 35.333 9.66699 64 29 86c-22.667 14 -50 21 -82 21c-66.667 0 -116 -21.667 -148 -65s-48 -112.666 -48 -207.999v-90h641v-778h155v-170h-569v170
h115v618z" />
    <glyph glyph-name="fl" unicode="fl" horiz-adv-x="1351" 
d="M66 0l-0.000976562 170h139v618h-174v160h174v21c0 76 13.167 143.833 39.5 203.5s62 107.667 107 144s95.833 63.833 152.5 82.5s117.334 28 182.001 28c88 0 157 -11.333 207 -34l260 30v-1253h156v-170h-580v170h125v618h-348v-618h123v-170h-563zM491.999 1028
l-0.000976562 -80.001h362v129c-44.667 1.33301 -79.667 14 -105 38s-38 58 -38 102c0 36 8.66699 63.667 26 83c-20 8.66699 -41.667 13 -65 13c-27.333 0 -51.166 -4 -71.499 -12s-39 -22.167 -56 -42.5s-30 -49.666 -39 -87.999s-13.5 -85.833 -13.5 -142.5z" />
    <glyph glyph-name="f_f_i" unicode="ffi" horiz-adv-x="1939" 
d="M1110 1038l-0.00195312 -89.998h643v-778h156v-170h-570v170h113v618h-328v-618h115v-170h-524v170h110v618h-319v-618h110v-170h-548v170h137v618h-174v160h174v13c0 76.667 13.167 145 39.5 205s62.333 108.167 108 144.5s96.834 63.833 153.501 82.5
s117.334 28 182.001 28c147.333 0 245.666 -33.333 294.999 -100c90 70.667 205.333 106 346 106c120.667 0 213.334 -19.833 278.001 -59.5s97 -89.834 97 -150.501c0 -44 -15.833 -80.333 -47.5 -109s-73.167 -43 -124.5 -43c-54.667 0 -97 12.167 -127 36.5
s-45 58.5 -45 102.5c0 35.333 9.66699 64 29 86c-22.667 14 -50 21 -82 21c-66 0 -115.333 -21.833 -148 -65.5s-49 -112.834 -49 -207.501zM824.998 963.002c0 38 3.00098 73.332 9.00098 105.999c-36.667 5.33301 -65.334 19.333 -86.001 42s-31 53.667 -31 93
c0 36 9.33301 64.667 28 86c-17.333 10 -40.333 15 -69 15c-58 0 -103.167 -20.167 -135.5 -60.5s-48.5 -113.166 -48.5 -218.499v-78h333v15z" />
    <glyph glyph-name="f_f_l" unicode="ffl" horiz-adv-x="1970" 
d="M1350 0l-0.00292969 170h123v618h-349v-618h125v-170h-534v170h110v618h-319v-618h110v-170h-548v170h137v618h-174v160h174v13c0 76.667 13.167 145 39.5 205s62.333 108.167 108 144.5s96.834 63.833 153.501 82.5s117.334 28 182.001 28
c144.667 0 242.334 -32 293.001 -96c83.333 68 191.333 102 324 102c87.333 0 156 -11.333 206 -34l263 30v-1253h155v-170h-579zM1110 1028v-80h363v129c-44 1.33301 -78.667 14 -104 38s-38 58 -38 102c0 34 8.33301 61.667 25 83c-20 8.66699 -42 13 -66 13
c-27.333 0 -51 -4.16699 -71 -12.5s-38.667 -22.5 -56 -42.5s-30.5 -49.333 -39.5 -88s-13.5 -86 -13.5 -142zM824.997 948l0.000976562 20.999c0 34 3 67.333 9 100c-36.667 5.33301 -65.334 19.333 -86.001 42s-31 53.667 -31 93c0 36 9.33301 64.667 28 86
c-17.333 10 -40.333 15 -69 15c-58 0 -103.167 -20.167 -135.5 -60.5s-48.5 -113.166 -48.5 -218.499v-78h333z" />
    <glyph glyph-name="f_b" unicode="fb" horiz-adv-x="1871" 
d="M66 0v169.999h139v618h-174v160h174v21c0 76 13.167 143.833 39.5 203.5s62 107.667 107 144s95.833 63.833 152.5 82.5s117.334 28 182.001 28c83.333 0 151 -10.667 203 -32l241 28v-655c30.667 66.667 71.834 118.834 123.501 156.501s112.5 56.5 182.5 56.5
c96 0 177.667 -32.667 245 -98c86 -86 129 -220 129 -402c0 -85.333 -12 -162.333 -36 -231s-57.667 -124.667 -101 -168c-64.667 -68 -149.334 -102 -254.001 -102c-152.667 0 -265.334 66.667 -338.001 200l-92 -194h-158v802h-325v-618h123v-170h-563zM1319 144.999
c113.333 0 169.999 110.666 169.999 331.999c0 209.333 -57.333 314 -172 314c-63.333 0 -113.333 -30.833 -150 -92.5s-55 -140.167 -55 -235.5s18.333 -172.166 55 -230.499s87.334 -87.5 152.001 -87.5zM491.999 1028l-0.000976562 -80.001h339v129
c-38 5.33301 -67.5 20 -88.5 44s-31.5 56 -31.5 96c0 36 8.66699 63.667 26 83c-20 8.66699 -41.667 13 -65 13c-27.333 0 -51.166 -4 -71.499 -12s-39 -22.167 -56 -42.5s-30 -49.666 -39 -87.999s-13.5 -85.833 -13.5 -142.5z" />
    <glyph glyph-name="f_h" unicode="fh" horiz-adv-x="1945" 
d="M729 0l-0.000976562 170h125v618h-348v-618h123v-170h-563v170h139v618h-174v160h174v21c0 76 13.167 143.833 39.5 203.5s62 107.667 107 144s95.833 63.833 152.5 82.5s117.334 28 182.001 28c88 0 157 -11.333 207 -34l260 30v-680c80 157.333 190 236 330 236
c99.333 0 173 -30.167 221 -90.5s72 -142.833 72 -247.5v-471h139v-170h-549v170h111v430c0 66.667 -15 115 -45 145c-25.333 22 -57 33 -95 33c-49.333 0 -92.333 -22.167 -129 -66.5s-55 -99.833 -55 -166.5v-375h109v-170h-533zM491.999 1028l-0.000976562 -80.001h362
v129c-44.667 1.33301 -79.667 14 -105 38s-38 58 -38 102c0 36 8.66699 63.667 26 83c-20 8.66699 -41.667 13 -65 13c-27.333 0 -51.166 -4 -71.499 -12s-39 -22.167 -56 -42.5s-30 -49.666 -39 -87.999s-13.5 -85.833 -13.5 -142.5z" />
    <glyph glyph-name="f_j" unicode="fj" horiz-adv-x="1290" 
d="M1133 948l0.000976562 -872c0 -140.667 -34.333 -247.834 -103 -321.501s-166.334 -110.5 -293.001 -110.5c-90.667 0 -161.334 16 -212.001 48s-76 74.667 -76 128c0 39.333 13.333 73 40 101s62.334 42 107.001 42c48.667 0 86.5 -13.5 113.5 -40.5
s40.5 -59.167 40.5 -96.5c0 -25.333 -4.33301 -46.666 -13 -63.999c10.667 -2.66699 21 -4 31 -4c22.667 1.33301 39.334 10.666 50.001 27.999s16 46.333 16 87v915h-328v-618h112v-170h-552v170h139v618h-174v160h174v15c0 78 13.5 147.167 40.5 207.5
s64 108.833 111 145.5s100.167 64.334 159.5 83.001s123.666 28 192.999 28c120.667 0 213.167 -19.833 277.5 -59.5s96.5 -89.834 96.5 -150.501c0 -43.333 -15.833 -79.5 -47.5 -108.5s-72.5 -43.5 -122.5 -43.5c-54.667 0 -97 12.167 -127 36.5s-45 58.5 -45 102.5
c0 35.333 9.66699 64 29 86c-22.667 14 -50 21 -82 21c-66.667 0 -116 -21.667 -148 -65s-48 -112.666 -48 -207.999v-90h641z" />
    <glyph glyph-name="f_k" unicode="fk" horiz-adv-x="1888" 
d="M66 0l-0.000976562 170h139v618h-174v160h174v21c0 76 13.167 143.833 39.5 203.5s62 107.667 107 144s95.833 63.833 152.5 82.5s117.334 28 182.001 28c88 0 157 -11.333 207 -34l260 30v-929l322 297h-150v167h500v-170h-144l-215 -192l316 -426h104v-170h-528v168
h108l-190 268l-123 -110v-158h102v-168h-526v170h125v618h-348v-618h123v-170h-563zM491.999 1028l-0.000976562 -80.001h362v129c-44.667 1.33301 -79.667 14 -105 38s-38 58 -38 102c0 36 8.66699 63.667 26 83c-20 8.66699 -41.667 13 -65 13
c-27.333 0 -51.166 -4 -71.499 -12s-39 -22.167 -56 -42.5s-30 -49.666 -39 -87.999s-13.5 -85.833 -13.5 -142.5z" />
    <glyph glyph-name="f_f_b" unicode="ffb" horiz-adv-x="2490" 
d="M1751 1423l-0.00195312 -655c29.333 66 69.833 118 121.5 156s112.167 57 181.5 57c98.667 0 180.667 -32.667 246 -98c86 -86 129 -220 129 -402c0 -176.667 -45.667 -309.667 -137 -399c-64.667 -68 -149.334 -102 -254 -102c-152.667 0 -265.334 66.667 -338.001 200
l-92 -194h-158v802h-326v-618h125v-170h-534v170h110v618h-319v-618h110v-170h-548v170h137v618h-174v160h174v13c0 76.667 13.167 145 39.5 205s62.333 108.167 108 144.5s96.834 63.833 153.501 82.5s117.334 28 182.001 28c144.667 0 242.334 -32 293.001 -96
c83.333 68 191.333 102 324 102c82.667 0 150 -10.667 202 -32zM1937 145c113.333 0 170.001 110.666 170.001 331.999c0 104.667 -13.833 183.167 -41.5 235.5s-71.167 78.5 -130.5 78.5c-62.667 0 -112 -30.833 -148 -92.5s-54 -140.167 -54 -235.5
s18.167 -172.166 54.5 -230.499s86.166 -87.5 149.499 -87.5zM1110 1028v-80h340v129c-36.667 5.33301 -65.667 20 -87 44s-32 56 -32 96c0 34 8.33301 61.667 25 83c-20 8.66699 -42 13 -66 13c-27.333 0 -51 -4.16699 -71 -12.5s-38.667 -22.5 -56 -42.5
s-30.5 -49.333 -39.5 -88s-13.5 -86 -13.5 -142zM824.999 947.999l0.000976562 20.999c0 34 3 67.333 9 100c-36.667 5.33301 -65.334 19.333 -86.001 42s-31 53.667 -31 93c0 36 9.33301 64.667 28 86c-17.333 10 -40.333 15 -69 15c-58 0 -103.167 -20.167 -135.5 -60.5
s-48.5 -113.166 -48.5 -218.499v-78h333z" />
    <glyph glyph-name="f_f_h" unicode="ffh" horiz-adv-x="2564" 
d="M1350 0l-0.00390625 170h123v618h-349v-618h125v-170h-534v170h110v618h-319v-618h110v-170h-548v170h137v618h-174v160h174v13c0 76.667 13.167 145 39.5 205s62.333 108.167 108 144.5s96.834 63.833 153.501 82.5s117.334 28 182.001 28
c144.667 0 242.334 -32 293.001 -96c83.333 68 191.333 102 324 102c87.333 0 156 -11.333 206 -34l263 30v-680c39.333 76.667 85.333 135.167 138 175.5s116.334 60.5 191.001 60.5c99.333 0 173 -30.167 221 -90.5s72 -142.833 72 -247.5v-471h137v-170h-548v170h110v430
c0 68 -14.333 116.333 -43 145c-25.333 22 -57.333 33 -96 33c-49.333 0 -92 -22.167 -128 -66.5s-54 -99.833 -54 -166.5v-375h106v-170h-530zM1110 1028v-80h363v129c-44 1.33301 -78.667 14 -104 38s-38 58 -38 102c0 34 8.33301 61.667 25 83c-20 8.66699 -42 13 -66 13
c-27.333 0 -51 -4.16699 -71 -12.5s-38.667 -22.5 -56 -42.5s-30.5 -49.333 -39.5 -88s-13.5 -86 -13.5 -142zM824.996 969c0 34 3.00098 67.332 9.00098 99.999c-36.667 5.33301 -65.334 19.333 -86.001 42s-31 53.667 -31 93c0 36 9.33301 64.667 28 86
c-17.333 10 -40.333 15 -69 15c-58 0 -103.167 -20.167 -135.5 -60.5s-48.5 -113.166 -48.5 -218.499v-78h333v21z" />
    <glyph glyph-name="f_f_j" unicode="ffj" horiz-adv-x="1908" 
d="M1753 948l-0.00292969 -871.996c0 -140.667 -34.333 -247.834 -103 -321.501s-166.667 -110.5 -294 -110.5c-90.667 0 -161.5 16.167 -212.5 48.5s-76.5 74.833 -76.5 127.5c0 39.333 13.333 73 40 101s62.334 42 107.001 42c48.667 0 86.834 -13.5 114.501 -40.5
s41.5 -59.167 41.5 -96.5c0 -24 -4.66699 -45.333 -14 -64c10.667 -2.66699 21.667 -4 33 -4c21.333 1.33301 37.166 10.666 47.499 27.999s15.5 46.333 15.5 87v915h-328v-618h115v-170h-524v170h110v618h-319v-618h110v-170h-548v170h137v618h-174v160h174v13
c0 76.667 13.167 145 39.5 205s62.333 108.167 108 144.5s96.834 63.833 153.501 82.5s117.334 28 182.001 28c147.333 0 245.666 -33.333 294.999 -100c90 70.667 205.333 106 346 106c120.667 0 213.334 -19.833 278.001 -59.5s97 -89.834 97 -150.501
c0 -44 -15.833 -80.333 -47.5 -109s-73.167 -43 -124.5 -43c-54.667 0 -97 12.167 -127 36.5s-45 58.5 -45 102.5c0 35.333 9.66699 64 29 86c-22.667 14 -50 21 -82 21c-66 0 -115.333 -21.833 -148 -65.5s-49 -112.834 -49 -207.501v-90h643zM824.997 963.004
c0 38 3.00098 73.332 9.00098 105.999c-36.667 5.33301 -65.334 19.333 -86.001 42s-31 53.667 -31 93c0 36 9.33301 64.667 28 86c-17.333 10 -40.333 15 -69 15c-58 0 -103.167 -20.167 -135.5 -60.5s-48.5 -113.166 -48.5 -218.499v-78h333v15z" />
    <glyph glyph-name="f_f_k" unicode="ffk" horiz-adv-x="2506" 
d="M1774 1423l-0.00292969 -929l321 297h-151v167h499v-170h-143l-213 -192l315 -426h103v-170h-529v168h109l-189 268l-122 -110v-158h102v-168h-526v170h123v618h-349v-618h125v-170h-534v170h110v618h-319v-618h110v-170h-548v170h137v618h-174v160h174v13
c0 76.667 13.167 145 39.5 205s62.333 108.167 108 144.5s96.834 63.833 153.501 82.5s117.334 28 182.001 28c144.667 0 242.334 -32 293.001 -96c83.333 68 191.333 102 324 102c87.333 0 156 -11.333 206 -34zM1110 1028v-80h363v129c-44 1.33301 -78.667 14 -104 38
s-38 58 -38 102c0 34 8.33301 61.667 25 83c-20 8.66699 -42 13 -66 13c-27.333 0 -51 -4.16699 -71 -12.5s-38.667 -22.5 -56 -42.5s-30.5 -49.333 -39.5 -88s-13.5 -86 -13.5 -142zM824.997 969c0 34 3.00098 67.332 9.00098 99.999
c-36.667 5.33301 -65.334 19.333 -86.001 42s-31 53.667 -31 93c0 36 9.33301 64.667 28 86c-17.333 10 -40.333 15 -69 15c-58 0 -103.167 -20.167 -135.5 -60.5s-48.5 -113.166 -48.5 -218.499v-78h333v21z" />
    <glyph glyph-name=".notdef" horiz-adv-x="1024" 
d="M0 -410v2048h1024v-2048h-1024zM145 1536l367 -799l367 799h-734zM102 -156l353 770l-353 770v-1540zM922 1384l-353 -770l353 -770v1540zM512 492l-367 -799h734z" />
    <glyph glyph-name="space" unicode=" " horiz-adv-x="358" 
 />
    <glyph glyph-name="exclam" unicode="!" horiz-adv-x="616" 
d="M307 1401c58.667 0 103.667 -16.333 135 -49s47 -77.667 47 -135c0 -50.667 -11.333 -145.667 -34 -285c-30.667 -174 -56.667 -342.667 -78 -506h-137c-21.333 163.333 -47.333 332 -78 506c-24.667 132 -37 227 -37 285c0 57.333 15.833 102.333 47.5 135
s76.5 49 134.5 49zM307 -35c-50.667 0 -93.668 17 -129.001 51s-53 75.667 -53 125s17.667 91.333 53 126s79 52 131 52c50.667 0 93.834 -17 129.501 -51s53.5 -75.667 53.5 -125s-17.833 -91.333 -53.5 -126s-79.5 -52 -131.5 -52z" />
    <glyph glyph-name="quotedbl" unicode="&#x22;" horiz-adv-x="894" 
d="M594 793l-101.999 44.9971l40 225c16.667 94.667 34.667 167 54 217c11.333 28.667 27.666 50.834 48.999 66.501s45.333 23.5 72 23.5c39.333 0 73.333 -12 102 -36s43 -55.667 43 -95c0 -23.333 -4 -46.666 -12 -69.999c-28 -59.333 -65.667 -122.666 -113 -189.999z
M207.001 792.997l-102.998 45l27 217c13.333 100 29 173.667 47 221c11.333 28.667 28.166 51.5 50.499 68.5s47.166 25.5 74.499 25.5c39.333 0 73.5 -12 102.5 -36s43.5 -55.667 43.5 -95c0 -23.333 -3.66699 -44.333 -11 -63c-24.667 -62 -60 -127 -106 -195z" />
    <glyph glyph-name="numbersign" unicode="#" horiz-adv-x="1386" 
d="M393 827h-264v160h295l70 371h182l-70 -371h297l68 371h184l-70 -371h242v-160h-270l-70 -364h266v-160h-295l-71 -385h-182l71 385h-297l-71 -385h-183l72 385h-242v160h271zM877 829h-302l-71 -368h303z" />
    <glyph glyph-name="dollar" unicode="$" horiz-adv-x="1146" 
d="M666 -170l-156.001 -0.000976562v170c-76.667 4 -145.167 14.667 -205.5 32s-108.666 39.333 -144.999 66s-63.833 55.834 -82.5 87.501s-28 64.834 -28 99.501c0 44 15.167 81.5 45.5 112.5s67.833 46.5 112.5 46.5c42 0 77.333 -14 106 -42s43 -62.333 43 -103
c0 -48 -17.667 -86.333 -53 -115c48 -29.333 117 -49 207 -59v410c-57.333 15.333 -104.833 29.5 -142.5 42.5s-75.834 29.5 -114.501 49.5s-69.167 41.667 -91.5 65s-40.5 52.333 -54.5 87s-21 74 -21 118c0 108 38.333 198.167 115 270.5s179.667 115.833 309 130.5v156
h156v-151c60 -3.33301 114.333 -11.666 163 -24.999s88.334 -29.333 119.001 -48s56.334 -39.667 77.001 -63s35.167 -46.166 43.5 -68.499s12.5 -44.5 12.5 -66.5c0 -48 -13.333 -86.667 -40 -116s-61.667 -44 -105 -44c-47.333 0 -85.166 13 -113.499 39
s-42.5 60.333 -42.5 103c0 45.333 17 82.666 51 111.999c-32.667 26 -88.334 44 -167.001 54v-392c72 -19.333 131.333 -38.333 178 -57s89.667 -42.334 129 -71.001s68.166 -63.334 86.499 -104.001s27.5 -88.667 27.5 -144c0 -108 -36 -199.5 -108 -274.5
s-175.667 -119.5 -311 -133.5v-174zM835.999 310.999c0 42.667 -14.668 78 -44.001 106s-73.666 53 -132.999 75v-365c118 18 177 79.333 177 184zM341.998 1004c0 -46.667 13.167 -83.167 39.5 -109.5s70.5 -48.833 132.5 -67.5v351
c-58 -9.33301 -101.167 -29.5 -129.5 -60.5s-42.5 -68.833 -42.5 -113.5z" />
    <glyph glyph-name="percent" unicode="%" horiz-adv-x="1630" 
d="M324 541c-84.667 0 -153.669 26.167 -207.002 78.5s-80 121.5 -80 207.5c0 58 11.5 115.5 34.5 172.5s53.333 107.167 91 150.5s82.334 78.5 134.001 105.5s104.5 40.5 158.5 40.5c90.667 0 160.334 -27.333 209.001 -82c47.333 -21.333 110 -32 188 -32
c128 0 242 49 342 147h160l-903 -1382h-199l799 1175l-7 6c-70.667 -57.333 -151.667 -86 -243 -86c-31.333 0 -57.333 1.66699 -78 5v-13c0 -74.667 -16.667 -149.667 -50 -225s-81.333 -138.833 -144 -190.5s-131 -77.5 -205 -77.5zM1186 -29
c-84.667 0 -153.667 26 -207 78s-80 121.667 -80 209c0 58 11.5 115.5 34.5 172.5s53.333 107.167 91 150.5s82.334 78.5 134.001 105.5s104.5 40.5 158.5 40.5c82.667 0 148 -23.333 196 -70s72 -110.667 72 -192c0 -74.667 -16.833 -149.667 -50.5 -225
s-81.834 -139 -144.501 -191s-130.667 -78 -204 -78zM1223 90c40.667 0 79.498 21.167 116.498 63.5s65.667 93 86 152s30.5 114.833 30.5 167.5c0 40 -8.66699 70.833 -26 92.5s-41.333 32.5 -72 32.5c-39.333 0 -77.666 -21.333 -114.999 -64s-66.5 -93.167 -87.5 -151.5
s-31.5 -112.833 -31.5 -163.5c0 -42 8.83301 -74 26.5 -96s41.834 -33 72.501 -33zM361.996 659c40 0 78.501 21.333 115.501 64s65.667 93.5 86 152.5s30.5 114.5 30.5 166.5c0 15.333 -0.666992 26.333 -2 33c-44.667 18 -87.667 46.667 -129 86
c-52.667 -16 -99.334 -64.167 -140.001 -144.5s-61 -156.5 -61 -228.5c0 -42 9 -74 27 -96s42.333 -33 73 -33z" />
    <glyph glyph-name="ampersand" unicode="&#x26;" horiz-adv-x="1531" 
d="M1022 795h460.997v-172h-146c-66.667 -122 -145.667 -232 -237 -330c34.667 -47.333 62.334 -79 83.001 -95s43.334 -24 68.001 -24c25.333 0 46.166 9.5 62.499 28.5s31.833 52.5 46.5 100.5l115 -35c-46.667 -200.667 -148.667 -301 -306 -301
c-65.333 0 -119.5 11.833 -162.5 35.5s-87.167 65.834 -132.5 126.501c-111.333 -108 -238.666 -162 -381.999 -162c-132 0 -236.5 33.667 -313.5 101s-115.5 152.666 -115.5 255.999c0 90.667 28 164.834 84 222.501s133.333 105.5 232 143.5c-50 50.667 -86 97 -108 139
s-33 90 -33 144c0 91.333 37.833 169.5 113.5 234.5s172.834 97.5 291.501 97.5c56 0 106.833 -8.16699 152.5 -24.5s82.667 -38 111 -65s50.166 -57 65.499 -90s23 -66.833 23 -101.5c0 -72 -22.167 -129.667 -66.5 -173s-110.166 -84 -197.499 -122
c108 -104.667 201.667 -213.334 281 -326.001c57.333 66 107 140 149 222h-139v170zM589.997 156c70.667 0 138.332 24.334 202.999 73.001c-93.333 130.667 -202.666 257.667 -327.999 381c-70 -54.667 -105 -130.334 -105 -227.001c0 -68.667 20.667 -123.667 62 -165
s97.333 -62 168 -62zM503.995 1042c0 -36.667 10.834 -72 32.501 -106s58.5 -77 110.5 -129c79.333 56.667 119 127 119 211c0 44.667 -11.333 81.334 -34 110.001s-56.334 43 -101.001 43c-36.667 0 -67 -11.833 -91 -35.5s-36 -54.834 -36 -93.501z" />
    <glyph glyph-name="quotesingle" unicode="'" horiz-adv-x="495" 
d="M203 793l-105 46.998l33 219l6.5 41c3 18.667 5.16699 31.167 6.5 37.5s3.16602 16.166 5.49902 29.499l5 28.5c1 5.66699 2.66699 13.334 5 23.001s4.33301 17.334 6 23.001l5.5 18.5c2 6.66699 4.33301 13.334 7 20.001c12.667 28 30.167 50 52.5 66s46.5 24 72.5 24
c40 0 75.333 -12.5 106 -37.5s46 -56.833 46 -95.5c0 -20.667 -4.33301 -41.667 -13 -63c-19.333 -46 -56.666 -110.333 -111.999 -193z" />
    <glyph glyph-name="parenleft" unicode="(" horiz-adv-x="796" 
d="M750 -328c-186.667 72.667 -337.834 188.667 -453.501 348s-173.5 343 -173.5 551c0 211.333 57.833 398.333 173.5 561s266.834 279.667 453.501 351l69 -119c-263.333 -182.667 -395 -442.667 -395 -780c0 -180 35.167 -335.833 105.5 -467.5
s166.833 -240.167 289.5 -325.5z" />
    <glyph glyph-name="parenright" unicode=")" horiz-adv-x="796" 
d="M47 1483c186.667 -72.667 337.835 -188.667 453.502 -348s173.5 -343 173.5 -551c0 -211.333 -57.833 -398.333 -173.5 -561s-266.834 -279.667 -453.501 -351l-70 119c264 182.667 396 442.667 396 780c0 180 -35.333 335.833 -106 467.5
s-167.334 240.167 -290.001 325.5z" />
    <glyph glyph-name="asterisk" unicode="*" horiz-adv-x="880" 
d="M432 721c-13.333 38 -12.667 119.998 2 245.998l-26 10c-60.667 -109.333 -108.667 -177.666 -144 -204.999c-28 -19.333 -54.833 -26.833 -80.5 -22.5s-48.5 19.5 -68.5 45.5c-19.333 26.667 -26.666 53.334 -21.999 80.001s20.667 49.667 48 69
c38.667 28 117.334 52.667 236.001 74v29c-116.667 20.667 -195.334 45.667 -236.001 75c-27.333 19.333 -43.333 42.166 -48 68.499s2.66602 52.833 21.999 79.5c20 26 42.833 41 68.5 45s52.5 -3.66699 80.5 -23c36 -26 84 -94.333 144 -205l26 11
c-14.667 126.667 -15.334 210 -2.00098 250c10 31.333 27 52.833 51 64.5s51.333 12.5 82 2.5c31.333 -10 53 -26.833 65 -50.5s13 -51.834 3 -84.501c-14.667 -45.333 -64.667 -111.666 -150 -198.999l17 -22c111.333 53.333 190.333 80 237 80
c34 0 60.333 -9.16699 79 -27.5s28 -44.166 28 -77.499c0 -34 -9.33301 -60.167 -28 -78.5s-45 -27.5 -79 -27.5c-45.333 0 -123.666 26.667 -234.999 80l-17 -23c84.667 -89.333 134 -155.666 148 -198.999c10 -32.667 9 -60.834 -3 -84.501s-33.667 -40.5 -65 -50.5
c-30.667 -10 -58 -9 -82 3s-41 34.333 -51 67z" />
    <glyph glyph-name="plus" unicode="+" horiz-adv-x="1075" 
d="M446 141v359h-352v166h352v354h183v-354h352v-166h-352v-359h-183z" />
    <glyph glyph-name="comma" unicode="," horiz-adv-x="524" 
d="M72 -340l-45 98c84.667 35.333 149.667 74.5 195 117.5s73 92.167 83 147.5l-16 8c-17.333 -24.667 -44 -37 -80 -37c-38 0 -69 13.5 -93 40.5s-36 62.5 -36 106.5c0 51.333 16.333 95.333 49 132s74.334 55 125.001 55c62 0 111.667 -21.333 149 -64
s56 -100.667 56 -174c0 -100 -32.833 -186.667 -98.5 -260s-161.834 -130 -288.501 -170z" />
    <glyph glyph-name="hyphen" unicode="-" horiz-adv-x="729" 
d="M98 416v205h533v-205h-533z" />
    <glyph glyph-name="period" unicode="." horiz-adv-x="524" 
d="M262 -35c-50.667 0 -93.667 17.501 -129 52.501s-53 77.5 -53 127.5c0 51.333 17.667 94.666 53 129.999s79 53 131 53c50.667 0 93.667 -17.667 129 -53s53 -78 53 -128s-17.667 -92.833 -53 -128.5s-79 -53.5 -131 -53.5z" />
    <glyph glyph-name="slash" unicode="/" horiz-adv-x="874" 
d="M-125 -416l797 1872h200l-796 -1872h-201z" />
    <glyph glyph-name="zero" unicode="0" horiz-adv-x="1247" 
d="M623 -33c-165.333 0 -297.833 60.833 -397.5 182.5s-149.5 286.167 -149.5 493.5c0 208.667 50.833 375.5 152.5 500.5s233.834 187.5 396.501 187.5c165.333 0 297.333 -60.667 396 -182s148 -286 148 -494c0 -210 -50.333 -377.167 -151 -501.5
s-232.334 -186.5 -395.001 -186.5zM629 123c68.667 0 119.167 40.833 151.5 122.5s48.5 216.167 48.5 403.5c0 186 -17.667 320.333 -53 403s-88 124 -158 124c-69.333 0 -120 -40.833 -152 -122.5s-48 -216.5 -48 -404.5c0 -186 17.667 -320.167 53 -402.5
s88 -123.5 158 -123.5z" />
    <glyph glyph-name="one" unicode="1" horiz-adv-x="1001" 
d="M98 0v169.999h277v831c-30.667 -10.667 -71.667 -16 -123 -16c-58 0 -112.667 8.33301 -164 25v143c92 -4 174.667 8.33301 248 37s127.333 70.334 162 125.001h194v-1145h271v-170h-865z" />
    <glyph glyph-name="two" unicode="2" horiz-adv-x="1181" 
d="M72 172c0 37.333 7.33301 73.998 22 109.998s32.334 67.167 53.001 93.5s48.5 54.333 83.5 84s65.667 53.5 92 71.5l99.5 65c46.667 29.333 82.667 52.666 108 69.999s52.333 38.333 81 63s49.834 47.667 63.501 69s25.167 46.5 34.5 75.5s14 60.833 14 95.5
c0 68.667 -17.667 122 -53 160s-84.666 57 -147.999 57c-44.667 0 -84.5 -8.83301 -119.5 -26.5s-61.833 -42.5 -80.5 -74.5c36 -12.667 63.667 -32 83 -58s29 -57 29 -93c0 -45.333 -14.833 -83.333 -44.5 -114s-70.834 -46 -123.501 -46c-52 0 -94.667 18.333 -128 55
s-50 83.334 -50 140.001c0 96 46 180.333 138 253s210 109 354 109c155.333 0 277 -35.667 365 -107s132 -162.666 132 -273.999c0 -46 -8.16699 -88.333 -24.5 -127s-36.333 -71.167 -60 -97.5s-56.167 -52.5 -97.5 -78.5s-78.666 -46.667 -111.999 -62
s-76.666 -33.666 -129.999 -54.999c-128 -53.333 -213.333 -92.666 -256 -117.999c-71.333 -42.667 -119 -93.334 -143 -152.001l8 -8c70 52 150 78 240 78c52.667 0 116.167 -12.667 190.5 -38s125.5 -38 153.5 -38c38 0 66.333 13.333 85 40s36.667 76 54 148l121 -10
c-8.66699 -166 -37 -285 -85 -357s-115.333 -108 -202 -108c-42.667 0 -82.834 7.5 -120.501 22.5s-69.834 33 -96.501 54s-51.834 42.167 -75.501 63.5s-48 39.5 -73 54.5s-49.833 22.5 -74.5 22.5c-14 0 -26.333 -1.33301 -37 -4c22 -18.667 33 -46.667 33 -84
c0 -36.667 -12.333 -67.667 -37 -93s-57.334 -38 -98.001 -38c-50 0 -90.5 19 -121.5 57s-46.5 88 -46.5 150z" />
    <glyph glyph-name="three" unicode="3" horiz-adv-x="1140" 
d="M545 -33c-151.333 0 -272.499 28.8311 -363.499 86.498s-136.5 130.5 -136.5 218.5c0 54 16.333 97.333 49 130s75.667 49 129 49c52 0 92.333 -14.167 121 -42.5s43 -63.5 43 -105.5c0 -28.667 -8.33301 -55 -25 -79s-37.667 -42.667 -63 -56
c13.333 -14.667 39 -26.5 77 -35.5s81.333 -13.5 130 -13.5c70 0 125 18.833 165 56.5s60 92.5 60 164.5c0 83.333 -23 143.333 -69 180s-128.667 55 -248 55h-60v164h56c110 0 187.333 19.333 232 58s67 99.334 67 182.001c0 134 -71 201 -213 201c-74 0 -132 -15 -174 -45
c27.333 -11.333 49.5 -29.5 66.5 -54.5s25.5 -52.167 25.5 -81.5c0 -42.667 -14 -78.167 -42 -106.5s-68 -42.5 -120 -42.5c-52.667 0 -95.167 15.833 -127.5 47.5s-48.5 73.834 -48.5 126.501c0 86 45 158.667 135 218s206.667 89 350 89c155.333 0 276.833 -32 364.5 -96
s131.5 -143.333 131.5 -238c0 -176.667 -129.667 -283.667 -389 -321v-10c138 -14 241 -48.167 309 -102.5s102 -125.5 102 -213.5c0 -111.333 -48.333 -203 -145 -275s-226.334 -108 -389.001 -108z" />
    <glyph glyph-name="four" unicode="4" horiz-adv-x="1224" 
d="M655 545v536h-10l-409 -536h419zM950 174h191v-174h-697v174h211v195h-618v176l608 776h305v-776h248v-176h-248v-195z" />
    <glyph glyph-name="five" unicode="5" horiz-adv-x="1142" 
d="M332 1042l-24.999 -327c84.667 68 189.334 102 314.001 102c79.333 0 149 -10.667 209 -32s107.5 -50.833 142.5 -88.5s61.167 -79.667 78.5 -126s26 -96.5 26 -150.5c0 -59.333 -10.833 -115.5 -32.5 -168.5s-53.334 -101 -95.001 -144s-96.667 -77.167 -165 -102.5
s-145.5 -38 -231.5 -38c-140 0 -254.167 26.5 -342.5 79.5s-132.5 123.5 -132.5 211.5c0 53.333 16.167 97.666 48.5 132.999s75.5 53 129.5 53c49.333 0 87.666 -14.167 114.999 -42.5s41 -61.833 41 -100.5c0 -62 -26 -109 -78 -141c40 -32.667 94.667 -49 164 -49
c74.667 0 132.167 23.667 172.5 71s60.5 115 60.5 203c0 90 -19.167 156.167 -57.5 198.5s-95.5 63.5 -171.5 63.5c-78.667 0 -154.667 -29.333 -228 -88l-131 39l47 680l50 45c126.667 -46.667 268.667 -70 426 -70c68.667 0 128.5 6.33301 179.5 19
s102.833 32.334 155.5 59.001l54 -100c-88.667 -164 -226.667 -246 -414 -246c-105.333 0 -208.333 19 -309 57z" />
    <glyph glyph-name="six" unicode="6" horiz-adv-x="1202" 
d="M420 666c30.667 45.333 72.832 81.166 126.499 107.499s113.167 39.5 178.5 39.5c120.667 0 218 -35.833 292 -107.5s111 -168.167 111 -289.5c0 -47.333 -6.66699 -92.833 -20 -136.5s-33.666 -84.5 -60.999 -122.5s-60.333 -71 -99 -99s-85.167 -50.167 -139.5 -66.5
s-113.5 -24.5 -177.5 -24.5c-86 0 -164 16.667 -234 50s-127.333 78.833 -172 136.5s-79 124.834 -103 201.501s-36 159 -36 247c0 222 56.5 399 169.5 531s266.167 198 459.5 198c120 0 213.833 -25.5 281.5 -76.5s101.5 -114.167 101.5 -189.5
c0 -52 -15.833 -94.667 -47.5 -128s-73.167 -50 -124.5 -50c-52 0 -92 14.167 -120 42.5s-42 63.833 -42 106.5c0 26 5.5 50.167 16.5 72.5s25.833 39.833 44.5 52.5c-26 20.667 -63.333 31 -112 31c-100 0 -174.333 -41.167 -223 -123.5s-72 -216.5 -70 -402.5z
M427.998 401c0 -94.667 19.333 -166.667 58 -216s87.667 -74 147 -74c113.333 0 170 89.333 170 268c0 191.333 -61.667 287 -185 287c-58.667 0 -105 -23 -139 -69s-51 -111.333 -51 -196z" />
    <glyph glyph-name="seven" unicode="7" horiz-adv-x="1130" 
d="M662 156c-16 -126 -74.333 -189.001 -175 -189.001c-56 0 -100 15.167 -132 45.5s-48 70.5 -48 120.5c0 96 36 199 108 309s199.333 261.667 382 455c1.33301 1.33301 10.166 10.666 26.499 27.999l49.5 52.5c16.667 17.667 27.334 28.5 32.001 32.5l-12 12
c-69.333 -48 -141 -72 -215 -72c-45.333 0 -100 12.667 -164 38s-108.333 38 -133 38c-36.667 0 -65.167 -16.333 -85.5 -49s-38.166 -94 -53.499 -184h-168v520h180l18 -170h15c36.667 121.333 100 182 190 182c30.667 0 59.834 -7.16699 87.501 -21.5
s51.667 -31.5 72 -51.5s39.833 -40.167 58.5 -60.5s38.667 -37.666 60 -51.999s42.666 -21.5 63.999 -21.5c12.667 0 23 1.33301 31 4c-16.667 19.333 -25 44 -25 74c0 40.667 13 73.334 39 98.001s61.667 37 107 37c44 0 79.5 -13.833 106.5 -41.5
s40.5 -62.167 40.5 -103.5c0 -27.333 -6.33301 -55 -19 -83s-26.334 -51.167 -41.001 -69.5s-35.667 -42.5 -63 -72.5c-39.333 -44 -73.833 -88 -103.5 -132s-60 -97.667 -91 -161s-58.167 -138 -81.5 -224s-42.333 -182 -57 -288z" />
    <glyph glyph-name="eight" unicode="8" horiz-adv-x="1177" 
d="M111 926c0 113.333 45.501 209.172 136.501 287.505s209.167 117.5 354.5 117.5c74 0 141 -8.83301 201 -26.5s108.667 -41.334 146 -71.001s66 -63.167 86 -100.5s30 -77 30 -119c0 -66 -22.333 -123.333 -67 -172s-106.334 -84.334 -185.001 -107.001
c194 -71.333 291 -185.333 291 -342c0 -122.667 -48 -224.334 -144 -305.001s-221.333 -121 -376 -121c-156 0 -278 33.167 -366 99.5s-132 146.5 -132 240.5c0 66.667 23.167 125.167 69.5 175.5s111.833 88.166 196.5 113.499c-78 31.333 -137.667 73.166 -179 125.499
s-62 120.5 -62 204.5zM827.001 289.006c0 33.333 -8.50098 63 -25.501 89s-43.5 49 -79.5 69s-75 37.5 -117 52.5s-95 30.833 -159 47.5c-74.667 -52.667 -112 -125 -112 -217c0 -66 22.833 -119.333 68.5 -160s110.834 -61 195.501 -61c70 0 125.667 17 167 51
s62 77 62 129zM389 1024.01c0 -33.333 6.99902 -62.333 20.999 -87s36.333 -46.5 67 -65.5s64.334 -35.5 101.001 -49.5s83.667 -28.667 141 -44c69.333 54 104 125 104 213c0 54.667 -20.667 101.5 -62 140.5s-98.333 58.5 -171 58.5c-62 0 -111 -15.833 -147 -47.5
s-54 -71.167 -54 -118.5z" />
    <glyph glyph-name="nine" unicode="9" horiz-adv-x="1202" 
d="M782 616c-30.667 -45.333 -73 -81.1699 -127 -107.503s-113.333 -39.5 -178 -39.5c-121.333 0 -219.166 36.333 -293.499 109s-111.5 171.334 -111.5 296.001c0 61.333 10.833 119.166 32.5 173.499s52.834 102.833 93.501 145.5s93.167 76.334 157.5 101.001
s136.166 37 215.499 37c86 0 164 -16.667 234 -50s127.333 -78.833 172 -136.5s79 -124.834 103 -201.501s36 -159 36 -247c0 -223.333 -55.833 -400.666 -167.5 -531.999s-264.834 -197 -459.501 -197c-126.667 0 -225.167 25.833 -295.5 77.5s-105.5 116.167 -105.5 193.5
c0 52 15.667 94.667 47 128s72.333 50 123 50c52 0 92.333 -14.167 121 -42.5s43 -63.5 43 -105.5c0 -25.333 -5.83301 -49.166 -17.5 -71.499s-26.5 -40.166 -44.5 -53.499c37.333 -24.667 81.333 -37 132 -37c64.667 0 118 16.333 160 49s74.333 87.167 97 163.5
s33.667 175.5 33 297.5zM774 890.996c0 98 -19.333 172 -58 222s-87.667 75 -147 75c-113.333 0 -170 -93 -170 -279c0 -102.667 15.667 -177.167 47 -223.5s77.333 -69.5 138 -69.5c58.667 0 105 23.5 139 70.5s51 115.167 51 204.5z" />
    <glyph glyph-name="colon" unicode=":" horiz-adv-x="552" 
d="M276 551c-50.667 0 -93.667 17.5 -129 52.5s-53 77.5 -53 127.5c0 51.333 17.833 94.5 53.5 129.5s79.5 52.5 131.5 52.5c50.667 0 93.667 -17.5 129 -52.5s53 -77.5 53 -127.5s-17.833 -92.833 -53.5 -128.5s-79.5 -53.5 -131.5 -53.5zM276 -35
c-50.667 0 -93.667 17.501 -129 52.501s-53 77.5 -53 127.5c0 51.333 17.833 94.666 53.5 129.999s79.5 53 131.5 53c50.667 0 93.667 -17.667 129 -53s53 -78 53 -128s-17.833 -92.833 -53.5 -128.5s-79.5 -53.5 -131.5 -53.5z" />
    <glyph glyph-name="semicolon" unicode=";" horiz-adv-x="552" 
d="M279 551c-50.667 0 -93.833 17.5 -129.5 52.5s-53.5 77.5 -53.5 127.5c0 51.333 17.833 94.5 53.5 129.5s79.5 52.5 131.5 52.5c50.667 0 93.667 -17.5 129 -52.5s53 -77.5 53 -127.5s-17.833 -92.833 -53.5 -128.5s-79.167 -53.5 -130.5 -53.5zM84.001 -340
l-47.002 98.001c84.667 35.333 149.667 74.5 195 117.5s73 92.167 83 147.5l-14 8c-19.333 -24.667 -46.666 -37 -81.999 -37c-37.333 0 -68.166 13.667 -92.499 41s-36.5 62.666 -36.5 105.999c0 51.333 16.667 95.333 50 132s75.333 55 126 55
c62 0 111.333 -21.333 148 -64s55 -100.667 55 -174c0 -100 -32.833 -186.667 -98.5 -260s-161.167 -130 -286.5 -170z" />
    <glyph glyph-name="less" unicode="&#x3c;" horiz-adv-x="1073" 
d="M924 123l-772 369v182l772 368v-194l-596 -266l596 -267v-192z" />
    <glyph glyph-name="equal" unicode="=" horiz-adv-x="1075" 
d="M111 696v178h854v-178h-854zM111 291v178h854v-178h-854z" />
    <glyph glyph-name="greater" unicode="&#x3e;" horiz-adv-x="1073" 
d="M150 1042l772 -368v-182l-772 -369v194l595 267l-595 266v192z" />
    <glyph glyph-name="question" unicode="?" horiz-adv-x="1011" 
d="M375 449c2 119.333 40.999 231.667 116.999 337c3.33301 5.33301 13.666 19.5 30.999 42.5s28 37.667 32 44l23 38c11.333 19 18.666 34.333 21.999 46s6.83301 26.667 10.5 45s5.5 36.833 5.5 55.5c0 63.333 -15.833 111.833 -47.5 145.5s-77.834 50.5 -138.501 50.5
c-39.333 0 -74.666 -7 -105.999 -21s-53.333 -32.667 -66 -56c34.667 -12 62.5 -31.5 83.5 -58.5s31.5 -58.167 31.5 -93.5c0 -45.333 -14.667 -83.333 -44 -114s-69.333 -46 -120 -46c-52 0 -94.667 17.333 -128 52s-50 80.334 -50 137.001
c0 95.333 41.833 177.166 125.5 245.499s194.5 102.5 332.5 102.5c144 0 258.167 -35.167 342.5 -105.5s126.5 -156.833 126.5 -259.5c0 -39.333 -4.83301 -74.833 -14.5 -106.5s-24.667 -60.667 -45 -87s-41.666 -49.333 -63.999 -69s-50.5 -41.167 -84.5 -64.5
c-59.333 -40 -106.166 -79.167 -140.499 -117.5s-60.166 -85.833 -77.499 -142.5h-157zM456.999 -34.999c-52 0 -95.5 17 -130.5 51s-52.5 75.667 -52.5 125s17.667 91.333 53 126s79.333 52 132 52c50.667 0 93.667 -17 129 -51s53 -75.667 53 -125
s-17.667 -91.333 -53 -126s-79 -52 -131 -52z" />
    <glyph glyph-name="at" unicode="@" horiz-adv-x="1843" 
d="M952 -311c-125.333 0 -240.998 18.5 -346.998 55.5s-197.167 89.667 -273.5 158s-136 153.5 -179 255.5s-64.5 215.333 -64.5 340c0 131.333 24 254 72 368s112.833 210.667 194.5 290s178.5 141.666 290.5 186.999s230.667 68 356 68
c144.667 0 275.167 -28.5 391.5 -85.5s208.666 -140 276.999 -249s102.5 -235.167 102.5 -378.5c0 -91.333 -13.167 -174.833 -39.5 -250.5s-61.333 -137.667 -105 -186s-93.334 -85.5 -149.001 -111.5s-113.5 -39 -173.5 -39c-84 0 -151.167 18.833 -201.5 56.5
s-72.166 94.5 -65.499 170.5l-14 6c-35.333 -73.333 -76.833 -128.5 -124.5 -165.5s-98.167 -55.5 -151.5 -55.5c-87.333 0 -154.333 28.333 -201 85s-70 131.334 -70 224.001c0 80 15.667 160 47 240s71 144 119 192c79.333 79.333 169.333 119 270 119
c53.333 0 98.166 -16 134.499 -48s59.166 -72.667 68.499 -122l45 156h248l-152 -514c-21.333 -73.333 -24.166 -126.166 -8.49902 -158.499s52.167 -48.5 109.5 -48.5c46.667 0 91.834 19.667 135.501 59s79.334 93.666 107.001 162.999s41.5 144 41.5 224
c0 120.667 -27.833 227.5 -83.5 320.5s-132.334 164.333 -230.001 214s-208.834 74.5 -333.501 74.5c-108 0 -210 -20.5 -306 -61.5s-178.333 -96.667 -247 -167s-123 -155 -163 -254s-60 -204.5 -60 -316.5c0 -142.667 30.833 -267.667 92.5 -375
s148.167 -189.5 259.5 -246.5s240.333 -85.5 387 -85.5c190.667 0 363.667 54 519 162l57 -94c-171.333 -117.333 -365.333 -176 -582 -176zM842.002 289c45.333 0 86.832 24.4971 124.499 73.4971s65.834 104.333 84.501 166s28 117.5 28 167.5
c0 97.333 -35.333 146 -106 146c-36 0 -69.5 -15.667 -100.5 -47s-55.667 -69.666 -74 -114.999s-32.5 -90.666 -42.5 -135.999s-15 -84.666 -15 -117.999c0 -91.333 33.667 -137 101 -137z" />
    <glyph glyph-name="A" unicode="A" horiz-adv-x="1503" 
d="M975 178l-86 252h-461l-86 -252h170v-178h-518v178h147l434 1178h336l428 -1178h160v-178h-706v178h182zM657 1096l-174 -504h353l-170 504h-9z" />
    <glyph glyph-name="B" unicode="B" horiz-adv-x="1392" 
d="M55 0l-0.000976562 178h185v991h-185v179h693c358.667 0 538 -108.667 538 -326c0 -74.667 -28.833 -140 -86.5 -196s-149.5 -93.667 -275.5 -113v-15c274 -30 411 -138.333 411 -325c0 -54 -9.83301 -102.5 -29.5 -145.5s-51 -82 -94 -117s-102.667 -62.167 -179 -81.5
s-167.166 -29 -272.499 -29h-705zM572.999 786h138c86.667 0 148.167 17.333 184.5 52s54.5 85.667 54.5 153c0 63.333 -16.667 108.833 -50 136.5s-95 41.5 -185 41.5h-142v-383zM572.999 178l142.001 0.000976562c104.667 0 177.167 16.667 217.5 50
s60.5 91.666 60.5 174.999c0 68.667 -21.833 121 -65.5 157s-115.834 54 -216.501 54h-138v-436z" />
    <glyph glyph-name="C" unicode="C" horiz-adv-x="1423" 
d="M764 -33c-208.667 0 -375.833 64.1689 -501.5 192.502s-188.5 297.166 -188.5 506.499c0 102.667 17.5 198.667 52.5 288s82 165 141 227s128.167 110.667 207.5 146s162.666 53 249.999 53c168.667 0 296.334 -53 383.001 -159l43 155h184v-536h-202
c-41.333 125.333 -91.833 218.666 -151.5 279.999s-131.5 92 -215.5 92c-218.667 0 -328 -175.333 -328 -526c0 -179.333 32.333 -311.833 97 -397.5s156.667 -128.5 276 -128.5c98 0 177 33.833 237 101.5s99 160.167 117 277.5h197
c-18 -178.667 -77.667 -318.667 -179 -420s-241 -152 -419 -152z" />
    <glyph glyph-name="D" unicode="D" horiz-adv-x="1538" 
d="M55 0v178h185v991h-185v179h604c134 0 252.5 -15.833 355.5 -47.5s187.167 -77 252.5 -136s114.5 -129 147.5 -210s49.5 -171.833 49.5 -272.5s-16 -192.167 -48 -274.5s-79.833 -154 -143.5 -215s-146.5 -108.333 -248.5 -142s-219.333 -50.5 -352 -50.5h-617zM573 174
h117c149.333 0 255 37.5 317 112.5s93 206.167 93 393.5c0 178 -32.5 304.833 -97.5 380.5s-173.833 113.5 -326.5 113.5h-103v-1000z" />
    <glyph glyph-name="E" unicode="E" horiz-adv-x="1447" 
d="M55 0l0.000976562 177.995h185v991h-185v179h1282v-480h-178c-14 69.333 -26.333 121.833 -37 157.5s-25.667 65.834 -45 90.501s-41.666 40.5 -66.999 47.5s-60.333 10.5 -105 10.5h-332v-408h111c20.667 0 37.167 0.666992 49.5 2s24 4.83301 35 10.5
s19.333 11.834 25 18.501s11.334 18.334 17.001 35.001s10.334 33.334 14.001 50.001s8.16699 40.667 13.5 72h159v-546h-159c-12.667 84.667 -27.5 137.834 -44.5 159.501s-53.5 32.5 -109.5 32.5h-111v-426h324c35.333 0 65 2 89 6s45.667 12.167 65 24.5
s34.666 25.833 45.999 40.5s22.166 37.5 32.499 68.5s18.666 61.667 24.999 92s14.166 72.5 23.499 126.5h178v-532h-1301z" />
    <glyph glyph-name="F" unicode="F" horiz-adv-x="1384" 
d="M55 0l-0.00195312 177.997h185v991h-185v179h1256v-490h-178c-13.333 57.333 -25.833 103.833 -37.5 139.5s-24.5 65.834 -38.5 90.501s-31 42.834 -51 54.501s-41.5 19.834 -64.5 24.501s-52.833 7 -89.5 7h-279v-431h86c56.667 0 93.334 10.5 110.001 31.5
s31.334 73.5 44.001 157.5h160v-553h-160c-10 84.667 -24 138.5 -42 161.5s-55.333 34.5 -112 34.5h-86v-397h224v-178h-742z" />
    <glyph glyph-name="G" unicode="G" horiz-adv-x="1538" 
d="M1098 186c-77.333 -146 -203.001 -218.999 -377.001 -218.999c-124 0 -235.167 29.5 -333.5 88.5s-175.166 142.167 -230.499 249.5s-83 229.666 -83 366.999c0 99.333 18 193.333 54 282s84 163.834 144 225.501s130 110.5 210 146.5s163 54 249 54
c163.333 0 288.333 -56 375 -168l43 164h186v-524h-227c-39.333 123.333 -86.5 214.166 -141.5 272.499s-121.833 87.5 -200.5 87.5c-99.333 0 -178.833 -43.333 -238.5 -130s-89.5 -218.667 -89.5 -396c0 -171.333 28.5 -303.166 85.5 -395.499
s141.167 -138.5 252.5 -138.5c78 0 141 30 189 90c43.333 51.333 65 131.666 65 240.999v37h-225v178h711v-178h-156v-536h-184z" />
    <glyph glyph-name="H" unicode="H" horiz-adv-x="1671" 
d="M55 0v178h185v991h-185v179h701v-179h-183v-385h527v385h-185v179h703v-179h-184v-991h184v-178h-703v178h185v434h-527v-434h183v-178h-701z" />
    <glyph glyph-name="I" unicode="I" horiz-adv-x="866" 
d="M78 0v178h188v991h-188v179h710v-179h-188v-991h188v-178h-710z" />
    <glyph glyph-name="J" unicode="J" horiz-adv-x="1200" 
d="M514 -33c-146.667 0 -263.501 32.8311 -350.501 98.498s-130.5 151.834 -130.5 258.501c0 62.667 18.833 114.834 56.5 156.501s84.834 62.5 141.501 62.5c50 0 90.833 -15 122.5 -45s47.5 -72.333 47.5 -127c0 -38 -9.5 -71.833 -28.5 -101.5s-44.833 -52.5 -77.5 -68.5
c36 -46.667 95.333 -70 178 -70c61.333 0 108.166 19.333 140.499 58s48.5 93.667 48.5 165v815h-201v179h717v-179h-181v-733c0 -147.333 -40.667 -262.333 -122 -345s-201.666 -124 -360.999 -124z" />
    <glyph glyph-name="K" unicode="K" horiz-adv-x="1538" 
d="M573 455v-279h166v-176h-684v178h185v991h-185v179h693v-177h-175v-503l504 503h-166v177h572v-179h-166l-356 -350l458 -641h146v-178h-684v176h151l-299 434z" />
    <glyph glyph-name="L" unicode="L" horiz-adv-x="1304" 
d="M55 1348l721.004 -0.00195312v-174h-203v-1000h230c29.333 0 53.166 1.33301 71.499 4s36.5 9.33398 54.5 20.001s32.667 23.667 44 39s23.666 38.5 36.999 69.5s25.666 65.333 36.999 103s24.666 86.834 39.999 147.501h162v-557h-1194v178h185v991h-185v179z" />
    <glyph glyph-name="M" unicode="M" horiz-adv-x="1970" 
d="M57 0v178h176v991h-176v179h650l290 -832h7l272 832h637v-179h-180v-991h180v-178h-684v178h170v948h-19l-397 -1128h-137l-412 1128h-18v-948h170v-178h-529z" />
    <glyph glyph-name="N" unicode="N" horiz-adv-x="1609" 
d="M1067 -18l-633 1044h-18v-848h184v-178h-543v178h176v991h-176v179h574l571 -942h19v763h-185v179h543v-179h-176v-1187h-336z" />
    <glyph glyph-name="O" unicode="O" horiz-adv-x="1531" 
d="M766 -33c-99.333 0 -191.665 16.833 -276.998 50.5s-158.5 80.667 -219.5 141s-108.833 134.666 -143.5 222.999s-52 185.166 -52 290.499c0 138 30.5 261.167 91.5 369.5s144 191.833 249 250.5s222.167 88 351.5 88c133.333 0 252.166 -28.667 356.499 -86
s186.333 -139.666 246 -246.999s89.5 -231 89.5 -371c0 -104 -17.833 -200.333 -53.5 -289s-84.334 -163.667 -146.001 -225s-135 -109.166 -220 -143.499s-175.833 -51.5 -272.5 -51.5zM772.001 135c109.333 0 190.333 43.5 243 130.5s79 223.167 79 408.5
c0 358.667 -111.333 538 -334 538c-109.333 0 -190.333 -43.5 -243 -130.5s-79 -222.833 -79 -407.5c0 -359.333 111.333 -539 334 -539z" />
    <glyph glyph-name="P" unicode="P" horiz-adv-x="1359" 
d="M55 0v178h185v991h-185v179h670c202.667 0 351.334 -36.5 446.001 -109.5s142 -173.167 142 -300.5c0 -47.333 -6.5 -91.333 -19.5 -132s-34.333 -78.667 -64 -114s-66.834 -65.5 -111.501 -90.5s-100 -44.5 -166 -58.5s-140.333 -21 -223 -21h-156v-344h199v-178h-717z
M573 692h132c95.333 0 161 19.667 197 59s54 102.333 54 189c0 82 -18.5 142.167 -55.5 180.5s-103.167 57.5 -198.5 57.5h-129v-486z" />
    <glyph glyph-name="Q" unicode="Q" horiz-adv-x="1531" 
d="M766 -27c-132.667 0 -251.498 28.6631 -356.498 85.9961s-187.167 139.333 -246.5 246s-89 229 -89 367s30.5 261.167 91.5 369.5s144 191.833 249 250.5s222.167 88 351.5 88c133.333 0 252.166 -28.667 356.499 -86s186.333 -139.666 246 -246.999s89.5 -231 89.5 -371
c0 -113.333 -23.667 -218.166 -71 -314.499s-112.333 -177.166 -195 -242.499c26.667 -56 50.834 -94 72.501 -114s47.167 -30 76.5 -30c31.333 0 55.166 11.833 71.499 35.5s29.5 65.834 39.5 126.501h131c-10 -128.667 -39.833 -222.5 -89.5 -281.5
s-118.834 -88.5 -207.501 -88.5c-82 0 -146.833 17.833 -194.5 53.5s-91.167 95.5 -130.5 179.5c-70.667 -18 -135.667 -27 -195 -27zM498.002 323.996c18 68.667 50.3311 123.334 96.998 164.001s105 61 175 61c66.667 0 122.834 -17.333 168.501 -52
s85.834 -88.334 120.501 -161.001c28.667 83.333 43 196 43 338c0 183.333 -28.5 318.833 -85.5 406.5s-142.5 131.5 -256.5 131.5c-109.333 0 -190.333 -43.5 -243 -130.5s-79 -222.833 -79 -407.5c0 -161.333 20 -278 60 -350zM772 134.996
c44.667 0 83.668 5.66602 117.001 16.999c-28 70 -56.5 122.167 -85.5 156.5s-64.833 51.5 -107.5 51.5c-34.667 0 -62.334 -11.667 -83.001 -35s-31 -51.666 -31 -84.999c0 -70 63.333 -105 190 -105z" />
    <glyph glyph-name="R" unicode="R" horiz-adv-x="1490" 
d="M573 588v-409.999h191v-178h-709v178h185v991h-185v179h740c98 0 183.333 -9.66699 256 -29s129.334 -45.666 170.001 -78.999s70.5 -69.5 89.5 -108.5s28.5 -80.833 28.5 -125.5c0 -188.667 -139 -299.334 -417 -332.001v-15
c122.667 -10.667 210.5 -41.334 263.5 -92.001s81.167 -119 84.5 -205l6 -79c2 -42.667 7.66699 -71.5 17 -86.5s24.666 -22.5 45.999 -22.5c15.333 0 29.333 9 42 27s26 49.333 40 94l121 -39c-21.333 -89.333 -56 -159.166 -104 -209.499s-115 -75.5 -201 -75.5
c-104.667 0 -181.667 27.667 -231 83s-74 139.666 -74 252.999l-2 70c-0.666992 39.333 -3.66699 71.5 -9 96.5s-15 46.5 -29 64.5s-33.167 30.833 -57.5 38.5s-55.5 11.5 -93.5 11.5h-168zM573 754.001l179 -0.000976562c80.667 0 139 16.833 175 50.5s54 89.167 54 166.5
c0 72.667 -16 125.334 -48 158.001s-90.333 49 -175 49h-185v-424z" />
    <glyph glyph-name="S" unicode="S" horiz-adv-x="1265" 
d="M92 -29l-0.00488281 499.997h180c45.333 -117.333 99.833 -202.333 163.5 -255s148.5 -79 254.5 -79c71.333 0 127.166 16.167 167.499 48.5s60.5 75.5 60.5 129.5c0 24 -5.83301 45.333 -17.5 64s-24.667 33.834 -39 45.501s-38.666 23.834 -72.999 36.501
s-63.166 22.167 -86.499 28.5s-60.333 15.833 -111 28.5c-7.33301 2 -12.666 3.33301 -15.999 4c-37.333 9.33301 -69.333 17.666 -96 24.999s-57.667 17.5 -93 30.5s-65.333 26.667 -90 41s-49.834 32.5 -75.501 54.5s-46.5 45.833 -62.5 71.5s-29 56.167 -39 91.5
s-15 74 -15 116c0 123.333 45.833 225.5 137.5 306.5s203.834 121.5 336.501 121.5c73.333 0 140.333 -13.167 201 -39.5s108.334 -62.833 143.001 -109.5l43 145h180v-479h-180c-43.333 112 -92.666 192.167 -147.999 240.5s-126.333 72.5 -213 72.5
c-66 0 -117.667 -16.5 -155 -49.5s-56 -73.833 -56 -122.5c0 -18 3 -34.667 9 -50s13.5 -28.666 22.5 -39.999s22 -22.166 39 -32.499s33.167 -19 48.5 -26s36.333 -14.5 63 -22.5s49.834 -14.5 69.501 -19.5l79.5 -19.5c9.33301 -2 16.333 -3.66699 21 -5
c38 -9.33301 69.833 -17.5 95.5 -24.5s56 -17 91 -30s64.167 -26.333 87.5 -40s47.833 -31 73.5 -52s46 -44 61 -69s27.5 -54.667 37.5 -89s15 -71.833 15 -112.5c0 -128.667 -46 -234 -138 -316s-211 -123 -357 -123c-82 0 -158 15.167 -228 45.5
s-124.667 69.833 -164 118.5l-49 -160h-178z" />
    <glyph glyph-name="T" unicode="T" horiz-adv-x="1429" 
d="M336 0l-0.00195312 177.999h211v1016h-51c-29.333 0 -53.666 -1.66699 -72.999 -5s-37.833 -10.666 -55.5 -21.999s-32.334 -25.166 -44.001 -41.499s-23.667 -40.333 -36 -72s-23.5 -66.167 -33.5 -103.5s-21.667 -85.666 -35 -144.999h-162v543h1315v-543h-162
c-13.333 60 -25 108.5 -35 145.5s-21.167 71.333 -33.5 103s-24.166 55.667 -35.499 72s-25.833 30.166 -43.5 41.499s-36.167 18.666 -55.5 21.999s-43.666 5 -72.999 5h-51v-1016h211v-178h-758z" />
    <glyph glyph-name="U" unicode="U" horiz-adv-x="1540" 
d="M797 -33c-194 0 -340.498 43.5 -439.498 130.5s-148.5 208.833 -148.5 365.5v706h-174v179h696v-179h-188v-659c0 -122 25.833 -208.833 77.5 -260.5s130.167 -77.5 235.5 -77.5c91.333 0 163.666 26.667 216.999 80c56 56 84 155.667 84 299v618h-180v179h539v-179h-168
v-696c0 -70 -11.167 -135 -33.5 -195s-55.333 -113.5 -99 -160.5s-101.334 -83.833 -173.001 -110.5s-153.5 -40 -245.5 -40z" />
    <glyph glyph-name="V" unicode="V" horiz-adv-x="1509" 
d="M612 -8l-444 1177h-160v179h709v-179h-182l305 -876h14l313 876h-170v179h519v-179h-148l-446 -1177h-310z" />
    <glyph glyph-name="W" unicode="W" horiz-adv-x="2183" 
d="M1520 1171h-174l233 -852h16l238 852h-168v177h522v-179h-155l-365 -1177h-324l-221 751l-272 -751h-320l-352 1177h-170v179h697v-177h-164l237 -856h17l247 682l-51 174h-151v177h680v-177z" />
    <glyph glyph-name="X" unicode="X" horiz-adv-x="1470" 
d="M899 1171v177h539v-179h-156l-373 -438l408 -553h149v-178h-700v176h158l-244 356l-281 -356h158v-176h-541v178h158l385 465l-393 526h-152v179h701v-177h-156l229 -327l269 327h-158z" />
    <glyph glyph-name="Y" unicode="Y" horiz-adv-x="1384" 
d="M788 739l256 432h-161v177h520v-179h-150l-383 -608v-383h183v-178h-699v178h183v363l-390 628h-141v179h688v-177h-153z" />
    <glyph glyph-name="Z" unicode="Z" horiz-adv-x="1341" 
d="M57 0v161.999l811 1012h-327c-29.333 0 -53.166 -1.33301 -71.499 -4s-36.5 -8.83398 -54.5 -18.501s-32.833 -21.834 -44.5 -36.501s-24.167 -36.5 -37.5 -65.5s-25.666 -61.667 -36.999 -98s-24.666 -83.166 -39.999 -140.499h-160v537h1168v-162l-813 -1012h374
c29.333 0 53.166 1.33301 71.499 4s36.5 9.33398 54.5 20.001s32.667 23.667 44 39s23.666 38.5 36.999 69.5s25.666 65.333 36.999 103s25 86.834 41 147.501h160v-557h-1213z" />
    <glyph glyph-name="bracketleft" unicode="[" horiz-adv-x="749" 
d="M162 -326v1809h602v-158h-322v-1491h322v-160h-602z" />
    <glyph glyph-name="backslash" unicode="\" horiz-adv-x="874" 
d="M799 -416l-795 1872h201l794 -1872h-200z" />
    <glyph glyph-name="bracketright" unicode="]" horiz-adv-x="749" 
d="M588 1483v-1809h-602v160h321v1491h-321v158h602z" />
    <glyph glyph-name="asciicircum" unicode="^" horiz-adv-x="761" 
d="M29 1006l270 462h170l264 -462h-174l-178 221l-178 -221h-174z" />
    <glyph glyph-name="underscore" unicode="_" horiz-adv-x="915" 
d="M-4 0v178h924v-178h-924z" />
    <glyph glyph-name="grave" unicode="`" horiz-adv-x="548" 
d="M463 1096h-132.998l-152 135c-43.333 38 -74.333 70 -93 96s-28 55.333 -28 88c0 32 12.667 60.5 38 85.5s55.666 37.5 90.999 37.5c44.667 0 80.167 -16.5 106.5 -49.5s53.166 -84.833 80.499 -155.5z" />
    <glyph glyph-name="a" unicode="a" horiz-adv-x="1122" 
d="M352 -18c-86 0 -156.335 23.168 -211.002 69.501s-82 107.833 -82 184.5c0 64.667 22.667 119.667 68 165c33.333 33.333 79.5 60.666 138.5 81.999s145.167 39.333 258.5 54c58 8 93 14.167 105 18.5s18 12.5 18 24.5v84c0 60 -14.167 102.833 -42.5 128.5
s-72.833 38.5 -133.5 38.5c-43.333 0 -84.333 -8 -123 -24c32.667 -24 49 -59 49 -105c0 -36 -13.667 -66.167 -41 -90.5s-62 -36.5 -104 -36.5c-49.333 0 -87.666 13.833 -114.999 41.5s-41 61.834 -41 102.501c0 56 21.833 104.167 65.5 144.5s99.167 69.666 166.5 87.999
s141.666 27.5 222.999 27.5c260.667 0 391 -111.333 391 -334v-436c0 -22 4 -37 12 -45s21 -12 39 -12c26.667 0 48 30.667 64 92l100 -33c-19.333 -79.333 -49.166 -137.333 -89.499 -174s-94.5 -55 -162.5 -55c-61.333 0 -112.166 16.667 -152.499 50s-64.5 84 -72.5 152
h-10c-56.667 -134.667 -162.667 -202 -318 -202zM491.998 156.001c46 0 83.333 19.499 112 58.499s43 89.167 43 150.5v94c-5.33301 -1.33301 -17.5 -3.66602 -36.5 -6.99902l-55.5 -10c-71.333 -12 -120.833 -30.5 -148.5 -55.5s-41.5 -60.833 -41.5 -107.5
c0 -36 10.5 -65.5 31.5 -88.5s52.833 -34.5 95.5 -34.5z" />
    <glyph glyph-name="b" unicode="b" horiz-adv-x="1187" 
d="M633 145c114.667 0 172 110.666 172 331.999c0 209.333 -57.333 314 -172 314c-63.333 0 -113.333 -30.833 -150 -92.5s-55 -140.167 -55 -235.5s18.333 -172.166 55 -230.499s86.667 -87.5 150 -87.5zM145 -14.001l-0.000976562 1253h-139v174h440v-645
c30.667 66.667 71.834 118.834 123.501 156.501s112.5 56.5 182.5 56.5c96.667 0 177.667 -32.667 243 -98c87.333 -87.333 131 -221.333 131 -402c0 -85.333 -12 -162.333 -36 -231s-57.667 -124.667 -101 -168c-68 -68 -153.333 -102 -256 -102
c-154.667 0 -266.667 66.667 -336 200l-94 -194h-158z" />
    <glyph glyph-name="c" unicode="c" horiz-adv-x="1050" 
d="M575 -20c-161.333 0 -288.002 44 -380.002 132s-138 205 -138 351c0 154 49.167 278.833 147.5 374.5s225.5 143.5 381.5 143.5c66 0 126.333 -9.33301 181 -28s98.834 -43.167 132.501 -73.5s59.5 -63.5 77.5 -99.5s27 -72.667 27 -110
c0 -52.667 -14.333 -95.167 -43 -127.5s-69 -48.5 -121 -48.5c-48 0 -85.667 14 -113 42s-41 62.333 -41 103c0 31.333 8.5 58.5 25.5 81.5s37.167 38.833 60.5 47.5c-34.667 44 -87.334 66 -158.001 66c-69.333 0 -125.833 -31.167 -169.5 -93.5s-65.5 -147.5 -65.5 -255.5
c0 -102.667 20.667 -183.5 62 -242.5s101.333 -88.5 180 -88.5c108.667 0 183.667 58.667 225 176h160c-23.333 -107.333 -71.666 -192.5 -144.999 -255.5s-168.666 -94.5 -285.999 -94.5z" />
    <glyph glyph-name="d" unicode="d" horiz-adv-x="1216" 
d="M438 -20c-98.667 0 -181.335 33.335 -248.002 100.002c-87.333 87.333 -131 219 -131 395c0 85.333 12.333 163.166 37 233.499s59 127.166 103 170.499c64.667 68 148.667 102 252 102c124.667 0 220.667 -54.667 288 -164v422h-147v174h446v-1243h138v-170h-418v201
c-29.333 -69.333 -71.166 -123.5 -125.499 -162.5s-119.166 -58.5 -194.499 -58.5zM562.999 156.002c58.667 0 105.832 30 141.499 90s53.5 137.667 53.5 233c0 96 -16.167 173.667 -48.5 233s-81.166 89 -146.499 89c-121.333 0 -182 -109.333 -182 -328
c0 -211.333 60.667 -317 182 -317z" />
    <glyph glyph-name="e" unicode="e" horiz-adv-x="1081" 
d="M1022 440l-653 -0.00195312c6 -107.333 30 -183.666 72 -228.999s102.667 -68 182 -68c58.667 0 106.167 13.167 142.5 39.5s65.166 69.166 86.499 128.499h160c-19.333 -104.667 -65.333 -186 -138 -244s-173.667 -87 -303 -87c-158 0 -283.167 44.667 -375.5 134
s-138.5 208.333 -138.5 357c0 96 21.833 182.833 65.5 260.5s104 138.667 181 183s162.833 66.5 257.5 66.5c105.333 0 193.833 -23.667 265.5 -71s123.334 -111.166 155.001 -191.499s45.167 -173.166 40.5 -278.499zM555 841.998c-56 0 -99.166 -20.833 -129.499 -62.5
s-48.5 -111.834 -54.5 -210.501h358c-4.66699 96.667 -20.834 166.334 -48.501 209.001s-69.5 64 -125.5 64z" />
    <glyph glyph-name="f" unicode="f" horiz-adv-x="782" 
d="M66 0v170.002h139v618h-174v160h174v41c0 71.333 12.333 135.333 37 192s58.167 102.667 100.5 138s90.333 62.166 144 80.499s111.167 27.5 172.5 27.5c99.333 0 173.666 -17.833 222.999 -53.5s74 -83.834 74 -144.501c0 -42.667 -14 -78.667 -42 -108
s-63.667 -44 -107 -44c-45.333 0 -81.666 12.5 -108.999 37.5s-41 59.833 -41 104.5c0 33.333 10.333 60.333 31 81c-17.333 8.66699 -35 13 -53 13c-46 0 -81.333 -18.667 -106 -56s-37 -101.333 -37 -192v-117h288v-160h-274v-618h203v-170h-643z" />
    <glyph glyph-name="g" unicode="g" horiz-adv-x="1067" 
d="M928 674c0 -99.333 -35.6699 -175.668 -107.003 -229.001s-173.666 -80 -306.999 -80c-14 0 -36.333 0.666992 -67 2s-52 2 -64 2c-28.667 0 -52.167 -6.66699 -70.5 -20s-27.5 -29.333 -27.5 -48c0 -45.333 49 -68 147 -68h264c121.333 0 210.833 -22.667 268.5 -68
s86.5 -108 86.5 -188c0 -102 -48.5 -183 -145.5 -243s-245.167 -90 -444.5 -90c-151.333 0 -264.333 18.333 -339 55s-112 88 -112 154c0 48 20 88.167 60 120.5s96 52.833 168 61.5v10c-56.667 12 -100 34.167 -130 66.5s-45 68.833 -45 109.5
c0 48.667 22.5 92.334 67.5 131.001s102.5 62 172.5 70c-70.667 18 -125.167 48.167 -163.5 90.5s-57.5 96.833 -57.5 163.5c0 89.333 37.167 162.5 111.5 219.5s176.5 85.5 306.5 85.5c67.333 0 125.333 -6.66699 174 -20c24 67.333 59.833 120.333 107.5 159
s103.167 58 166.5 58c56.667 0 99.834 -14.167 129.501 -42.5s44.5 -62.833 44.5 -103.5c0 -36.667 -11.667 -67 -35 -91s-54.666 -36 -93.999 -36c-35.333 0 -63.5 10.333 -84.5 31s-31.5 46.667 -31.5 78c0 2.66699 0.333008 7 1 13s1 10.333 1 13
c-46 -4.66699 -83 -42.667 -111 -114c106.667 -53.333 160 -137.333 160 -252zM493.997 -219.002c98.667 0 171.667 11.5 219 34.5s71 54.5 71 94.5c0 56 -53.667 84 -161 84h-246c-54.667 0 -96 -9.16699 -124 -27.5s-42 -42.5 -42 -72.5c0 -75.333 94.333 -113 283 -113z
M509.997 466.998c44.667 0 77.333 16.332 98 48.999s31 83.334 31 152.001c0 134.667 -46.333 202 -139 202c-45.333 0 -78.5 -16.333 -99.5 -49s-31.5 -83.667 -31.5 -153c0 -134 47 -201 141 -201z" />
    <glyph glyph-name="h" unicode="h" horiz-adv-x="1275" 
d="M45 0l0.000976562 170h139v1069h-139v174h440v-670c80 157.333 190 236 330 236c99.333 0 173 -30.167 221 -90.5s72 -142.833 72 -247.5v-471h137v-170h-547v170h109v430c0 68 -14.333 116.333 -43 145c-25.333 22 -57.333 33 -96 33
c-48.667 0 -91.334 -22.167 -128.001 -66.5s-55 -99.833 -55 -166.5v-375h107v-170h-547z" />
    <glyph glyph-name="i" unicode="i" horiz-adv-x="706" 
d="M354 1100c-55.333 0 -99.5 15.667 -132.5 47s-49.5 72.333 -49.5 123s16.833 93 50.5 127s77.5 51 131.5 51c54.667 0 99.167 -16.333 133.5 -49s51.5 -73.667 51.5 -123c0 -50.667 -17.333 -92.667 -52 -126s-79 -50 -133 -50zM63 0v170h156v618h-156v170h455v-788h156
v-170h-611z" />
    <glyph glyph-name="j" unicode="j" horiz-adv-x="702" 
d="M381 1100c-54 0 -97.833 15.833 -131.5 47.5s-50.5 72.5 -50.5 122.5c0 50.667 16.833 93 50.5 127s77.5 51 131.5 51c54.667 0 99 -16.167 133 -48.5s51 -73.5 51 -123.5c0 -50.667 -17.167 -92.667 -51.5 -126s-78.5 -50 -132.5 -50zM150 -356
c-90.667 0 -161.503 16.1689 -212.503 48.502s-76.5 74.833 -76.5 127.5c0 39.333 13.333 73 40 101s62.334 42 107.001 42c48.667 0 86.834 -13.5 114.501 -40.5s41.5 -59.167 41.5 -96.5c0 -24 -4.66699 -45.333 -14 -64c10.667 -2.66699 21.334 -4 32.001 -4
c21.333 1.33301 37.333 10.666 48 27.999s16 46.333 16 87v915h-170v170h471v-882c0 -140.667 -34.333 -247.834 -103 -321.501s-166.667 -110.5 -294 -110.5z" />
    <glyph glyph-name="k" unicode="k" horiz-adv-x="1220" 
d="M1012 788l-213 -192l315 -426h103v-170h-527v168h107l-189 268l-123 -110v-158h103v-168h-543v170h139v1069h-139v174h440v-919l322 297h-152v167h500v-170h-143z" />
    <glyph glyph-name="l" unicode="l" horiz-adv-x="694" 
d="M41 0v170h156v1069h-156v174h457v-1243h155v-170h-612z" />
    <glyph glyph-name="m" unicode="m" horiz-adv-x="1873" 
d="M1090 725c76.667 169.333 187.002 254 331.002 254c96.667 0 168 -30.167 214 -90.5s69 -142.833 69 -247.5v-471h139v-170h-540v170h102v430c0 70 -14.333 119.333 -43 148c-20 20 -48.667 30 -86 30c-44.667 0 -84.834 -22.333 -120.501 -67s-53.5 -100 -53.5 -166
v-375h98v-170h-500v170h103v430c0 68.667 -15 118 -45 148c-18 20 -46 30 -84 30c-44.667 0 -84.834 -22.333 -120.501 -67s-53.5 -100 -53.5 -166v-375h98v-170h-539v170h142v618h-142v170h422v-251c76 181.333 188.667 272 338 272c80 0 142.667 -22 188 -66
s73 -106.667 83 -188z" />
    <glyph glyph-name="n" unicode="n" horiz-adv-x="1290" 
d="M59 0l-0.000976562 170h142v618h-142v170h422v-251c76 181.333 192 272 348 272c99.333 0 173 -30.167 221 -90.5s72 -142.833 72 -247.5v-471h138v-170h-547v170h108v430c0 68 -14.333 116.333 -43 145c-25.333 22 -56.666 33 -93.999 33
c-49.333 0 -92.333 -22.167 -129 -66.5s-55 -99.833 -55 -166.5v-375h106v-170h-547z" />
    <glyph glyph-name="o" unicode="o" 
d="M575 -20c-153.333 0 -277.999 45.5 -373.999 136.5s-144 210.5 -144 358.5c0 146.667 49.5 267.667 148.5 363s223.167 143 372.5 143c152 0 276 -45.833 372 -137.5s144 -211.167 144 -358.5s-49.333 -268.333 -148 -363s-222.334 -142 -371.001 -142zM582.001 119
c65.333 0 112.333 28.167 141 84.5s43 148.833 43 277.5c0 127.333 -16 219.333 -48 276s-81.667 85 -149 85c-64.667 0 -111.5 -28.333 -140.5 -85s-43.5 -149.334 -43.5 -278.001c0 -127.333 16.167 -219.166 48.5 -275.499s81.833 -84.5 148.5 -84.5z" />
    <glyph glyph-name="p" unicode="p" horiz-adv-x="1214" 
d="M666 166c110 0 165 108.667 165 326c0 199.333 -56.333 299 -169 299c-58.667 0 -106.167 -30.5 -142.5 -91.5s-54.5 -136.5 -54.5 -226.5c0 -90.667 17 -164.5 51 -221.5s84 -85.5 150 -85.5zM43 -330l0.000976562 169.999h139v948h-139v170h422v-225
c62 165.333 168.333 248 319 248c93.333 0 173.333 -33.333 240 -100c87.333 -87.333 131 -215.666 131 -384.999c0 -168 -45 -297 -135 -387c-72.667 -72.667 -155.334 -109 -248.001 -109c-68 0 -126.667 14.5 -176 43.5s-87 67.833 -113 116.5v-320h176v-170h-616z" />
    <glyph glyph-name="q" unicode="q" horiz-adv-x="1175" 
d="M559 805c-117.333 0 -176 -107.333 -176 -322c0 -102.667 14.667 -179.167 44 -229.5s74.666 -75.5 135.999 -75.5c56.667 0 102.667 30 138 90s53 134.667 53 224c0 92 -17.167 167.167 -51.5 225.5s-82.166 87.5 -143.499 87.5zM735 190
c-30 -60 -69.666 -106.667 -118.999 -140s-105 -50 -167 -50c-104.667 0 -191 34 -259 102c-86 86 -129 213 -129 381c0 80.667 12.5 155 37.5 223s59.167 124 102.5 168c71.333 71.333 160.666 107 267.999 107c132 0 235.667 -71 311 -213l97 203h157v-1131h140v-170h-617
v170h178v350z" />
    <glyph glyph-name="r" unicode="r" horiz-adv-x="980" 
d="M59 0l-0.000976562 170.001h142v618h-142v170h422v-245c28 87.333 68 153.5 120 198.5s111.667 67.5 179 67.5c58 0 105 -18.333 141 -55s54 -81 54 -133c0 -50.667 -15.5 -92.834 -46.5 -126.501s-68.833 -50.5 -113.5 -50.5c-46.667 0 -85 13 -115 39
s-45 61.667 -45 107c0 1.33301 0.333008 3.83301 1 7.5s1 6.5 1 8.5c-29.333 -2 -58.666 -19 -87.999 -51s-52.333 -76.333 -69 -133v-422h178v-170h-619z" />
    <glyph glyph-name="s" unicode="s" horiz-adv-x="989" 
d="M72 -18l0.000976562 351.996h157c43.333 -66 92.833 -118.667 148.5 -158s112.167 -59 169.5 -59c42 0 73.333 8.66699 94 26s31 41.333 31 72c0 36.667 -16.5 65 -49.5 85s-97.833 42.333 -194.5 67c-60 15.333 -110.333 31.5 -151 48.5s-75.834 37.5 -105.501 61.5
s-51.334 51.833 -65.001 83.5s-20.5 68.834 -20.5 111.501c0 86.667 32 159.834 96 219.501s148 89.5 252 89.5c118 0 209.667 -39.667 275 -119l32 115h160v-328h-158c-38.667 60 -81.667 107.5 -129 142.5s-95.666 52.5 -144.999 52.5c-39.333 0 -69.333 -8.33301 -90 -25
s-31 -39 -31 -67c0 -34 16.167 -60.5 48.5 -79.5s95.5 -40.5 189.5 -64.5c57.333 -15.333 105.333 -30.666 144 -45.999s74.667 -35 108 -59s58 -53.167 74 -87.5s24 -74.5 24 -120.5c0 -87.333 -32.5 -161.666 -97.5 -222.999s-153.5 -92 -265.5 -92
c-131.333 0 -235 43.667 -311 131l-33 -129h-157z" />
    <glyph glyph-name="t" unicode="t" horiz-adv-x="847" 
d="M184 1174l293 34.001v-260h307v-160h-307v-483c0 -91.333 33.667 -137 101 -137c30 0 54 13 72 39s36.333 73 55 141l122 -35c-22.667 -116.667 -60.667 -201.334 -114 -254.001s-128 -79 -224 -79c-207.333 0 -311 109 -311 327v481h-170v160h176v226z" />
    <glyph glyph-name="u" unicode="u" horiz-adv-x="1267" 
d="M459 -18c-97.333 0 -169.499 30 -216.499 90s-70.5 141.667 -70.5 245v471h-139v170h438v-600c0 -66 14.333 -114.333 43 -145c22 -22 52.667 -33 92 -33c47.333 0 89.166 22.5 125.499 67.5s54.5 101.167 54.5 168.5v372h-141v170h440v-788h140v-170h-420v252
c-76.667 -180 -192 -270 -346 -270z" />
    <glyph glyph-name="v" unicode="v" horiz-adv-x="1169" 
d="M440 -8l-311 796h-125v170h600v-170h-147l198 -577h11l211 577h-123v170h422v-170h-119l-322 -796h-295z" />
    <glyph glyph-name="w" unicode="w" horiz-adv-x="1728" 
d="M1208 791h-125l170 -568h9l155 568h-110v167h415v-170h-125l-245 -796h-310l-161 491l-176 -491h-314l-248 796h-125v170h555v-167h-118l161 -568h9l176 492l-25 76h-108v167h540v-167z" />
    <glyph glyph-name="x" unicode="x" horiz-adv-x="1124" 
d="M584 793h-117l147 -197l174 197h-102v165h404v-170h-101l-274 -280l274 -338h115v-170h-563v166h118l-149 205l-180 -205h106v-166h-405v170h100l279 289l-275 329h-112v170h561v-165z" />
    <glyph glyph-name="y" unicode="y" 
d="M182 29c48.667 0 86.501 -15.999 113.501 -47.999s40.5 -70 40.5 -114c0 -28 -5.66699 -53.333 -17 -76c44 5.33301 80.333 21.5 109 48.5s57.334 75.167 86.001 144.5l-385 804h-127v170h600v-170h-145l215 -501l192 501h-121v170h420v-170h-116l-328 -761
c-26.667 -62 -52.834 -114.833 -78.501 -158.5s-55.5 -83.167 -89.5 -118.5s-72.667 -61.833 -116 -79.5s-92 -26.5 -146 -26.5c-84.667 0 -149.834 19.667 -195.501 59s-68.5 90.666 -68.5 153.999c0 48.667 14.667 89.5 44 122.5s67 49.5 113 49.5z" />
    <glyph glyph-name="z" unicode="z" horiz-adv-x="1017" 
d="M59 0v141l562 678h-179c-28 0 -50.333 -1.5 -67 -4.5s-33 -8.66699 -49 -17s-29.5 -21.833 -40.5 -40.5s-22 -42.167 -33 -70.5s-22.833 -65.5 -35.5 -111.5h-137v383h874v-141l-563 -676h211c34 0 60.333 2.16699 79 6.5s37.167 15.5 55.5 33.5s34 44 47 78
s26.833 81.333 41.5 142h138v-401h-904z" />
    <glyph glyph-name="braceleft" unicode="{" horiz-adv-x="813" 
d="M37 668l55 -0.00292969c89.333 0 153.333 14.333 192 43s58 71.667 58 129c0 28 -5.16699 76 -15.5 144s-15.5 118.333 -15.5 151c0 228 172.667 344 518 348v-156c-64.667 -6 -113.667 -17 -147 -33s-55.666 -37.5 -66.999 -64.5s-17 -65.5 -17 -115.5
c0 -19.333 2 -57.166 6 -113.499s6 -97.5 6 -123.5c0 -97.333 -23.667 -166.166 -71 -206.499s-134 -68.5 -260 -84.5v-15c126 -16 212.667 -44 260 -84s71 -108.667 71 -206c0 -26 -2 -67.333 -6 -124s-6 -94.667 -6 -114c0 -50 5.66699 -88.5 17 -115.5
s33.666 -48.5 66.999 -64.5s82.333 -27 147 -33v-156c-345.333 4 -518 120.333 -518 349c0 32.667 5.16699 82.834 15.5 150.501s15.5 115.5 15.5 143.5c0 57.333 -19.333 100.333 -58 129s-102.667 43 -192 43h-55v179z" />
    <glyph glyph-name="bar" unicode="|" horiz-adv-x="593" 
d="M205 -416v1872h184v-1872h-184z" />
    <glyph glyph-name="braceright" unicode="}" horiz-adv-x="813" 
d="M776 489l-55 0.00195312c-89.333 0 -153.333 -14.333 -192 -43s-58 -71.667 -58 -129c0 -28 5.16699 -75.833 15.5 -143.5s15.5 -117.834 15.5 -150.501c0 -228.667 -172.667 -345 -518 -349v156c64.667 6 113.667 17 147 33s55.666 37.5 66.999 64.5s17 65.5 17 115.5
c0 19.333 -2 57.333 -6 114s-6 98 -6 124c0 50 5.5 91.333 16.5 124s30 60.334 57 83.001s60.833 40.167 101.5 52.5s93 22.5 157 30.5v15c-126 16 -212.833 44.167 -260.5 84.5s-71.5 109.166 -71.5 206.499c0 26 2 67.167 6 123.5s6 94.166 6 113.499
c0 50 -5.66699 88.5 -17 115.5s-33.666 48.5 -66.999 64.5s-82.333 27 -147 33v156c345.333 -4 518 -120 518 -348c0 -32.667 -5.16699 -83 -15.5 -151s-15.5 -116 -15.5 -144c0 -57.333 19.333 -100.333 58 -129s102.667 -43 192 -43h55v-179z" />
    <glyph glyph-name="asciitilde" unicode="~" horiz-adv-x="845" 
d="M66 489c9.33301 114.667 30.833 198.334 64.5 251.001s88.5 79 164.5 79c34.667 0 70.167 -8.16699 106.5 -24.5s69.833 -32.666 100.5 -48.999s56 -24.5 76 -24.5c18.667 0 33 8.33301 43 25s18.667 45 26 85h135c-9.33301 -114.667 -30.833 -198.167 -64.5 -250.5
s-88.5 -78.5 -164.5 -78.5c-34.667 0 -70.167 8.16699 -106.5 24.5s-69.833 32.666 -100.5 48.999s-56 24.5 -76 24.5c-18.667 0 -33 -8.33301 -43 -25s-18.667 -45.334 -26 -86.001h-135z" />
    <glyph glyph-name="uni00A0" unicode="&#xa0;" horiz-adv-x="358" 
 />
    <glyph glyph-name="exclamdown" unicode="&#xa1;" horiz-adv-x="616" 
d="M307 -35c-58.667 0 -103.667 16.501 -135 49.501s-47 78.167 -47 135.5c0 46 11.667 140.667 35 284c30.667 174 56.667 342.667 78 506h137c21.333 -163.333 47.333 -332 78 -506c24 -128.667 36 -223.334 36 -284.001c0 -57.333 -15.833 -102.5 -47.5 -135.5
s-76.5 -49.5 -134.5 -49.5zM307 1401c50.667 0 93.667 -17 129 -51s53 -75.667 53 -125s-17.667 -91.333 -53 -126s-79 -52 -131 -52c-50.667 0 -93.667 17 -129 51s-53 75.667 -53 125s17.667 91.333 53 126s79 52 131 52z" />
    <glyph glyph-name="cent" unicode="&#xa2;" horiz-adv-x="1130" 
d="M647 -209l-160 8.00098l11 189c-136.667 17.333 -242.167 68.166 -316.5 152.499s-111.5 191.833 -111.5 322.5c0 142 46 260.333 138 355s214.333 147.667 367 159l15 172l160 -8l-15 -168c105.333 -16 190.833 -52.833 256.5 -110.5s98.5 -122.5 98.5 -194.5
c0 -51.333 -14.167 -92.166 -42.5 -122.499s-66.833 -45.5 -115.5 -45.5c-46.667 0 -84 13.167 -112 39.5s-42 58.833 -42 97.5c0 61.333 26.667 107.666 80 138.999c-33.333 38.667 -81.666 61.334 -144.999 68.001l-51 -703h4c117.333 0 198.333 63 243 189h160
c-21.333 -102 -65.833 -183.333 -133.5 -244s-159.834 -95.334 -276.501 -104.001zM377 485.001c0 -178.667 47.667 -287.667 143 -327l51 684c-129.333 -26 -194 -145 -194 -357z" />
    <glyph glyph-name="sterling" unicode="&#xa3;" horiz-adv-x="1292" 
d="M1012 551l-299.001 0.00195312v-4c0 -68.667 -26.667 -140.334 -80 -215.001c41.333 -12 85.666 -27 132.999 -45s86.166 -31.5 116.499 -40.5s60.5 -13.5 90.5 -13.5c40.667 0 71.834 14 93.501 42s40.834 79 57.501 153l121 -10c-2 -156.667 -24.667 -271 -68 -343
s-116.333 -108 -219 -108c-24.667 0 -50 3 -76 9s-48.333 12.167 -67 18.5s-43 17.833 -73 34.5s-51.667 29 -65 37s-38 23.833 -74 47.5l-71 46.5c-64 -128.667 -155.333 -193 -274 -193c-64 0 -115.167 16.667 -153.5 50s-57.5 76.666 -57.5 129.999
c0 67.333 28 122.833 84 166.5s135.333 65.5 238 65.5c32.667 0 65.334 -2.66699 98.001 -8c-2 58.667 -19 118.667 -51 180h-305v164h215c-30 58.667 -45 118 -45 178c0 128 49 233 147 315s221.667 123 371 123c113.333 0 207.833 -26.5 283.5 -79.5
s113.5 -117.833 113.5 -194.5c0 -54.667 -17 -100.167 -51 -136.5s-75.667 -54.5 -125 -54.5c-48.667 0 -87.5 15.167 -116.5 45.5s-43.5 66.5 -43.5 108.5c0 28.667 6.66699 55.167 20 79.5s30.666 43.5 51.999 57.5c-30 30 -79.333 45 -148 45
c-65.333 0 -115 -16.5 -149 -49.5s-51 -78.5 -51 -136.5c0 -24 3.33301 -50.167 10 -78.5s13.834 -52.333 21.501 -72l31.5 -77.5c13.333 -32 23 -56.333 29 -73h336v-164zM271.999 92.002c66 0 118 41 156 123c-43.333 18 -83 27 -119 27c-33.333 0 -60 -7.83301 -80 -23.5
s-30 -35.834 -30 -60.501c0 -19.333 6.33301 -35.166 19 -47.499s30.667 -18.5 54 -18.5z" />
    <glyph glyph-name="yen" unicode="&#xa5;" horiz-adv-x="1320" 
d="M166 700h268l-272 422h-135v176h637v-172h-150l236 -401l227 401h-146v172h484v-176h-148l-266 -422h273v-149h-355v-113h355v-149h-355v-119h193v-170h-684v170h194v119h-356v149h356v113h-356v149z" />
    <glyph glyph-name="section" unicode="&#xa7;" horiz-adv-x="1103" 
d="M535 -256c-128.667 0 -234 24.3359 -316 73.0029s-123 109 -123 181c0 42.667 14.333 79 43 109s65.667 45 111 45s82.166 -12.833 110.499 -38.5s42.5 -58.167 42.5 -97.5c0 -42 -15 -76 -45 -102c40 -28.667 101.667 -43 185 -43c64.667 0 112.834 11.333 144.501 34
s47.5 52.334 47.5 89.001c0 44.667 -21 81.167 -63 109.5s-118 60.166 -228 95.499c-47.333 15.333 -86.833 29 -118.5 41s-64.5 27.167 -98.5 45.5s-60.833 37.333 -80.5 57s-36 43.667 -49 72s-19.5 59.5 -19.5 93.5c0 61.333 21.833 115 65.5 161s104.5 80.333 182.5 103
v14c-58 23.333 -103.667 54.666 -137 93.999s-50 85.333 -50 138c0 99.333 44 179.166 132 239.499s195.667 90.5 323 90.5c118.667 0 213.5 -22.833 284.5 -68.5s106.5 -100.834 106.5 -165.501c0 -42 -13.333 -77 -40 -105s-62.334 -42 -107.001 -42
c-46 0 -83.167 12.333 -111.5 37s-42.5 56.667 -42.5 96c0 33.333 12.333 63.333 37 90c-40 20.667 -85.667 31 -137 31c-64 0 -112.5 -11.333 -145.5 -34s-49.5 -53 -49.5 -91c0 -37.333 20.5 -68.166 61.5 -92.499s118.167 -55.833 231.5 -94.5
c44 -14 80.667 -26.833 110 -38.5s60.833 -26.667 94.5 -45s60.334 -37.333 80.001 -57s36.167 -44 49.5 -73s20 -60.833 20 -95.5c0 -58.667 -20.5 -111.334 -61.5 -158.001s-99.5 -82 -175.5 -106v-14c57.333 -23.333 103 -54.833 137 -94.5s51 -87.5 51 -143.5
c0 -100.667 -41.833 -182.5 -125.5 -245.5s-192.5 -94.5 -326.5 -94.5zM678 383.003c72 28 108 71.666 108 130.999c0 40.667 -21.833 75.334 -65.5 104.001s-110.5 56.667 -200.5 84l-78 25c-76 -29.333 -114 -74.333 -114 -135c0 -41.333 22 -75 66 -101
s114 -53.667 210 -83l34 -11c18.667 -6 32 -10.667 40 -14z" />
    <glyph glyph-name="dieresis" unicode="&#xa8;" horiz-adv-x="788" 
d="M600 1102c-46.667 0 -85 14.5 -115 43.5s-45 66.167 -45 111.5c0 44.667 15.333 82.5 46 113.5s68.667 46.5 114 46.5c46.667 0 84.667 -14.667 114 -44s44 -66.333 44 -111s-15 -82.5 -45 -113.5s-67.667 -46.5 -113 -46.5zM188 1102
c-46.667 0 -84.832 14.5 -114.499 43.5s-44.5 66.167 -44.5 111.5c0 44.667 15.167 82.5 45.5 113.5s68.166 46.5 113.499 46.5c46.667 0 85 -14.667 115 -44s45 -66.333 45 -111s-15.167 -82.5 -45.5 -113.5s-68.5 -46.5 -114.5 -46.5z" />
    <glyph glyph-name="copyright" unicode="&#xa9;" horiz-adv-x="1611" 
d="M805 -70c-105.333 0 -204.501 18.6709 -297.501 56.0039s-172.833 88.666 -239.5 153.999s-119.167 144.166 -157.5 236.499s-57.5 191.5 -57.5 297.5c0 105.333 19.167 204 57.5 296s90.833 170.5 157.5 235.5s146.5 116.167 239.5 153.5s192.167 56 297.5 56
c141.333 0 269.333 -31.833 384 -95.5s204.5 -152 269.5 -265s97.5 -239.833 97.5 -380.5c0 -84.667 -12.167 -165.334 -36.5 -242.001s-59.166 -145.334 -104.499 -206.001s-98.5 -113.167 -159.5 -157.5s-130.167 -78.5 -207.5 -102.5s-158.333 -36 -243 -36z
M804.999 31.0039c122.667 0 232 27.5 328 82.5s170.5 131.333 223.5 229s79.5 208.167 79.5 331.5c0 122.667 -26.5 232.667 -79.5 330s-127.5 173.5 -223.5 228.5s-205.333 82.5 -328 82.5c-184.667 0 -336 -60.333 -454 -181s-177 -274 -177 -460
c0 -123.333 26.667 -233.833 80 -331.5s128 -174 224 -229s205 -82.5 327 -82.5zM820.999 287.004c-115.333 0 -208.333 35.832 -279 107.499s-106 164.834 -106 279.501c0 114 35.833 208 107.5 282s157.5 111 257.5 111c93.333 0 163 -29.333 209 -88l24 86h105v-293h-115
c-24 68.667 -51.833 119 -83.5 151s-70.834 48 -117.501 48c-120 0 -180 -95 -180 -285c0 -192.667 68.333 -289 205 -289c106.667 0 170 69 190 207h113c-9.33301 -98.667 -42.166 -176.167 -98.499 -232.5s-133.5 -84.5 -231.5 -84.5z" />
    <glyph glyph-name="ordfeminine" unicode="&#xaa;" horiz-adv-x="886" 
d="M274 645c-62 0 -112.668 16.4971 -152.001 49.4971s-59 76.5 -59 130.5c0 50 18.667 91.667 56 125c25.333 22.667 59 41.334 101 56.001s101.667 26.667 179 36c46.667 7.33301 73.334 15 80.001 23v61c0 42.667 -9.83301 73.167 -29.5 91.5s-50.167 27.5 -91.5 27.5
c-29.333 0 -57.333 -6 -84 -18c23.333 -14 35 -38.667 35 -74c0 -25.333 -10 -46.666 -30 -63.999s-45.333 -26 -76 -26c-35.333 0 -63 9.83301 -83 29.5s-30 43.834 -30 72.501c0 39.333 15.5 73.333 46.5 102s70.5 49.667 118.5 63s101 20 159 20
c189.333 0 284 -78.667 284 -236v-293c0 -16 2.83301 -27.167 8.5 -33.5s14.5 -9.5 26.5 -9.5c18.667 0 33.667 22.667 45 68l78 -25c-14 -61.333 -36.167 -105.666 -66.5 -132.999s-70.833 -41 -121.5 -41c-44 0 -80.167 11.167 -108.5 33.5s-45.5 56.166 -51.5 101.499h-8
c-42.667 -91.333 -118 -137 -226 -137zM372.999 769.997c30.667 0 56.001 14 76.001 42s30 63.333 30 106v63c-4 -1.33301 -24.333 -5.33301 -61 -12c-50.667 -8.66699 -84.834 -21 -102.501 -37s-26.5 -41.333 -26.5 -76c0 -57.333 28 -86 84 -86z" />
    <glyph glyph-name="guillemotleft" unicode="&#xab;" horiz-adv-x="1067" 
d="M328 469l219 -342l-82 -64l-367 322c-32.667 30.667 -49 57.334 -49 80.001c0 25.333 16.333 52.666 49 81.999l367 319l82 -63zM768 469l221 -341.999l-84 -64l-364 322c-34.667 31.333 -52 58 -52 80c0 25.333 17.333 52.666 52 81.999l364 319l84 -63z" />
    <glyph glyph-name="registered" unicode="&#xae;" horiz-adv-x="1034" 
d="M516 506c-131.333 0 -240.333 43 -327 129s-130 194.667 -130 326c0 130.667 43.333 238.667 130 324s195.667 128 327 128c132.667 0 242.667 -42.667 330 -128s131 -193.333 131 -324c0 -131.333 -43.667 -240 -131 -326s-197.333 -129 -330 -129zM516 582
c112 0 202.167 35 270.5 105s102.5 161.333 102.5 274c0 112 -34.167 203 -102.5 273s-158.5 105 -270.5 105c-111.333 0 -201 -35 -269 -105s-102 -161 -102 -273c0 -112.667 34 -204 102 -274s157.667 -105 269 -105zM473 932l0.00195312 -133h64v-62h-242v62h61v331h-61
v62h254c63.333 0 109.833 -11.5 139.5 -34.5s44.5 -51.167 44.5 -84.5c0 -64 -47.667 -101.333 -143 -112v-5c41.333 -4 70.666 -13.833 87.999 -29.5s27.666 -38.5 30.999 -68.5l4 -24c0.666992 -15.333 2.33398 -25.333 5.00098 -30s7.66699 -7 15 -7
c10.667 0 19.667 13.667 27 41l43 -13c-16.667 -65.333 -52.334 -98 -107.001 -98c-70.667 0 -106 38.333 -106 115v22c0 24.667 -4.33301 42.167 -13 52.5s-25 15.5 -49 15.5h-55zM473.002 989l57 0.000976562c26.667 0 46 5.5 58 16.5s18 29.5 18 55.5
c0 25.333 -5.16699 43.666 -15.5 54.999s-29.833 17 -58.5 17h-59v-144z" />
    <glyph glyph-name="macron" unicode="&#xaf;" horiz-adv-x="743" 
d="M66 1106v201h612v-201h-612z" />
    <glyph glyph-name="degree" unicode="&#xb0;" horiz-adv-x="829" 
d="M416 709c-110 0 -197.333 31.168 -262 93.501s-97 142.166 -97 239.499c0 96 33.333 176.333 100 241s153 97 259 97c109.333 0 196 -31 260 -93s96 -141.333 96 -238s-33 -177.5 -99 -242.5s-151.667 -97.5 -257 -97.5zM420 846.001c48.667 0 87.5 17.001 116.5 51.001
s43.5 83 43.5 147c0 63.333 -15.667 112.333 -47 147s-72.333 52 -123 52c-48 0 -86.333 -16.833 -115 -50.5s-43 -82.167 -43 -145.5c0 -64.667 15.5 -114.334 46.5 -149.001s71.5 -52 121.5 -52z" />
    <glyph glyph-name="plusminus" unicode="&#xb1;" horiz-adv-x="1103" 
d="M471 334v321h-315v148h315v315h164v-315h313v-148h-313v-321h-164zM946 68h-790v149h790v-149z" />
    <glyph glyph-name="acute" unicode="&#xb4;" horiz-adv-x="548" 
d="M78 1096l90.001 237c27.333 70.667 54 122.5 80 155.5s61.333 49.5 106 49.5c35.333 0 65.666 -12.5 90.999 -37.5s38 -53.5 38 -85.5c0 -32.667 -9 -62 -27 -88s-48.333 -58 -91 -96l-154 -135h-133z" />
    <glyph glyph-name="paragraph" unicode="&#xb6;" horiz-adv-x="1335" 
d="M645 -227v559c-170 1.33301 -308 43 -414 125s-159 196.667 -159 344c0 145.333 53.333 259.833 160 343.5s258.667 125.5 456 125.5h596v-170h-154v-1327h-174v1329h-135v-1329h-176z" />
    <glyph glyph-name="periodcentered" unicode="&#xb7;" horiz-adv-x="538" 
d="M268 475c-50.667 0 -93.668 17.501 -129.001 52.501s-53 77.5 -53 127.5c0 51.333 17.667 94.666 53 129.999s79 53 131 53c50.667 0 93.834 -17.667 129.501 -53s53.5 -78 53.5 -128s-17.833 -92.833 -53.5 -128.5s-79.5 -53.5 -131.5 -53.5z" />
    <glyph glyph-name="cedilla" unicode="&#xb8;" horiz-adv-x="690" 
d="M281 -510c-104 0 -195.001 22 -273.001 66l60 100c56 -27.333 114.667 -41 176 -41c65.333 0 98 19 98 57c0 22 -13.667 39.833 -41 53.5s-66.333 20.5 -117 20.5c-13.333 0 -31.666 -2 -54.999 -6l-47 86l223 188h148l-134 -135l3 -8
c77.333 -8.66699 135.5 -29.167 174.5 -61.5s58.5 -71.833 58.5 -118.5c0 -62 -24.167 -111 -72.5 -147s-115.5 -54 -201.5 -54z" />
    <glyph glyph-name="ordmasculine" unicode="&#xba;" horiz-adv-x="845" 
d="M424 643c-110.667 0 -200.499 32.334 -269.499 97.001s-103.5 149 -103.5 253s35.333 189.5 106 256.5s159.667 100.5 267 100.5c109.333 0 198.166 -32.333 266.499 -97s102.5 -149.334 102.5 -254.001c0 -104 -35 -189.333 -105 -256s-158 -100 -264 -100z
M428.001 750.001c44 0 75.833 19 95.5 57s29.5 101.333 29.5 190c0 88 -11 151 -33 189s-56 57 -102 57c-44.667 0 -76.667 -19 -96 -57s-29 -101.667 -29 -191c0 -87.333 11 -150 33 -188s56 -57 102 -57z" />
    <glyph glyph-name="guillemotright" unicode="&#xbb;" horiz-adv-x="1067" 
d="M739 461l-219 342l82 63l367 -321c32.667 -30.667 49 -57.334 49 -80.001c0 -25.333 -16.333 -52.666 -49 -81.999l-367 -320l-82 64zM299 461l-221 341.999l84 63l364 -321c34.667 -31.333 52 -58 52 -80c0 -25.333 -17.333 -52.666 -52 -81.999l-364 -320l-84 64z" />
    <glyph glyph-name="questiondown" unicode="&#xbf;" horiz-adv-x="1005" 
d="M637 918c-2 -120 -40.998 -232.665 -116.998 -337.998l-31 -42.5c-16 -21.667 -26.5 -36.167 -31.5 -43.5s-13 -20.333 -24 -39s-18.333 -33.834 -22 -45.501s-7.33398 -26.667 -11.001 -45s-5.5 -36.833 -5.5 -55.5c0 -62.667 15.833 -111 47.5 -145
s78.167 -51 139.5 -51c39.333 0 74.666 7 105.999 21s53.333 32.667 66 56c-34.667 12 -62.5 31.5 -83.5 58.5s-31.5 58.167 -31.5 93.5c0 45.333 14.667 83.333 44 114s69.333 46 120 46c52 0 94.667 -17.333 128 -52s50 -80.334 50 -137.001
c0 -95.333 -42 -177.166 -126 -245.499s-195 -102.5 -333 -102.5c-144 0 -258.167 35.167 -342.5 105.5s-126.5 156.833 -126.5 259.5c0 39.333 4.83301 74.833 14.5 106.5s24.834 60.667 45.501 87s42.167 49.166 64.5 68.499s50.5 41 84.5 65
c58.667 39.333 105.167 78.333 139.5 117s60.166 86.667 77.499 144h158zM555.002 1401c52 0 95.333 -17 130 -51s52 -75.667 52 -125s-17.5 -91.333 -52.5 -126s-78.833 -52 -131.5 -52c-50.667 0 -93.667 17 -129 51s-53 75.667 -53 125s17.667 91.333 53 126
s79 52 131 52z" />
    <glyph glyph-name="Agrave" unicode="&#xc0;" horiz-adv-x="1503" 
d="M975 178l-86 252h-461l-86 -252h170v-178h-518v178h147l434 1178h336l428 -1178h160v-178h-706v178h182zM840 1493l-132.998 0.000976562l-152 135c-43.333 38 -74.333 70 -93 96s-28 55.333 -28 88c0 32 12.667 60.5 38 85.5s55.666 37.5 90.999 37.5
c44.667 0 80.167 -16.333 106.5 -49s53.166 -84.334 80.499 -155.001zM657.002 1096l-174 -504h353l-170 504h-9z" />
    <glyph glyph-name="Aacute" unicode="&#xc1;" horiz-adv-x="1503" 
d="M975 178l-86 252h-461l-86 -252h170v-178h-518v178h147l434 1178h336l428 -1178h160v-178h-706v178h182zM659 1493l91.001 237.999c27.333 70.667 54 122.334 80 155.001s61.333 49 106 49c35.333 0 65.666 -12.5 90.999 -37.5s38 -53.5 38 -85.5
c0 -32.667 -9.16699 -62 -27.5 -88s-48.833 -58 -91.5 -96l-153 -135h-134zM657.001 1096l-174 -504h353l-170 504h-9z" />
    <glyph glyph-name="Acircumflex" unicode="&#xc2;" horiz-adv-x="1503" 
d="M975 178l-86 252h-461l-86 -252h170v-178h-518v178h147l434 1178h336l428 -1178h160v-178h-706v178h182zM412 1493l254 403h165l250 -403h-174l-164 176l-157 -176h-174zM657 1096l-174 -504h353l-170 504h-9z" />
    <glyph glyph-name="Atilde" unicode="&#xc3;" horiz-adv-x="1503" 
d="M975 178l-86 252h-461l-86 -252h170v-178h-518v178h147l434 1178h336l428 -1178h160v-178h-706v178h182zM373 1487c9.33301 114.667 30.832 198.331 64.499 250.998s88.5 79 164.5 79c27.333 0 57 -5.16699 89 -15.5s59.833 -21.666 83.5 -33.999
s48.5 -23.666 74.5 -33.999s47.333 -15.5 64 -15.5c19.333 0 34 8.33301 44 25s18.667 45.334 26 86.001h135c-8.66699 -114 -30 -197.5 -64 -250.5s-89 -79.5 -165 -79.5c-34.667 0 -72.5 8.16699 -113.5 24.5s-79.167 32.666 -114.5 48.999s-63 24.5 -83 24.5
c-18.667 0 -33.167 -8.33301 -43.5 -25s-19.166 -45 -26.499 -85h-135zM656.999 1096l-174 -504h353l-170 504h-9z" />
    <glyph glyph-name="Adieresis" unicode="&#xc4;" horiz-adv-x="1503" 
d="M975 178l-86 252h-461l-86 -252h170v-178h-518v178h147l434 1178h336l428 -1178h160v-178h-706v178h182zM657 1096l-174 -504h353l-170 504h-9zM541 1499c-46.667 0 -85.001 14.6689 -115.001 44.002s-45 66.666 -45 111.999c0 44.667 15.333 82.5 46 113.5
s68.667 46.5 114 46.5c46.667 0 84.834 -14.833 114.501 -44.5s44.5 -66.834 44.5 -111.501s-15 -82.5 -45 -113.5s-68 -46.5 -114 -46.5zM951.999 1499c-46.667 0 -84.832 14.6689 -114.499 44.002s-44.5 66.666 -44.5 111.999c0 44.667 15.167 82.5 45.5 113.5
s68.166 46.5 113.499 46.5c46.667 0 84.667 -14.833 114 -44.5s44 -66.834 44 -111.501s-15 -82.5 -45 -113.5s-67.667 -46.5 -113 -46.5z" />
    <glyph glyph-name="Aring" unicode="&#xc5;" horiz-adv-x="1503" 
d="M745 1397c31.333 0 56.668 12.1689 76.001 36.502s29 57.166 29 98.499c0 43.333 -10 76.666 -30 99.999s-46.333 35 -79 35c-30.667 0 -55.667 -11.5 -75 -34.5s-29 -55.833 -29 -98.5c0 -42 10.167 -75.333 30.5 -100s46.166 -37 77.499 -37zM836.002 592.002l-170 504
h-9l-172 -504h351zM430.002 430.002l-88 -251.998h170v-178h-518v178h147l432 1174c-64 39.333 -96 98.666 -96 177.999c0 66 24.333 122.333 73 169s113.667 70 195 70s145.833 -22.667 193.5 -68s71.5 -101 71.5 -167c0 -78.667 -33 -139.334 -99 -182.001
c0 0.666992 35.667 -96.833 107 -292.5l214 -587.5l107 -294h160v-178h-706v178h182l-86 252h-459z" />
    <glyph glyph-name="AE" unicode="&#xc6;" horiz-adv-x="2166" 
d="M956 612v545h-18l-342 -545h360zM496 451l-170.004 -275.001h159v-176h-526v178h145l644 991h-195v179h1501v-480h-176c-9.33301 46.667 -17.666 84.167 -24.999 112.5s-16.166 55 -26.499 80s-20.666 44 -30.999 57s-24 24.167 -41 33.5s-35.5 15.5 -55.5 18.5
s-45 4.5 -75 4.5h-332v-408h111c56 0 91.833 10 107.5 30s30.834 72.667 45.501 158h160v-546h-160c-12.667 84.667 -27.334 137.834 -44.001 159.501s-53 32.5 -109 32.5h-111v-426h324c30 0 56 1.83301 78 5.5s41.667 8.66699 59 15s32.333 16.833 45 31.5
s23.5 29.5 32.5 44.5s17.333 37.167 25 66.5s14.334 57.5 20.001 84.5s12.5 63.833 20.5 110.5h177v-532h-1301v178h184v273h-460z" />
    <glyph glyph-name="Ccedilla" unicode="&#xc7;" horiz-adv-x="1423" 
d="M725 -510c-103.333 0 -193.999 22.001 -271.999 66.001l59 100c56 -27.333 114.667 -41 176 -41c65.333 0 98 19 98 57c0 22 -13.5 39.833 -40.5 53.5s-65.833 20.5 -116.5 20.5c-14 0 -32.667 -2 -56 -6l-47 86l170 145c-190 14.667 -341.167 85 -453.5 211
s-168.5 287.333 -168.5 484c0 102.667 17.5 198.667 52.5 288s82 165 141 227s128.167 110.667 207.5 146s162.666 53 249.999 53c168.667 0 296.334 -53 383.001 -159l43 155h184v-536h-202c-41.333 125.333 -91.833 218.666 -151.5 279.999s-131.5 92 -215.5 92
c-218.667 0 -328 -175.333 -328 -526c0 -179.333 32.333 -311.833 97 -397.5s156.667 -128.5 276 -128.5c98 0 177 33.833 237 101.5s99 160.167 117 277.5h197c-16.667 -162.667 -67.834 -293.667 -153.501 -393s-203.167 -157 -352.5 -173l-92 -94l2 -8
c77.333 -8.66699 135.5 -29.167 174.5 -61.5s58.5 -71.833 58.5 -118.5c0 -62 -24.167 -111 -72.5 -147s-115.5 -54 -201.5 -54z" />
    <glyph glyph-name="Egrave" unicode="&#xc8;" horiz-adv-x="1447" 
d="M55 0l0.000976562 177.995h185v991h-185v179h1282v-480h-178c-14 69.333 -26.333 121.833 -37 157.5s-25.667 65.834 -45 90.501s-41.666 40.5 -66.999 47.5s-60.333 10.5 -105 10.5h-332v-408h111c20.667 0 37.167 0.666992 49.5 2s24 4.83301 35 10.5
s19.333 11.834 25 18.501s11.334 18.334 17.001 35.001s10.334 33.334 14.001 50.001s8.16699 40.667 13.5 72h159v-546h-159c-12.667 84.667 -27.5 137.834 -44.5 159.501s-53.5 32.5 -109.5 32.5h-111v-426h324c35.333 0 65 2 89 6s45.667 12.167 65 24.5
s34.666 25.833 45.999 40.5s22.166 37.5 32.499 68.5s18.666 61.667 24.999 92s14.166 72.5 23.499 126.5h178v-532h-1301zM862.001 1493l-132.999 0.000976562l-151 135c-43.333 38 -74.333 70 -93 96s-28 55.333 -28 88c0 32 12.667 60.5 38 85.5s55.666 37.5 90.999 37.5
c44.667 0 80 -16.333 106 -49s52.667 -84.334 80 -155.001z" />
    <glyph glyph-name="Eacute" unicode="&#xc9;" horiz-adv-x="1447" 
d="M682 1493l90.001 237.999c27.333 70.667 54 122.334 80 155.001s61.333 49 106 49c35.333 0 65.666 -12.5 90.999 -37.5s38 -53.5 38 -85.5c0 -32.667 -9 -62 -27 -88s-48.333 -58 -91 -96l-154 -135h-133zM55.001 -0.000976562l0.000976562 177.995h185v991h-185v179
h1282v-480h-178c-14 69.333 -26.333 121.833 -37 157.5s-25.667 65.834 -45 90.501s-41.666 40.5 -66.999 47.5s-60.333 10.5 -105 10.5h-332v-408h111c20.667 0 37.167 0.666992 49.5 2s24 4.83301 35 10.5s19.333 11.834 25 18.501s11.334 18.334 17.001 35.001
s10.334 33.334 14.001 50.001s8.16699 40.667 13.5 72h159v-546h-159c-12.667 84.667 -27.5 137.834 -44.5 159.501s-53.5 32.5 -109.5 32.5h-111v-426h324c35.333 0 65 2 89 6s45.667 12.167 65 24.5s34.666 25.833 45.999 40.5s22.166 37.5 32.499 68.5
s18.666 61.667 24.999 92s14.166 72.5 23.499 126.5h178v-532h-1301z" />
    <glyph glyph-name="Ecircumflex" unicode="&#xca;" horiz-adv-x="1447" 
d="M434 1493l254 403h166l250 -403h-174l-164 176l-158 -176h-174zM55 0l0.000976562 177.995h185v991h-185v179h1282v-480h-178c-14 69.333 -26.333 121.833 -37 157.5s-25.667 65.834 -45 90.501s-41.666 40.5 -66.999 47.5s-60.333 10.5 -105 10.5h-332v-408h111
c20.667 0 37.167 0.666992 49.5 2s24 4.83301 35 10.5s19.333 11.834 25 18.501s11.334 18.334 17.001 35.001s10.334 33.334 14.001 50.001s8.16699 40.667 13.5 72h159v-546h-159c-12.667 84.667 -27.5 137.834 -44.5 159.501s-53.5 32.5 -109.5 32.5h-111v-426h324
c35.333 0 65 2 89 6s45.667 12.167 65 24.5s34.666 25.833 45.999 40.5s22.166 37.5 32.499 68.5s18.666 61.667 24.999 92s14.166 72.5 23.499 126.5h178v-532h-1301z" />
    <glyph glyph-name="Edieresis" unicode="&#xcb;" horiz-adv-x="1447" 
d="M975 1499c-46.667 0 -85 14.6689 -115 44.002s-45 66.666 -45 111.999c0 44.667 15.333 82.5 46 113.5s68.667 46.5 114 46.5c46.667 0 84.667 -14.833 114 -44.5s44 -66.834 44 -111.501s-15 -82.5 -45 -113.5s-67.667 -46.5 -113 -46.5zM563 1499
c-46.667 0 -85 14.6689 -115 44.002s-45 66.666 -45 111.999c0 44.667 15.333 82.5 46 113.5s68.667 46.5 114 46.5c46.667 0 85 -14.833 115 -44.5s45 -66.834 45 -111.501s-15.167 -82.5 -45.5 -113.5s-68.5 -46.5 -114.5 -46.5zM55 0.00390625l0.000976562 177.995h185
v991h-185v179h1282v-480h-178c-14 69.333 -26.333 121.833 -37 157.5s-25.667 65.834 -45 90.501s-41.666 40.5 -66.999 47.5s-60.333 10.5 -105 10.5h-332v-408h111c20.667 0 37.167 0.666992 49.5 2s24 4.83301 35 10.5s19.333 11.834 25 18.501
s11.334 18.334 17.001 35.001s10.334 33.334 14.001 50.001s8.16699 40.667 13.5 72h159v-546h-159c-12.667 84.667 -27.5 137.834 -44.5 159.501s-53.5 32.5 -109.5 32.5h-111v-426h324c35.333 0 65 2 89 6s45.667 12.167 65 24.5s34.666 25.833 45.999 40.5
s22.166 37.5 32.499 68.5s18.666 61.667 24.999 92s14.166 72.5 23.499 126.5h178v-532h-1301z" />
    <glyph glyph-name="Igrave" unicode="&#xcc;" horiz-adv-x="866" 
d="M78 0v178h188v991h-188v179h710v-179h-188v-991h188v-178h-710zM526 1493l-132.999 0.000976562l-151 135c-43.333 38 -74.333 70 -93 96s-28 55.333 -28 88c0 32 12.667 60.5 38 85.5s55.666 37.5 90.999 37.5c44.667 0 80 -16.333 106 -49s52.667 -84.334 80 -155.001z
" />
    <glyph glyph-name="Iacute" unicode="&#xcd;" horiz-adv-x="866" 
d="M78 0v178h188v991h-188v179h710v-179h-188v-991h188v-178h-710zM346 1493l90.002 237.999c27.333 70.667 54.166 122.334 80.499 155.001s61.833 49 106.5 49c35.333 0 65.666 -12.5 90.999 -37.5s38 -53.5 38 -85.5c0 -32.667 -9.16699 -62 -27.5 -88
s-48.833 -58 -91.5 -96l-154 -135h-133z" />
    <glyph glyph-name="Icircumflex" unicode="&#xce;" horiz-adv-x="866" 
d="M78 0v178h188v991h-188v179h710v-179h-188v-991h188v-178h-710zM96 1493l254 403h166l250 -403h-174l-164 176l-158 -176h-174z" />
    <glyph glyph-name="Idieresis" unicode="&#xcf;" horiz-adv-x="866" 
d="M78 0v178h188v991h-188v179h710v-179h-188v-991h188v-178h-710zM637 1499c-46.667 0 -85 14.6689 -115 44.002s-45 66.666 -45 111.999c0 44.667 15.333 82.5 46 113.5s68.667 46.5 114 46.5c46.667 0 84.667 -14.833 114 -44.5s44 -66.834 44 -111.501
s-15 -82.5 -45 -113.5s-67.667 -46.5 -113 -46.5zM225 1499c-46.667 0 -84.832 14.6689 -114.499 44.002s-44.5 66.666 -44.5 111.999c0 44.667 15.167 82.5 45.5 113.5s68.166 46.5 113.499 46.5c46.667 0 85 -14.833 115 -44.5s45 -66.834 45 -111.501
s-15.167 -82.5 -45.5 -113.5s-68.5 -46.5 -114.5 -46.5z" />
    <glyph glyph-name="Eth" unicode="&#xd0;" horiz-adv-x="1538" 
d="M55 0v178h185v436h-185v177h185v378h-185v179h604c134 0 252.5 -15.833 355.5 -47.5s187.167 -77 252.5 -136s114.5 -129 147.5 -210s49.5 -171.833 49.5 -272.5s-16 -192.167 -48 -274.5s-79.833 -154 -143.5 -215s-146.5 -108.333 -248.5 -142
s-219.333 -50.5 -352 -50.5h-617zM573 174h117c149.333 0 255 37.5 317 112.5s93 206.167 93 393.5c0 178 -32.5 304.833 -97.5 380.5s-173.833 113.5 -326.5 113.5h-103v-383h234v-177h-234v-440z" />
    <glyph glyph-name="Ntilde" unicode="&#xd1;" horiz-adv-x="1609" 
d="M1067 -18l-633 1044h-18v-848h184v-178h-543v178h176v991h-176v179h574l571 -942h19v763h-185v179h543v-179h-176v-1187h-336zM457 1487c9.33301 114.667 30.832 198.331 64.499 250.998s88.5 79 164.5 79c27.333 0 57 -5.16699 89 -15.5s59.833 -21.666 83.5 -33.999
s48.5 -23.666 74.5 -33.999s47.333 -15.5 64 -15.5c19.333 0 34 8.33301 44 25s18.667 45.334 26 86.001h135c-8.66699 -114 -30 -197.5 -64 -250.5s-89 -79.5 -165 -79.5c-34.667 0 -72.5 8.16699 -113.5 24.5s-79.167 32.666 -114.5 48.999s-63 24.5 -83 24.5
c-18.667 0 -33.167 -8.33301 -43.5 -25s-19.166 -45 -26.499 -85h-135z" />
    <glyph glyph-name="Ograve" unicode="&#xd2;" horiz-adv-x="1531" 
d="M766 -33c-99.333 0 -191.665 16.833 -276.998 50.5s-158.5 80.667 -219.5 141s-108.833 134.666 -143.5 222.999s-52 185.166 -52 290.499c0 138 30.5 261.167 91.5 369.5s144 191.833 249 250.5s222.167 88 351.5 88c133.333 0 252.166 -28.667 356.499 -86
s186.333 -139.666 246 -246.999s89.5 -231 89.5 -371c0 -104 -17.833 -200.333 -53.5 -289s-84.334 -163.667 -146.001 -225s-135 -109.166 -220 -143.499s-175.833 -51.5 -272.5 -51.5zM772.001 135c109.333 0 190.333 43.5 243 130.5s79 223.167 79 408.5
c0 358.667 -111.333 538 -334 538c-109.333 0 -190.333 -43.5 -243 -130.5s-79 -222.833 -79 -407.5c0 -359.333 111.333 -539 334 -539zM860.001 1493l-133 0.00195312l-152 135c-43.333 37.333 -74.166 69.166 -92.499 95.499s-27.5 55.833 -27.5 88.5
c0 32 12.667 60.5 38 85.5s55.666 37.5 90.999 37.5c44.667 0 80 -16.333 106 -49s52.667 -84.334 80 -155.001z" />
    <glyph glyph-name="Oacute" unicode="&#xd3;" horiz-adv-x="1531" 
d="M680 1493l90.001 237.999c27.333 70.667 54 122.334 80 155.001s61.333 49 106 49c35.333 0 65.666 -12.5 90.999 -37.5s38 -53.5 38 -85.5c0 -32.667 -9 -62 -27 -88s-48.333 -58 -91 -96l-154 -135h-133zM766.001 -33.001c-99.333 0 -191.665 16.833 -276.998 50.5
s-158.5 80.667 -219.5 141s-108.833 134.666 -143.5 222.999s-52 185.166 -52 290.499c0 138 30.5 261.167 91.5 369.5s144 191.833 249 250.5s222.167 88 351.5 88c133.333 0 252.166 -28.667 356.499 -86s186.333 -139.666 246 -246.999s89.5 -231 89.5 -371
c0 -104 -17.833 -200.333 -53.5 -289s-84.334 -163.667 -146.001 -225s-135 -109.166 -220 -143.499s-175.833 -51.5 -272.5 -51.5zM772.002 134.999c109.333 0 190.333 43.5 243 130.5s79 223.167 79 408.5c0 358.667 -111.333 538 -334 538
c-109.333 0 -190.333 -43.5 -243 -130.5s-79 -222.833 -79 -407.5c0 -359.333 111.333 -539 334 -539z" />
    <glyph glyph-name="Ocircumflex" unicode="&#xd4;" horiz-adv-x="1531" 
d="M430 1493l254 403h166l250 -403h-174l-164 176l-158 -176h-174zM766 -33c-99.333 0 -191.665 16.833 -276.998 50.5s-158.5 80.667 -219.5 141s-108.833 134.666 -143.5 222.999s-52 185.166 -52 290.499c0 138 30.5 261.167 91.5 369.5s144 191.833 249 250.5
s222.167 88 351.5 88c133.333 0 252.166 -28.667 356.499 -86s186.333 -139.666 246 -246.999s89.5 -231 89.5 -371c0 -104 -17.833 -200.333 -53.5 -289s-84.334 -163.667 -146.001 -225s-135 -109.166 -220 -143.499s-175.833 -51.5 -272.5 -51.5zM772.001 135
c109.333 0 190.333 43.5 243 130.5s79 223.167 79 408.5c0 358.667 -111.333 538 -334 538c-109.333 0 -190.333 -43.5 -243 -130.5s-79 -222.833 -79 -407.5c0 -359.333 111.333 -539 334 -539z" />
    <glyph glyph-name="Otilde" unicode="&#xd5;" horiz-adv-x="1531" 
d="M766 -33c-99.333 0 -191.665 16.833 -276.998 50.5s-158.5 80.667 -219.5 141s-108.833 134.666 -143.5 222.999s-52 185.166 -52 290.499c0 138 30.5 261.167 91.5 369.5s144 191.833 249 250.5s222.167 88 351.5 88c133.333 0 252.166 -28.667 356.499 -86
s186.333 -139.666 246 -246.999s89.5 -231 89.5 -371c0 -104 -17.833 -200.333 -53.5 -289s-84.334 -163.667 -146.001 -225s-135 -109.166 -220 -143.499s-175.833 -51.5 -272.5 -51.5zM772.001 135c109.333 0 190.333 43.5 243 130.5s79 223.167 79 408.5
c0 358.667 -111.333 538 -334 538c-109.333 0 -190.333 -43.5 -243 -130.5s-79 -222.833 -79 -407.5c0 -359.333 111.333 -539 334 -539zM393.001 1487c9.33301 114.667 30.999 198.331 64.999 250.998s89 79 165 79c27.333 0 57 -5.16699 89 -15.5
s59.833 -21.666 83.5 -33.999s48.5 -23.666 74.5 -33.999s47.333 -15.5 64 -15.5c19.333 0 34 8.33301 44 25s18.667 45.334 26 86.001h135c-8.66699 -114 -30 -197.5 -64 -250.5s-89.333 -79.5 -166 -79.5c-34.667 0 -72.5 8.16699 -113.5 24.5
s-79.167 32.666 -114.5 48.999s-63 24.5 -83 24.5c-18.667 0 -33.167 -8.33301 -43.5 -25s-19.166 -45 -26.499 -85h-135z" />
    <glyph glyph-name="Odieresis" unicode="&#xd6;" horiz-adv-x="1531" 
d="M971 1499c-46.667 0 -85 14.6689 -115 44.002s-45 66.666 -45 111.999c0 44.667 15.333 82.5 46 113.5s68.667 46.5 114 46.5c46.667 0 84.5 -14.833 113.5 -44.5s43.5 -66.834 43.5 -111.501s-14.833 -82.5 -44.5 -113.5s-67.167 -46.5 -112.5 -46.5zM559 1499
c-46.667 0 -85 14.6689 -115 44.002s-45 66.666 -45 111.999c0 44.667 15.333 82.5 46 113.5s68.667 46.5 114 46.5c46.667 0 85 -14.833 115 -44.5s45 -66.834 45 -111.501s-15.167 -82.5 -45.5 -113.5s-68.5 -46.5 -114.5 -46.5zM766 -32.9961
c-99.333 0 -191.665 16.833 -276.998 50.5s-158.5 80.667 -219.5 141s-108.833 134.666 -143.5 222.999s-52 185.166 -52 290.499c0 138 30.5 261.167 91.5 369.5s144 191.833 249 250.5s222.167 88 351.5 88c133.333 0 252.166 -28.667 356.499 -86
s186.333 -139.666 246 -246.999s89.5 -231 89.5 -371c0 -104 -17.833 -200.333 -53.5 -289s-84.334 -163.667 -146.001 -225s-135 -109.166 -220 -143.499s-175.833 -51.5 -272.5 -51.5zM772.001 135.004c109.333 0 190.333 43.5 243 130.5s79 223.167 79 408.5
c0 358.667 -111.333 538 -334 538c-109.333 0 -190.333 -43.5 -243 -130.5s-79 -222.833 -79 -407.5c0 -359.333 111.333 -539 334 -539z" />
    <glyph glyph-name="multiply" unicode="&#xd7;" horiz-adv-x="1064" 
d="M649 582l281 -285l-123 -125l-275 291l-274 -291l-123 125l281 285l-281 286l123 125l274 -291l275 291l123 -125z" />
    <glyph glyph-name="Oslash" unicode="&#xd8;" horiz-adv-x="1531" 
d="M311 -70l-215.003 -0.000976562l176 232c-132 130 -198 300 -198 510c0 103.333 17.667 199.333 53 288s83.666 163.5 144.999 224.5s134 108.833 218 143.5s173.333 52 268 52c132.667 0 255.334 -31.333 368.001 -94l95 131h215l-176 -233
c132 -132 198 -301.333 198 -508c0 -104 -17.667 -200.333 -53 -289s-83.666 -163.667 -144.999 -225s-134.166 -109.166 -218.499 -143.499s-174.166 -51.5 -269.499 -51.5c-137.333 0 -260.333 31.333 -369 94zM435.997 673.999c0 -111.333 9 -205.001 27 -281.001
l528 725c-53.333 64 -130.333 96 -231 96c-110 0 -191.5 -43.667 -244.5 -131s-79.5 -223.666 -79.5 -408.999zM771.997 132.998c110 0 191.5 43.667 244.5 131s79.5 224 79.5 410c0 109.333 -9 202 -27 278l-528 -725c52 -62.667 129 -94 231 -94z" />
    <glyph glyph-name="Ugrave" unicode="&#xd9;" horiz-adv-x="1540" 
d="M797 -33c-194 0 -340.498 43.5 -439.498 130.5s-148.5 208.833 -148.5 365.5v706h-174v179h696v-179h-188v-659c0 -122 25.833 -208.833 77.5 -260.5s130.167 -77.5 235.5 -77.5c91.333 0 163.666 26.667 216.999 80c56 56 84 155.667 84 299v618h-180v179h539v-179h-168
v-696c0 -70 -11.167 -135 -33.5 -195s-55.333 -113.5 -99 -160.5s-101.334 -83.833 -173.001 -110.5s-153.5 -40 -245.5 -40zM926.002 1493l-132.998 0.000976562l-152 135c-43.333 38 -74.333 70 -93 96s-28 55.333 -28 88c0 32 12.667 60.5 38 85.5
s55.666 37.5 90.999 37.5c44.667 0 80.167 -16.333 106.5 -49s53.166 -84.334 80.499 -155.001z" />
    <glyph glyph-name="Uacute" unicode="&#xda;" horiz-adv-x="1540" 
d="M745 1493l91.001 237.999c27.333 70.667 54 122.334 80 155.001s61.333 49 106 49c35.333 0 65.666 -12.5 90.999 -37.5s38 -53.5 38 -85.5c0 -32.667 -9.16699 -62 -27.5 -88s-48.833 -58 -91.5 -96l-153 -135h-134zM797.001 -33.001
c-194 0 -340.498 43.5 -439.498 130.5s-148.5 208.833 -148.5 365.5v706h-174v179h696v-179h-188v-659c0 -122 25.833 -208.833 77.5 -260.5s130.167 -77.5 235.5 -77.5c91.333 0 163.666 26.667 216.999 80c56 56 84 155.667 84 299v618h-180v179h539v-179h-168v-696
c0 -70 -11.167 -135 -33.5 -195s-55.333 -113.5 -99 -160.5s-101.334 -83.833 -173.001 -110.5s-153.5 -40 -245.5 -40z" />
    <glyph glyph-name="Ucircumflex" unicode="&#xdb;" horiz-adv-x="1540" 
d="M498 1493l254 403h166l249 -403h-174l-164 176l-157 -176h-174zM797 -33c-194 0 -340.498 43.5 -439.498 130.5s-148.5 208.833 -148.5 365.5v706h-174v179h696v-179h-188v-659c0 -122 25.833 -208.833 77.5 -260.5s130.167 -77.5 235.5 -77.5
c91.333 0 163.666 26.667 216.999 80c56 56 84 155.667 84 299v618h-180v179h539v-179h-168v-696c0 -70 -11.167 -135 -33.5 -195s-55.333 -113.5 -99 -160.5s-101.334 -83.833 -173.001 -110.5s-153.5 -40 -245.5 -40z" />
    <glyph glyph-name="Udieresis" unicode="&#xdc;" horiz-adv-x="1540" 
d="M1038 1499c-46.667 0 -84.832 14.6689 -114.499 44.002s-44.5 66.666 -44.5 111.999c0 44.667 15.167 82.5 45.5 113.5s68.166 46.5 113.499 46.5c46.667 0 84.667 -14.833 114 -44.5s44 -66.834 44 -111.501s-15 -82.5 -45 -113.5s-67.667 -46.5 -113 -46.5z
M627.002 1499c-46.667 0 -85.001 14.6689 -115.001 44.002s-45 66.666 -45 111.999c0 44.667 15.333 82.5 46 113.5s68.667 46.5 114 46.5c46.667 0 84.834 -14.833 114.501 -44.5s44.5 -66.834 44.5 -111.501s-15 -82.5 -45 -113.5s-68 -46.5 -114 -46.5zM797.001 -32.9961
c-194 0 -340.498 43.5 -439.498 130.5s-148.5 208.833 -148.5 365.5v706h-174v179h696v-179h-188v-659c0 -122 25.833 -208.833 77.5 -260.5s130.167 -77.5 235.5 -77.5c91.333 0 163.666 26.667 216.999 80c56 56 84 155.667 84 299v618h-180v179h539v-179h-168v-696
c0 -70 -11.167 -135 -33.5 -195s-55.333 -113.5 -99 -160.5s-101.334 -83.833 -173.001 -110.5s-153.5 -40 -245.5 -40z" />
    <glyph glyph-name="Yacute" unicode="&#xdd;" horiz-adv-x="1384" 
d="M788 739l256 432h-161v177h520v-179h-150l-383 -608v-383h183v-178h-699v178h183v363l-390 628h-141v179h688v-177h-153zM670 1493l90.001 237.999c27.333 70.667 54 122.334 80 155.001s61.333 49 106 49c35.333 0 65.666 -12.5 90.999 -37.5s38 -53.5 38 -85.5
c0 -32.667 -9.16699 -62 -27.5 -88s-48.833 -58 -91.5 -96l-153 -135h-133z" />
    <glyph glyph-name="Thorn" unicode="&#xde;" horiz-adv-x="1372" 
d="M55 0v178.001h185v991h-185v179h707v-179h-189v-106h160c204 0 353 -33.333 447 -100s141 -158.334 141 -275.001c0 -58 -10.5 -109.833 -31.5 -155.5s-53.833 -86 -98.5 -121s-105 -61.833 -181 -80.5s-166.333 -28 -271 -28h-166v-125h189v-178h-707zM573 475.001h129
c95.333 0 163 17 203 51s60 88 60 162c0 70 -19.333 121.333 -58 154s-107 49 -205 49h-129v-416z" />
    <glyph glyph-name="germandbls" unicode="&#xdf;" horiz-adv-x="1316" 
d="M920 -16c-100 0 -177.997 17.9971 -233.997 53.9971s-84 85.333 -84 148c0 39.333 12.333 72.5 37 99.5s57.334 40.5 98.001 40.5c43.333 0 77.5 -13.167 102.5 -39.5s37.5 -59.833 37.5 -100.5c0 -32.667 -7.66699 -60 -23 -82c21.333 -10.667 46.666 -16 75.999 -16
c37.333 0 66.5 10.333 87.5 31s31.5 49.334 31.5 86.001c0 42 -14.833 78.167 -44.5 108.5s-75.834 62.5 -138.501 96.5c-40 22 -71.667 41 -95 57s-45.833 34.667 -67.5 56s-37.167 44.333 -46.5 69s-14 52.667 -14 84c0 36 8 69.5 24 100.5s40 67.167 72 108.5
c39.333 46 68.666 88.333 87.999 127s29 82.334 29 131.001c0 50 -14.833 90.167 -44.5 120.5s-69.5 45.5 -119.5 45.5c-61.333 0 -107.666 -20 -138.999 -60s-47 -104 -47 -192v-1057h-440v170h139v618h-174v160h180v15c0 78.667 12.833 148.167 38.5 208.5
s61.5 108.833 107.5 145.5s98.667 64.167 158 82.5s124.666 27.5 195.999 27.5c133.333 0 238.333 -25.333 315 -76s115 -115.334 115 -194.001c0 -27.333 -4.33301 -52.333 -13 -75s-22.167 -43.5 -40.5 -62.5s-35.666 -34.667 -51.999 -47s-38.5 -27.166 -66.5 -44.499
c-44.667 -27.333 -75 -49.166 -91 -65.499s-24 -36.166 -24 -59.499c0 -26 12.333 -49.5 37 -70.5s69.667 -50.833 135 -89.5c38.667 -22 71.167 -42 97.5 -60s53.666 -40.667 81.999 -68s49.833 -58.333 64.5 -93s22 -72.334 22 -113.001
c0 -93.333 -33.333 -170.833 -100 -232.5s-157.334 -92.5 -272.001 -92.5z" />
    <glyph glyph-name="agrave" unicode="&#xe0;" horiz-adv-x="1122" 
d="M352 -18c-86 0 -156.335 23.168 -211.002 69.501s-82 107.833 -82 184.5c0 64.667 22.667 119.667 68 165c33.333 33.333 79.5 60.666 138.5 81.999s145.167 39.333 258.5 54c58 8 93 14.167 105 18.5s18 12.5 18 24.5v84c0 60 -14.167 102.833 -42.5 128.5
s-72.833 38.5 -133.5 38.5c-43.333 0 -84.333 -8 -123 -24c32.667 -24 49 -59 49 -105c0 -36 -13.667 -66.167 -41 -90.5s-62 -36.5 -104 -36.5c-49.333 0 -87.666 13.833 -114.999 41.5s-41 61.834 -41 102.501c0 56 21.833 104.167 65.5 144.5s99.167 69.666 166.5 87.999
s141.666 27.5 222.999 27.5c260.667 0 391 -111.333 391 -334v-436c0 -22 4 -37 12 -45s21 -12 39 -12c26.667 0 48 30.667 64 92l100 -33c-19.333 -79.333 -49.166 -137.333 -89.499 -174s-94.5 -55 -162.5 -55c-61.333 0 -112.166 16.667 -152.499 50s-64.5 84 -72.5 152
h-10c-56.667 -134.667 -162.667 -202 -318 -202zM491.998 156.001c46 0 83.333 19.499 112 58.499s43 89.167 43 150.5v94c-5.33301 -1.33301 -17.5 -3.66602 -36.5 -6.99902l-55.5 -10c-71.333 -12 -120.833 -30.5 -148.5 -55.5s-41.5 -60.833 -41.5 -107.5
c0 -36 10.5 -65.5 31.5 -88.5s52.833 -34.5 95.5 -34.5zM640.998 1096l-133 0.000976562l-152 135c-43.333 37.333 -74.166 69.166 -92.499 95.499s-27.5 55.833 -27.5 88.5c0 32 12.667 60.5 38 85.5s55.666 37.5 90.999 37.5c44.667 0 80 -16.5 106 -49.5
s52.667 -84.833 80 -155.5z" />
    <glyph glyph-name="aacute" unicode="&#xe1;" horiz-adv-x="1122" 
d="M352 -18c-86 0 -156.335 23.168 -211.002 69.501s-82 107.833 -82 184.5c0 64.667 22.667 119.667 68 165c33.333 33.333 79.5 60.666 138.5 81.999s145.167 39.333 258.5 54c58 8 93 14.167 105 18.5s18 12.5 18 24.5v84c0 60 -14.167 102.833 -42.5 128.5
s-72.833 38.5 -133.5 38.5c-43.333 0 -84.333 -8 -123 -24c32.667 -24 49 -59 49 -105c0 -36 -13.667 -66.167 -41 -90.5s-62 -36.5 -104 -36.5c-49.333 0 -87.666 13.833 -114.999 41.5s-41 61.834 -41 102.501c0 56 21.833 104.167 65.5 144.5s99.167 69.666 166.5 87.999
s141.666 27.5 222.999 27.5c260.667 0 391 -111.333 391 -334v-436c0 -22 4 -37 12 -45s21 -12 39 -12c26.667 0 48 30.667 64 92l100 -33c-19.333 -79.333 -49.166 -137.333 -89.499 -174s-94.5 -55 -162.5 -55c-61.333 0 -112.166 16.667 -152.499 50s-64.5 84 -72.5 152
h-10c-56.667 -134.667 -162.667 -202 -318 -202zM491.998 156.001c46 0 83.333 19.499 112 58.499s43 89.167 43 150.5v94c-5.33301 -1.33301 -17.5 -3.66602 -36.5 -6.99902l-55.5 -10c-71.333 -12 -120.833 -30.5 -148.5 -55.5s-41.5 -60.833 -41.5 -107.5
c0 -36 10.5 -65.5 31.5 -88.5s52.833 -34.5 95.5 -34.5zM460.998 1096l90.001 237c27.333 70.667 54 122.5 80 155.5s61.333 49.5 106 49.5c35.333 0 65.666 -12.5 90.999 -37.5s38 -53.5 38 -85.5c0 -32.667 -9 -62 -27 -88s-48.333 -58 -91 -96l-154 -135h-133z" />
    <glyph glyph-name="acircumflex" unicode="&#xe2;" horiz-adv-x="1122" 
d="M352 -18c-86 0 -156.335 23.168 -211.002 69.501s-82 107.833 -82 184.5c0 64.667 22.667 119.667 68 165c33.333 33.333 79.5 60.666 138.5 81.999s145.167 39.333 258.5 54c58 8 93 14.167 105 18.5s18 12.5 18 24.5v84c0 60 -14.167 102.833 -42.5 128.5
s-72.833 38.5 -133.5 38.5c-43.333 0 -84.333 -8 -123 -24c32.667 -24 49 -59 49 -105c0 -36 -13.667 -66.167 -41 -90.5s-62 -36.5 -104 -36.5c-49.333 0 -87.666 13.833 -114.999 41.5s-41 61.834 -41 102.501c0 56 21.833 104.167 65.5 144.5s99.167 69.666 166.5 87.999
s141.666 27.5 222.999 27.5c260.667 0 391 -111.333 391 -334v-436c0 -22 4 -37 12 -45s21 -12 39 -12c26.667 0 48 30.667 64 92l100 -33c-19.333 -79.333 -49.166 -137.333 -89.499 -174s-94.5 -55 -162.5 -55c-61.333 0 -112.166 16.667 -152.499 50s-64.5 84 -72.5 152
h-10c-56.667 -134.667 -162.667 -202 -318 -202zM491.998 156.001c46 0 83.333 19.499 112 58.499s43 89.167 43 150.5v94c-5.33301 -1.33301 -17.5 -3.66602 -36.5 -6.99902l-55.5 -10c-71.333 -12 -120.833 -30.5 -148.5 -55.5s-41.5 -60.833 -41.5 -107.5
c0 -36 10.5 -65.5 31.5 -88.5s52.833 -34.5 95.5 -34.5zM212.998 1096l254 403h166l250 -403h-174l-164 176l-158 -176h-174z" />
    <glyph glyph-name="atilde" unicode="&#xe3;" horiz-adv-x="1122" 
d="M352 -18c-86 0 -156.335 23.168 -211.002 69.501s-82 107.833 -82 184.5c0 64.667 22.667 119.667 68 165c33.333 33.333 79.5 60.666 138.5 81.999s145.167 39.333 258.5 54c58 8 93 14.167 105 18.5s18 12.5 18 24.5v84c0 60 -14.167 102.833 -42.5 128.5
s-72.833 38.5 -133.5 38.5c-43.333 0 -84.333 -8 -123 -24c32.667 -24 49 -59 49 -105c0 -36 -13.667 -66.167 -41 -90.5s-62 -36.5 -104 -36.5c-49.333 0 -87.666 13.833 -114.999 41.5s-41 61.834 -41 102.501c0 56 21.833 104.167 65.5 144.5s99.167 69.666 166.5 87.999
s141.666 27.5 222.999 27.5c260.667 0 391 -111.333 391 -334v-436c0 -22 4 -37 12 -45s21 -12 39 -12c26.667 0 48 30.667 64 92l100 -33c-19.333 -79.333 -49.166 -137.333 -89.499 -174s-94.5 -55 -162.5 -55c-61.333 0 -112.166 16.667 -152.499 50s-64.5 84 -72.5 152
h-10c-56.667 -134.667 -162.667 -202 -318 -202zM491.998 156.001c46 0 83.333 19.499 112 58.499s43 89.167 43 150.5v94c-5.33301 -1.33301 -17.5 -3.66602 -36.5 -6.99902l-55.5 -10c-71.333 -12 -120.833 -30.5 -148.5 -55.5s-41.5 -60.833 -41.5 -107.5
c0 -36 10.5 -65.5 31.5 -88.5s52.833 -34.5 95.5 -34.5zM173.998 1090c9.33301 114.667 30.832 198.168 64.499 250.501s88.5 78.5 164.5 78.5c34.667 0 72.5 -8.16699 113.5 -24.5s79.333 -32.666 115 -48.999s63.5 -24.5 83.5 -24.5c19.333 0 33.833 8.16699 43.5 24.5
s18.167 45.166 25.5 86.499h136c-8.66699 -114 -30 -197.5 -64 -250.5s-89.333 -79.5 -166 -79.5c-34.667 0 -72.5 8.16699 -113.5 24.5s-79.167 32.666 -114.5 48.999s-63 24.5 -83 24.5c-18.667 0 -33.167 -8.33301 -43.5 -25s-19.166 -45 -26.499 -85h-135z" />
    <glyph glyph-name="adieresis" unicode="&#xe4;" horiz-adv-x="1122" 
d="M352 -18c-86 0 -156.335 23.168 -211.002 69.501s-82 107.833 -82 184.5c0 64.667 22.667 119.667 68 165c33.333 33.333 79.5 60.666 138.5 81.999s145.167 39.333 258.5 54c58 8 93 14.167 105 18.5s18 12.5 18 24.5v84c0 60 -14.167 102.833 -42.5 128.5
s-72.833 38.5 -133.5 38.5c-43.333 0 -84.333 -8 -123 -24c32.667 -24 49 -59 49 -105c0 -36 -13.667 -66.167 -41 -90.5s-62 -36.5 -104 -36.5c-49.333 0 -87.666 13.833 -114.999 41.5s-41 61.834 -41 102.501c0 56 21.833 104.167 65.5 144.5s99.167 69.666 166.5 87.999
s141.666 27.5 222.999 27.5c260.667 0 391 -111.333 391 -334v-436c0 -22 4 -37 12 -45s21 -12 39 -12c26.667 0 48 30.667 64 92l100 -33c-19.333 -79.333 -49.166 -137.333 -89.499 -174s-94.5 -55 -162.5 -55c-61.333 0 -112.166 16.667 -152.499 50s-64.5 84 -72.5 152
h-10c-56.667 -134.667 -162.667 -202 -318 -202zM491.998 156.001c46 0 83.333 19.499 112 58.499s43 89.167 43 150.5v94c-5.33301 -1.33301 -17.5 -3.66602 -36.5 -6.99902l-55.5 -10c-71.333 -12 -120.833 -30.5 -148.5 -55.5s-41.5 -60.833 -41.5 -107.5
c0 -36 10.5 -65.5 31.5 -88.5s52.833 -34.5 95.5 -34.5zM753.998 1102c-46.667 0 -85 14.5 -115 43.5s-45 66.167 -45 111.5c0 44.667 15.333 82.5 46 113.5s68.667 46.5 114 46.5c46.667 0 84.5 -14.667 113.5 -44s43.5 -66.333 43.5 -111s-14.833 -82.5 -44.5 -113.5
s-67.167 -46.5 -112.5 -46.5zM341.998 1102c-46.667 0 -85 14.5 -115 43.5s-45 66.167 -45 111.5c0 44.667 15.333 82.5 46 113.5s68.667 46.5 114 46.5c46.667 0 85 -14.667 115 -44s45 -66.333 45 -111s-15.167 -82.5 -45.5 -113.5s-68.5 -46.5 -114.5 -46.5z" />
    <glyph glyph-name="aring" unicode="&#xe5;" horiz-adv-x="1122" 
d="M352 -18c-86 0 -156.335 23.168 -211.002 69.501s-82 107.833 -82 184.5c0 64.667 22.667 119.667 68 165c33.333 33.333 79.5 60.666 138.5 81.999s145.167 39.333 258.5 54c58 8 93 14.167 105 18.5s18 12.5 18 24.5v84c0 60 -14.167 102.833 -42.5 128.5
s-72.833 38.5 -133.5 38.5c-43.333 0 -84.333 -8 -123 -24c32.667 -24 49 -59 49 -105c0 -36 -13.667 -66.167 -41 -90.5s-62 -36.5 -104 -36.5c-49.333 0 -87.666 13.833 -114.999 41.5s-41 61.834 -41 102.501c0 56 21.833 104.167 65.5 144.5s99.167 69.666 166.5 87.999
s141.666 27.5 222.999 27.5c260.667 0 391 -111.333 391 -334v-436c0 -22 4 -37 12 -45s21 -12 39 -12c26.667 0 48 30.667 64 92l100 -33c-19.333 -79.333 -49.166 -137.333 -89.499 -174s-94.5 -55 -162.5 -55c-61.333 0 -112.166 16.667 -152.499 50s-64.5 84 -72.5 152
h-10c-56.667 -134.667 -162.667 -202 -318 -202zM491.998 156.001c46 0 83.333 19.499 112 58.499s43 89.167 43 150.5v94c-5.33301 -1.33301 -17.5 -3.66602 -36.5 -6.99902l-55.5 -10c-71.333 -12 -120.833 -30.5 -148.5 -55.5s-41.5 -60.833 -41.5 -107.5
c0 -36 10.5 -65.5 31.5 -88.5s52.833 -34.5 95.5 -34.5zM548.998 1083c-82.667 0 -147.666 22.667 -194.999 68s-71 101.333 -71 168s24.167 123.334 72.5 170.001s112.833 70 193.5 70c81.333 0 145.666 -22.833 192.999 -68.5s71 -101.5 71 -167.5
c0 -66.667 -24 -123.334 -72 -170.001s-112 -70 -192 -70zM550.999 1186c31.333 0 56.5 12.001 75.5 36.001s28.5 57 28.5 99c0 43.333 -9.83301 76.666 -29.5 99.999s-46.5 35 -80.5 35c-30.667 0 -55.834 -11.667 -75.501 -35s-29.5 -56 -29.5 -98
c0 -42.667 10.333 -76.167 31 -100.5s47.334 -36.5 80.001 -36.5z" />
    <glyph glyph-name="ae" unicode="&#xe6;" horiz-adv-x="1644" 
d="M1583 440l-649.001 0.000976562c6 -107.333 29.667 -183.666 71 -228.999s101.666 -68 180.999 -68c57.333 0 104.5 13.167 141.5 39.5s66.167 69.166 87.5 128.499h158c-42 -220.667 -184.667 -331 -428 -331c-109.333 0 -201 20 -275 60s-127.667 97 -161 171
c-28 -74.667 -71.667 -131.5 -131 -170.5s-129.666 -58.5 -210.999 -58.5c-92.667 0 -167.167 23 -223.5 69s-84.5 107.667 -84.5 185c0 64.667 22.667 119.667 68 165c33.333 33.333 79.5 60.666 138.5 81.999s145.167 39.333 258.5 54c58 8 93 14.167 105 18.5
s18 12.5 18 24.5v84c0 60 -14.167 102.833 -42.5 128.5s-72.833 38.5 -133.5 38.5c-43.333 0 -84.333 -8 -123 -24c32.667 -24 49 -59 49 -105c0 -36 -13.667 -66.167 -41 -90.5s-62 -36.5 -104 -36.5c-49.333 0 -87.666 13.833 -114.999 41.5s-41 61.834 -41 102.501
c0 56 21.833 104.167 65.5 144.5s98 69.666 163 87.999s135.833 27.5 212.5 27.5c144 0 242 -38.333 294 -115c78 78 179.333 117 304 117c150 0 264 -50 342 -150s113.333 -230.333 106 -391zM1118 842.001c-54.667 0 -97.165 -20.833 -127.498 -62.5
s-48.5 -111.834 -54.5 -210.501h354c-4.66699 96.667 -20.834 166.334 -48.501 209.001s-68.834 64 -123.501 64zM492.001 156.001c46 0 83.333 19.499 112 58.499s43 89.167 43 150.5v94c-5.33301 -1.33301 -17.5 -3.66602 -36.5 -6.99902l-55.5 -10
c-71.333 -12 -120.833 -30.5 -148.5 -55.5s-41.5 -60.833 -41.5 -107.5c0 -36 10.5 -65.5 31.5 -88.5s52.833 -34.5 95.5 -34.5z" />
    <glyph glyph-name="ccedilla" unicode="&#xe7;" horiz-adv-x="1050" 
d="M537 -510c-104 0 -195 22 -273 66l60 100c56 -27.333 114.667 -41 176 -41c65.333 0 98 19 98 57c0 22 -13.667 39.833 -41 53.5s-66.333 20.5 -117 20.5c-14 0 -32.333 -2 -55 -6l-47 86l182 156c-144.667 10 -258 58.333 -340 145s-123 198.667 -123 336
c0 154 49.167 278.833 147.5 374.5s225.5 143.5 381.5 143.5c66 0 126.333 -9.33301 181 -28s98.834 -43.167 132.501 -73.5s59.5 -63.5 77.5 -99.5s27 -72.667 27 -110c0 -52.667 -14.333 -95.167 -43 -127.5s-69 -48.5 -121 -48.5c-48 0 -85.667 14 -113 42
s-41 62.333 -41 103c0 31.333 8.5 58.5 25.5 81.5s37.167 38.833 60.5 47.5c-34.667 44 -87.334 66 -158.001 66c-69.333 0 -125.833 -31.167 -169.5 -93.5s-65.5 -147.5 -65.5 -255.5c0 -102.667 20.667 -183.5 62 -242.5s101.333 -88.5 180 -88.5
c108.667 0 183.667 58.667 225 176h160c-20 -89.333 -57.167 -163.833 -111.5 -223.5s-124.5 -98.5 -210.5 -116.5l-109 -111l3 -8c77.333 -8.66699 135.5 -29.167 174.5 -61.5s58.5 -71.833 58.5 -118.5c0 -62 -24.167 -111 -72.5 -147s-115.5 -54 -201.5 -54z" />
    <glyph glyph-name="egrave" unicode="&#xe8;" horiz-adv-x="1081" 
d="M1022 440l-653 -0.00195312c6 -107.333 30 -183.666 72 -228.999s102.667 -68 182 -68c58.667 0 106.167 13.167 142.5 39.5s65.166 69.166 86.499 128.499h160c-19.333 -104.667 -65.333 -186 -138 -244s-173.667 -87 -303 -87c-158 0 -283.167 44.667 -375.5 134
s-138.5 208.333 -138.5 357c0 96 21.833 182.833 65.5 260.5s104 138.667 181 183s162.833 66.5 257.5 66.5c105.333 0 193.833 -23.667 265.5 -71s123.334 -111.166 155.001 -191.499s45.167 -173.166 40.5 -278.499zM659 1096h-132.999l-151 135
c-43.333 38 -74.333 70 -93 96s-28 55.333 -28 88c0 32 12.667 60.5 38 85.5s55.666 37.5 90.999 37.5c44.667 0 80 -16.5 106 -49.5s52.667 -84.833 80 -155.5zM555.001 841.998c-56 0 -99.166 -20.833 -129.499 -62.5s-48.5 -111.834 -54.5 -210.501h358
c-4.66699 96.667 -20.834 166.334 -48.501 209.001s-69.5 64 -125.5 64z" />
    <glyph glyph-name="eacute" unicode="&#xe9;" horiz-adv-x="1081" 
d="M1022 440l-653 -0.00195312c6 -107.333 30 -183.666 72 -228.999s102.667 -68 182 -68c58.667 0 106.167 13.167 142.5 39.5s65.166 69.166 86.499 128.499h160c-19.333 -104.667 -65.333 -186 -138 -244s-173.667 -87 -303 -87c-158 0 -283.167 44.667 -375.5 134
s-138.5 208.333 -138.5 357c0 96 21.833 182.833 65.5 260.5s104 138.667 181 183s162.833 66.5 257.5 66.5c105.333 0 193.833 -23.667 265.5 -71s123.334 -111.166 155.001 -191.499s45.167 -173.166 40.5 -278.499zM479 1096l90.002 237
c27.333 70.667 54.166 122.5 80.499 155.5s61.833 49.5 106.5 49.5c35.333 0 65.666 -12.5 90.999 -37.5s38 -53.5 38 -85.5c0 -32.667 -9.16699 -62 -27.5 -88s-48.833 -58 -91.5 -96l-154 -135h-133zM555.002 841.998c-56 0 -99.166 -20.833 -129.499 -62.5
s-48.5 -111.834 -54.5 -210.501h358c-4.66699 96.667 -20.834 166.334 -48.501 209.001s-69.5 64 -125.5 64z" />
    <glyph glyph-name="ecircumflex" unicode="&#xea;" horiz-adv-x="1081" 
d="M1022 440l-653 -0.00195312c6 -107.333 30 -183.666 72 -228.999s102.667 -68 182 -68c58.667 0 106.167 13.167 142.5 39.5s65.166 69.166 86.499 128.499h160c-19.333 -104.667 -65.333 -186 -138 -244s-173.667 -87 -303 -87c-158 0 -283.167 44.667 -375.5 134
s-138.5 208.333 -138.5 357c0 96 21.833 182.833 65.5 260.5s104 138.667 181 183s162.833 66.5 257.5 66.5c105.333 0 193.833 -23.667 265.5 -71s123.334 -111.166 155.001 -191.499s45.167 -173.166 40.5 -278.499zM229 1096l254 403h166l250 -403h-174l-164 176
l-158 -176h-174zM555 841.998c-56 0 -99.166 -20.833 -129.499 -62.5s-48.5 -111.834 -54.5 -210.501h358c-4.66699 96.667 -20.834 166.334 -48.501 209.001s-69.5 64 -125.5 64z" />
    <glyph glyph-name="edieresis" unicode="&#xeb;" horiz-adv-x="1081" 
d="M1022 440l-653 -0.00195312c6 -107.333 30 -183.666 72 -228.999s102.667 -68 182 -68c58.667 0 106.167 13.167 142.5 39.5s65.166 69.166 86.499 128.499h160c-19.333 -104.667 -65.333 -186 -138 -244s-173.667 -87 -303 -87c-158 0 -283.167 44.667 -375.5 134
s-138.5 208.333 -138.5 357c0 96 21.833 182.833 65.5 260.5s104 138.667 181 183s162.833 66.5 257.5 66.5c105.333 0 193.833 -23.667 265.5 -71s123.334 -111.166 155.001 -191.499s45.167 -173.166 40.5 -278.499zM358 1102c-46.667 0 -84.832 14.5 -114.499 43.5
s-44.5 66.167 -44.5 111.5c0 44.667 15.167 82.5 45.5 113.5s68.166 46.5 113.499 46.5c46.667 0 85 -14.667 115 -44s45 -66.333 45 -111s-15.167 -82.5 -45.5 -113.5s-68.5 -46.5 -114.5 -46.5zM770.002 1102c-46.667 0 -85 14.5 -115 43.5s-45 66.167 -45 111.5
c0 44.667 15.333 82.5 46 113.5s68.667 46.5 114 46.5c46.667 0 84.667 -14.667 114 -44s44 -66.333 44 -111s-15 -82.5 -45 -113.5s-67.667 -46.5 -113 -46.5zM555.002 841.998c-56 0 -99.166 -20.833 -129.499 -62.5s-48.5 -111.834 -54.5 -210.501h358
c-4.66699 96.667 -20.834 166.334 -48.501 209.001s-69.5 64 -125.5 64z" />
    <glyph glyph-name="igrave" unicode="&#xec;" horiz-adv-x="706" 
d="M63 0v170h156v618h-156v170h455v-788h156v-170h-611zM426 1096h-133l-152 135c-43.333 38 -74.333 70 -93 96s-28 55.333 -28 88c0 32 12.833 60.5 38.5 85.5s56.167 37.5 91.5 37.5c44.667 0 80 -16.5 106 -49.5s52.667 -84.833 80 -155.5z" />
    <glyph glyph-name="iacute" unicode="&#xed;" horiz-adv-x="706" 
d="M246 1096l90.001 237c27.333 70.667 54 122.5 80 155.5s61.333 49.5 106 49.5c35.333 0 65.666 -12.5 90.999 -37.5s38 -53.5 38 -85.5c0 -32.667 -9.16699 -62 -27.5 -88s-48.833 -58 -91.5 -96l-153 -135h-133zM63.001 0v170h156v618h-156v170h455v-788h156v-170h-611z
" />
    <glyph glyph-name="icircumflex" unicode="&#xee;" horiz-adv-x="706" 
d="M-2 1096l254 403h166l250 -403h-174l-164 176l-158 -176h-174zM63 0v170h156v618h-156v170h455v-788h156v-170h-611z" />
    <glyph glyph-name="idieresis" unicode="&#xef;" horiz-adv-x="706" 
d="M539 1102c-46.667 0 -85 14.5 -115 43.5s-45 66.167 -45 111.5c0 44.667 15.333 82.5 46 113.5s68.667 46.5 114 46.5c46.667 0 84.5 -14.667 113.5 -44s43.5 -66.333 43.5 -111s-14.833 -82.5 -44.5 -113.5s-67.167 -46.5 -112.5 -46.5zM127 1102
c-46.667 0 -85 14.5 -115 43.5s-45 66.167 -45 111.5c0 44.667 15.333 82.5 46 113.5s68.667 46.5 114 46.5c46.667 0 85 -14.667 115 -44s45 -66.333 45 -111s-15.167 -82.5 -45.5 -113.5s-68.5 -46.5 -114.5 -46.5zM63 0v170h156v618h-156v170h455v-788h156v-170h-611z
" />
    <glyph glyph-name="eth" unicode="&#xf0;" horiz-adv-x="1163" 
d="M1034 1268l-176.003 -68.001c158.667 -184 238 -387.333 238 -610c0 -198.667 -48.5 -350 -145.5 -454s-226.167 -156 -387.5 -156c-154 0 -276.833 44.333 -368.5 133s-137.5 206 -137.5 352c0 142 38.5 256.333 115.5 343s177.833 130 302.5 130
c64.667 0 121.834 -12.5 171.501 -37.5s88.834 -60.833 117.501 -107.5c-15.333 108 -57.666 216.333 -126.999 325l-252 -96l-45 123l219 82c-44.667 56.667 -95.667 111.334 -153 164.001l210 32c73.333 -58.667 121.333 -98.667 144 -120l229 86zM577.997 118.999
c64 0 110.667 26.832 140 80.499s44 140.167 44 259.5c0 118 -16.5 201.667 -49.5 251s-84.167 74 -153.5 74c-61.333 0 -106.333 -25.167 -135 -75.5s-43 -134.166 -43 -251.499c0 -119.333 16.167 -205.5 48.5 -258.5s81.833 -79.5 148.5 -79.5z" />
    <glyph glyph-name="ntilde" unicode="&#xf1;" horiz-adv-x="1290" 
d="M59 0l-0.000976562 170h142v618h-142v170h422v-251c76 181.333 192 272 348 272c99.333 0 173 -30.167 221 -90.5s72 -142.833 72 -247.5v-471h138v-170h-547v170h108v430c0 68 -14.333 116.333 -43 145c-25.333 22 -56.666 33 -93.999 33
c-49.333 0 -92.333 -22.167 -129 -66.5s-55 -99.833 -55 -166.5v-375h106v-170h-547zM294.999 1090c9.33301 114.667 30.832 198.168 64.499 250.501s88.5 78.5 164.5 78.5c34.667 0 72.5 -8.16699 113.5 -24.5s79.333 -32.666 115 -48.999s63.5 -24.5 83.5 -24.5
c19.333 0 33.833 8.16699 43.5 24.5s18.167 45.166 25.5 86.499h135c-8.66699 -114 -30 -197.5 -64 -250.5s-89 -79.5 -165 -79.5c-34.667 0 -72.5 8.16699 -113.5 24.5s-79.167 32.666 -114.5 48.999s-63 24.5 -83 24.5c-18.667 0 -33.167 -8.33301 -43.5 -25
s-19.166 -45 -26.499 -85h-135z" />
    <glyph glyph-name="ograve" unicode="&#xf2;" 
d="M575 -20c-153.333 0 -277.999 45.5 -373.999 136.5s-144 210.5 -144 358.5c0 146.667 49.5 267.667 148.5 363s223.167 143 372.5 143c152 0 276 -45.833 372 -137.5s144 -211.167 144 -358.5s-49.333 -268.333 -148 -363s-222.334 -142 -371.001 -142zM582.001 119
c65.333 0 112.333 28.167 141 84.5s43 148.833 43 277.5c0 127.333 -16 219.333 -48 276s-81.667 85 -149 85c-64.667 0 -111.5 -28.333 -140.5 -85s-43.5 -149.334 -43.5 -278.001c0 -127.333 16.167 -219.166 48.5 -275.499s81.833 -84.5 148.5 -84.5zM668.001 1096
h-132.998l-152 135c-43.333 38 -74.333 70 -93 96s-28 55.333 -28 88c0 32 12.667 60.5 38 85.5s55.666 37.5 90.999 37.5c44.667 0 80.167 -16.5 106.5 -49.5s53.166 -84.833 80.499 -155.5z" />
    <glyph glyph-name="oacute" unicode="&#xf3;" 
d="M487 1096l91.001 237c27.333 70.667 54 122.5 80 155.5s61.333 49.5 106 49.5c35.333 0 65.666 -12.5 90.999 -37.5s38 -53.5 38 -85.5c0 -32.667 -9.16699 -62 -27.5 -88s-48.833 -58 -91.5 -96l-153 -135h-134zM575.001 -20c-153.333 0 -277.999 45.5 -373.999 136.5
s-144 210.5 -144 358.5c0 146.667 49.5 267.667 148.5 363s223.167 143 372.5 143c152 0 276 -45.833 372 -137.5s144 -211.167 144 -358.5s-49.333 -268.333 -148 -363s-222.334 -142 -371.001 -142zM582.002 119c65.333 0 112.333 28.167 141 84.5s43 148.833 43 277.5
c0 127.333 -16 219.333 -48 276s-81.667 85 -149 85c-64.667 0 -111.5 -28.333 -140.5 -85s-43.5 -149.334 -43.5 -278.001c0 -127.333 16.167 -219.166 48.5 -275.499s81.833 -84.5 148.5 -84.5z" />
    <glyph glyph-name="ocircumflex" unicode="&#xf4;" 
d="M240 1096l254 403h165l250 -403h-174l-164 176l-157 -176h-174zM575 -20c-153.333 0 -277.999 45.5 -373.999 136.5s-144 210.5 -144 358.5c0 146.667 49.5 267.667 148.5 363s223.167 143 372.5 143c152 0 276 -45.833 372 -137.5s144 -211.167 144 -358.5
s-49.333 -268.333 -148 -363s-222.334 -142 -371.001 -142zM582.001 119c65.333 0 112.333 28.167 141 84.5s43 148.833 43 277.5c0 127.333 -16 219.333 -48 276s-81.667 85 -149 85c-64.667 0 -111.5 -28.333 -140.5 -85s-43.5 -149.334 -43.5 -278.001
c0 -127.333 16.167 -219.166 48.5 -275.499s81.833 -84.5 148.5 -84.5z" />
    <glyph glyph-name="otilde" unicode="&#xf5;" 
d="M575 -20c-153.333 0 -277.999 45.5 -373.999 136.5s-144 210.5 -144 358.5c0 146.667 49.5 267.667 148.5 363s223.167 143 372.5 143c152 0 276 -45.833 372 -137.5s144 -211.167 144 -358.5s-49.333 -268.333 -148 -363s-222.334 -142 -371.001 -142zM582.001 119
c65.333 0 112.333 28.167 141 84.5s43 148.833 43 277.5c0 127.333 -16 219.333 -48 276s-81.667 85 -149 85c-64.667 0 -111.5 -28.333 -140.5 -85s-43.5 -149.334 -43.5 -278.001c0 -127.333 16.167 -219.166 48.5 -275.499s81.833 -84.5 148.5 -84.5zM203.001 1090
c9.33301 114.667 30.832 198.166 64.499 250.499s88.5 78.5 164.5 78.5c34.667 0 72.5 -8.16699 113.5 -24.5s79.167 -32.666 114.5 -48.999s63 -24.5 83 -24.5c19.333 0 34 8.33301 44 25s18.667 45.334 26 86.001h135c-8.66699 -114 -30 -197.5 -64 -250.5
s-89 -79.5 -165 -79.5c-34.667 0 -72.5 8.16699 -113.5 24.5s-79.167 32.666 -114.5 48.999s-63 24.5 -83 24.5c-18.667 0 -33.167 -8.33301 -43.5 -25s-19.166 -45 -26.499 -85h-135z" />
    <glyph glyph-name="odieresis" unicode="&#xf6;" 
d="M780 1102c-46.667 0 -84.832 14.5 -114.499 43.5s-44.5 66.167 -44.5 111.5c0 44.667 15.167 82.5 45.5 113.5s68.166 46.5 113.499 46.5c46.667 0 84.667 -14.667 114 -44s44 -66.333 44 -111s-15 -82.5 -45 -113.5s-67.667 -46.5 -113 -46.5zM369.002 1102
c-46.667 0 -85.001 14.5 -115.001 43.5s-45 66.167 -45 111.5c0 44.667 15.333 82.5 46 113.5s68.667 46.5 114 46.5c46.667 0 84.834 -14.667 114.501 -44s44.5 -66.333 44.5 -111s-15 -82.5 -45 -113.5s-68 -46.5 -114 -46.5zM575.001 -20
c-153.333 0 -277.999 45.5 -373.999 136.5s-144 210.5 -144 358.5c0 146.667 49.5 267.667 148.5 363s223.167 143 372.5 143c152 0 276 -45.833 372 -137.5s144 -211.167 144 -358.5s-49.333 -268.333 -148 -363s-222.334 -142 -371.001 -142zM582.002 119
c65.333 0 112.333 28.167 141 84.5s43 148.833 43 277.5c0 127.333 -16 219.333 -48 276s-81.667 85 -149 85c-64.667 0 -111.5 -28.333 -140.5 -85s-43.5 -149.334 -43.5 -278.001c0 -127.333 16.167 -219.166 48.5 -275.499s81.833 -84.5 148.5 -84.5z" />
    <glyph glyph-name="divide" unicode="&#xf7;" horiz-adv-x="1062" 
d="M535 1067c42 0 78 -14.667 108 -44s45 -64.333 45 -105c0 -41.333 -15.333 -77 -46 -107s-68 -45 -112 -45c-42 0 -78 14.667 -108 44s-45 64.333 -45 105c0 42 15.333 77.833 46 107.5s68 44.5 112 44.5zM979 502h-895v164h895v-164zM535 399
c42 0 78 -14.666 108 -43.999s45 -64.333 45 -105c0 -42 -15.333 -77.833 -46 -107.5s-68 -44.5 -112 -44.5c-42 0 -78 14.667 -108 44s-45 64.666 -45 105.999s15.333 76.833 46 106.5s68 44.5 112 44.5z" />
    <glyph glyph-name="oslash" unicode="&#xf8;" 
d="M236 -57h-181.001l144 178c-94.667 92.667 -142 212.667 -142 360c0 95.333 22.667 181.333 68 258s107.333 136.167 186 178.5s166 63.5 262 63.5c100 0 189 -21 267 -63l78 100h178l-144 -182c94.667 -94.667 142 -213.667 142 -357
c0 -145.333 -49 -264.833 -147 -358.5s-221 -140.5 -369 -140.5c-97.333 0 -185.666 20.333 -264.999 61zM581.999 113c69.333 0 120 29.167 152 87.5s48 151.833 48 280.5c0 56 -3.33301 108 -10 156l-344 -457c30 -44.667 81.333 -67 154 -67zM370.999 479
c0 -65.333 2.66602 -117 7.99902 -155l346 454c-32.667 45.333 -84.667 68 -156 68c-69.333 0 -119.666 -29 -150.999 -87s-47 -151.333 -47 -280z" />
    <glyph glyph-name="ugrave" unicode="&#xf9;" horiz-adv-x="1267" 
d="M459 -18c-97.333 0 -169.499 30 -216.499 90s-70.5 141.667 -70.5 245v471h-139v170h438v-600c0 -66 14.333 -114.333 43 -145c22 -22 52.667 -33 92 -33c47.333 0 89.166 22.5 125.499 67.5s54.5 101.167 54.5 168.5v372h-141v170h440v-788h140v-170h-420v252
c-76.667 -180 -192 -270 -346 -270zM700.001 1096h-132.999l-151 135c-43.333 38 -74.333 70 -93 96s-28 55.333 -28 88c0 32 12.667 60.5 38 85.5s55.666 37.5 90.999 37.5c44.667 0 80 -16.5 106 -49.5s52.667 -84.833 80 -155.5z" />
    <glyph glyph-name="uacute" unicode="&#xfa;" horiz-adv-x="1267" 
d="M520 1096l90.002 237c27.333 70.667 54.166 122.5 80.499 155.5s61.833 49.5 106.5 49.5c35.333 0 65.666 -12.5 90.999 -37.5s38 -53.5 38 -85.5c0 -32.667 -9.16699 -62 -27.5 -88s-48.833 -58 -91.5 -96l-154 -135h-133zM459.002 -18
c-97.333 0 -169.499 30 -216.499 90s-70.5 141.667 -70.5 245v471h-139v170h438v-600c0 -66 14.333 -114.333 43 -145c22 -22 52.667 -33 92 -33c47.333 0 89.166 22.5 125.499 67.5s54.5 101.167 54.5 168.5v372h-141v170h440v-788h140v-170h-420v252
c-76.667 -180 -192 -270 -346 -270z" />
    <glyph glyph-name="ucircumflex" unicode="&#xfb;" horiz-adv-x="1267" 
d="M270 1096l254 403h166l250 -403h-174l-164 176l-158 -176h-174zM459 -18c-97.333 0 -169.499 30 -216.499 90s-70.5 141.667 -70.5 245v471h-139v170h438v-600c0 -66 14.333 -114.333 43 -145c22 -22 52.667 -33 92 -33c47.333 0 89.166 22.5 125.499 67.5
s54.5 101.167 54.5 168.5v372h-141v170h440v-788h140v-170h-420v252c-76.667 -180 -192 -270 -346 -270z" />
    <glyph glyph-name="udieresis" unicode="&#xfc;" horiz-adv-x="1267" 
d="M811 1102c-46.667 0 -85 14.5 -115 43.5s-45 66.167 -45 111.5c0 44.667 15.333 82.5 46 113.5s68.667 46.5 114 46.5c46.667 0 84.667 -14.667 114 -44s44 -66.333 44 -111s-15 -82.5 -45 -113.5s-67.667 -46.5 -113 -46.5zM399 1102
c-46.667 0 -84.832 14.5 -114.499 43.5s-44.5 66.167 -44.5 111.5c0 44.667 15.167 82.5 45.5 113.5s68.166 46.5 113.499 46.5c46.667 0 85 -14.667 115 -44s45 -66.333 45 -111s-15.167 -82.5 -45.5 -113.5s-68.5 -46.5 -114.5 -46.5zM459.002 -18
c-97.333 0 -169.499 30 -216.499 90s-70.5 141.667 -70.5 245v471h-139v170h438v-600c0 -66 14.333 -114.333 43 -145c22 -22 52.667 -33 92 -33c47.333 0 89.166 22.5 125.499 67.5s54.5 101.167 54.5 168.5v372h-141v170h440v-788h140v-170h-420v252
c-76.667 -180 -192 -270 -346 -270z" />
    <glyph glyph-name="yacute" unicode="&#xfd;" 
d="M182 29c48.667 0 86.501 -15.999 113.501 -47.999s40.5 -70 40.5 -114c0 -28 -5.66699 -53.333 -17 -76c44 5.33301 80.333 21.5 109 48.5s57.334 75.167 86.001 144.5l-385 804h-127v170h600v-170h-145l215 -501l192 501h-121v170h420v-170h-116l-328 -761
c-26.667 -62 -52.834 -114.833 -78.501 -158.5s-55.5 -83.167 -89.5 -118.5s-72.667 -61.833 -116 -79.5s-92 -26.5 -146 -26.5c-84.667 0 -149.834 19.667 -195.501 59s-68.5 90.666 -68.5 153.999c0 48.667 14.667 89.5 44 122.5s67 49.5 113 49.5zM530.001 1096
l91.001 237c27.333 70.667 54 122.5 80 155.5s61.333 49.5 106 49.5c35.333 0 65.666 -12.5 90.999 -37.5s38 -53.5 38 -85.5c0 -32.667 -9.16699 -62 -27.5 -88s-48.833 -58 -91.5 -96l-153 -135h-134z" />
    <glyph glyph-name="thorn" unicode="&#xfe;" horiz-adv-x="1187" 
d="M6 -330l-0.00195312 169.999h139v1399h-139v174h440v-645c30.667 66.667 71.834 118.834 123.501 156.501s112.5 56.5 182.5 56.5c96.667 0 177.667 -32.667 243 -98c87.333 -87.333 131 -221.333 131 -402c0 -74.667 -12 -145.667 -36 -213s-57.667 -123.333 -101 -168
c-66.667 -66.667 -150.667 -100 -252 -100c-68 -0 -127.167 14.333 -177.5 43s-88.166 67 -113.499 115v-318h177v-170h-617zM638.998 159.999c110.667 0 166 107.667 166 323c0 205.333 -57.333 308 -172 308c-63.333 0 -113.333 -30.333 -150 -91s-55 -137 -55 -229
c0 -93.333 18.667 -168.5 56 -225.5s89 -85.5 155 -85.5z" />
    <glyph glyph-name="ydieresis" unicode="&#xff;" 
d="M182 29c48.667 0 86.501 -15.999 113.501 -47.999s40.5 -70 40.5 -114c0 -28 -5.66699 -53.333 -17 -76c44 5.33301 80.333 21.5 109 48.5s57.334 75.167 86.001 144.5l-385 804h-127v170h600v-170h-145l215 -501l192 501h-121v170h420v-170h-116l-328 -761
c-26.667 -62 -52.834 -114.833 -78.501 -158.5s-55.5 -83.167 -89.5 -118.5s-72.667 -61.833 -116 -79.5s-92 -26.5 -146 -26.5c-84.667 0 -149.834 19.667 -195.501 59s-68.5 90.666 -68.5 153.999c0 48.667 14.667 89.5 44 122.5s67 49.5 113 49.5zM412.001 1102
c-46.667 0 -85.001 14.5 -115.001 43.5s-45 66.167 -45 111.5c0 44.667 15.333 82.5 46 113.5s68.667 46.5 114 46.5c46.667 0 84.834 -14.667 114.501 -44s44.5 -66.333 44.5 -111s-15 -82.5 -45 -113.5s-68 -46.5 -114 -46.5zM823 1102
c-46.667 0 -84.832 14.5 -114.499 43.5s-44.5 66.167 -44.5 111.5c0 44.667 15.167 82.5 45.5 113.5s68.166 46.5 113.499 46.5c46.667 0 84.667 -14.667 114 -44s44 -66.333 44 -111s-15 -82.5 -45 -113.5s-67.667 -46.5 -113 -46.5z" />
    <glyph glyph-name="Amacron" unicode="&#x100;" horiz-adv-x="1503" 
d="M975 178l-86 252h-461l-86 -252h170v-178h-518v178h147l434 1178h336l428 -1178h160v-178h-706v178h182zM440 1503v201h613v-201h-613zM657 1096l-174 -504h353l-170 504h-9z" />
    <glyph glyph-name="amacron" unicode="&#x101;" horiz-adv-x="1122" 
d="M352 -18c-86 0 -156.335 23.168 -211.002 69.501s-82 107.833 -82 184.5c0 64.667 22.667 119.667 68 165c33.333 33.333 79.5 60.666 138.5 81.999s145.167 39.333 258.5 54c58 8 93 14.167 105 18.5s18 12.5 18 24.5v84c0 60 -14.167 102.833 -42.5 128.5
s-72.833 38.5 -133.5 38.5c-43.333 0 -84.333 -8 -123 -24c32.667 -24 49 -59 49 -105c0 -36 -13.667 -66.167 -41 -90.5s-62 -36.5 -104 -36.5c-49.333 0 -87.666 13.833 -114.999 41.5s-41 61.834 -41 102.501c0 56 21.833 104.167 65.5 144.5s99.167 69.666 166.5 87.999
s141.666 27.5 222.999 27.5c260.667 0 391 -111.333 391 -334v-436c0 -22 4 -37 12 -45s21 -12 39 -12c26.667 0 48 30.667 64 92l100 -33c-19.333 -79.333 -49.166 -137.333 -89.499 -174s-94.5 -55 -162.5 -55c-61.333 0 -112.166 16.667 -152.499 50s-64.5 84 -72.5 152
h-10c-56.667 -134.667 -162.667 -202 -318 -202zM491.998 156.001c46 0 83.333 19.499 112 58.499s43 89.167 43 150.5v94c-5.33301 -1.33301 -17.5 -3.66602 -36.5 -6.99902l-55.5 -10c-71.333 -12 -120.833 -30.5 -148.5 -55.5s-41.5 -60.833 -41.5 -107.5
c0 -36 10.5 -65.5 31.5 -88.5s52.833 -34.5 95.5 -34.5zM241.998 1106v201h612v-201h-612z" />
    <glyph glyph-name="Abreve" unicode="&#x102;" horiz-adv-x="1503" 
d="M975 178l-86 252h-461l-86 -252h170v-178h-518v178h147l434 1178h336l428 -1178h160v-178h-706v178h182zM745 1489c-102.667 0 -181.667 31.667 -237 95s-82 157.333 -80 282h141c18 -116 77.667 -174 179 -174c99.333 0 158 58 176 174h141
c2 -124.667 -25 -218.667 -81 -282s-135.667 -95 -239 -95zM657 1096l-174 -504h353l-170 504h-9z" />
    <glyph glyph-name="abreve" unicode="&#x103;" horiz-adv-x="1122" 
d="M352 -18c-86 0 -156.335 23.168 -211.002 69.501s-82 107.833 -82 184.5c0 64.667 22.667 119.667 68 165c33.333 33.333 79.5 60.666 138.5 81.999s145.167 39.333 258.5 54c58 8 93 14.167 105 18.5s18 12.5 18 24.5v84c0 60 -14.167 102.833 -42.5 128.5
s-72.833 38.5 -133.5 38.5c-43.333 0 -84.333 -8 -123 -24c32.667 -24 49 -59 49 -105c0 -36 -13.667 -66.167 -41 -90.5s-62 -36.5 -104 -36.5c-49.333 0 -87.666 13.833 -114.999 41.5s-41 61.834 -41 102.501c0 56 21.833 104.167 65.5 144.5s99.167 69.666 166.5 87.999
s141.666 27.5 222.999 27.5c260.667 0 391 -111.333 391 -334v-436c0 -22 4 -37 12 -45s21 -12 39 -12c26.667 0 48 30.667 64 92l100 -33c-19.333 -79.333 -49.166 -137.333 -89.499 -174s-94.5 -55 -162.5 -55c-61.333 0 -112.166 16.667 -152.499 50s-64.5 84 -72.5 152
h-10c-56.667 -134.667 -162.667 -202 -318 -202zM491.998 156.001c46 0 83.333 19.499 112 58.499s43 89.167 43 150.5v94c-5.33301 -1.33301 -17.5 -3.66602 -36.5 -6.99902l-55.5 -10c-71.333 -12 -120.833 -30.5 -148.5 -55.5s-41.5 -60.833 -41.5 -107.5
c0 -36 10.5 -65.5 31.5 -88.5s52.833 -34.5 95.5 -34.5zM546.998 1092c-102.667 0 -181.833 31.5 -237.5 94.5s-82.5 156.833 -80.5 281.5h142c18 -116 77.333 -174 178 -174c99.333 0 158 58 176 174h141c2 -124.667 -24.833 -218.5 -80.5 -281.5
s-135.167 -94.5 -238.5 -94.5z" />
    <glyph glyph-name="Aogonek" unicode="&#x104;" horiz-adv-x="1503" 
d="M1161 -512c-80 0 -141.669 19.332 -185.002 57.999s-65 87.667 -65 147c0 40.667 9.16699 78.5 27.5 113.5s41.833 66 70.5 93s68.334 58.5 119.001 94.5l9 6h-344v178h182l-86 252h-461l-86 -252h170v-178h-518v178h147l434 1178h336l428 -1178h160v-178h-182l-27 -25
c-56 -50.667 -94.833 -93.5 -116.5 -128.5s-32.5 -68.5 -32.5 -100.5c0 -31.333 9.66699 -56.166 29 -74.499s47 -27.5 83 -27.5c36.667 0 77 13 121 39l49 -107c-91.333 -58.667 -178.666 -88 -261.999 -88zM656.998 1096l-174 -504h353l-170 504h-9z" />
    <glyph glyph-name="aogonek" unicode="&#x105;" horiz-adv-x="1122" 
d="M872 -512c-80 0 -141.499 19.3301 -184.499 57.9971s-64.5 87.667 -64.5 147c0 57.333 16.167 107.833 48.5 151.5s85.5 92.834 159.5 147.501c-42 10.667 -76.167 32 -102.5 64s-42.5 74.667 -48.5 128h-10c-56.667 -134.667 -162.667 -202 -318 -202
c-86 0 -156.333 23.167 -211 69.5s-82 107.833 -82 184.5c0 31.333 7.16699 63 21.5 95s34.5 59 60.5 81c35.333 30.667 81.833 55.834 139.5 75.501s142.5 36.834 254.5 51.501c65.333 9.33301 102.666 19.333 111.999 30v95c0 60 -14.167 102.833 -42.5 128.5
s-72.833 38.5 -133.5 38.5c-43.333 0 -84.333 -8 -123 -24c32.667 -24 49 -59 49 -105c0 -36 -13.667 -66.167 -41 -90.5s-62 -36.5 -104 -36.5c-49.333 0 -87.666 13.833 -114.999 41.5s-41 61.834 -41 102.501c0 56 21.833 104.167 65.5 144.5s99.167 69.666 166.5 87.999
s141.666 27.5 222.999 27.5c260.667 0 391 -111.333 391 -334v-436c0 -22 4 -37 12 -45s21 -12 39 -12c26.667 0 48 30.667 64 92l100 -33c-10 -45.333 -23.167 -82.5 -39.5 -111.5s-38.5 -56.167 -66.5 -81.5c-78.667 -67.333 -131.5 -120.833 -158.5 -160.5
s-40.5 -76.834 -40.5 -111.501c0 -31.333 9.5 -56.166 28.5 -74.499s46.5 -27.5 82.5 -27.5c37.333 0 78 13 122 39l48 -107c-91.333 -58.667 -178.333 -88 -261 -88zM492.001 155.997c46 0 83.3311 19.5 111.998 58.5s43 89.167 43 150.5v94
c-4.66699 -2 -10.667 -3.66699 -18 -5s-18.166 -3 -32.499 -5s-28.166 -4.33301 -41.499 -7c-71.333 -12 -120.833 -30.5 -148.5 -55.5s-41.5 -60.833 -41.5 -107.5c0 -36 10.5 -65.5 31.5 -88.5s52.833 -34.5 95.5 -34.5z" />
    <glyph glyph-name="Cacute" unicode="&#x106;" horiz-adv-x="1423" 
d="M651 1493l90.002 237.999c27.333 70.667 54.166 122.334 80.499 155.001s61.833 49 106.5 49c35.333 0 65.666 -12.5 90.999 -37.5s38 -53.5 38 -85.5c0 -32.667 -9.16699 -62 -27.5 -88s-48.833 -58 -91.5 -96l-154 -135h-133zM764.002 -33.001
c-208.667 0 -375.833 64.1689 -501.5 192.502s-188.5 297.166 -188.5 506.499c0 102.667 17.5 198.667 52.5 288s82 165 141 227s128.167 110.667 207.5 146s162.666 53 249.999 53c168.667 0 296.334 -53 383.001 -159l43 155h184v-536h-202
c-41.333 125.333 -91.833 218.666 -151.5 279.999s-131.5 92 -215.5 92c-218.667 0 -328 -175.333 -328 -526c0 -179.333 32.333 -311.833 97 -397.5s156.667 -128.5 276 -128.5c98 0 177 33.833 237 101.5s99 160.167 117 277.5h197
c-18 -178.667 -77.667 -318.667 -179 -420s-241 -152 -419 -152z" />
    <glyph glyph-name="cacute" unicode="&#x107;" horiz-adv-x="1050" 
d="M485 1096l90.002 237c27.333 70.667 54.166 122.5 80.499 155.5s61.833 49.5 106.5 49.5c35.333 0 65.666 -12.5 90.999 -37.5s38 -53.5 38 -85.5c0 -32.667 -9.16699 -62 -27.5 -88s-48.833 -58 -91.5 -96l-154 -135h-133zM575.002 -20
c-161.333 0 -288.002 44 -380.002 132s-138 205 -138 351c0 154 49.167 278.833 147.5 374.5s225.5 143.5 381.5 143.5c66 0 126.333 -9.33301 181 -28s98.834 -43.167 132.501 -73.5s59.5 -63.5 77.5 -99.5s27 -72.667 27 -110c0 -52.667 -14.333 -95.167 -43 -127.5
s-69 -48.5 -121 -48.5c-48 0 -85.667 14 -113 42s-41 62.333 -41 103c0 31.333 8.5 58.5 25.5 81.5s37.167 38.833 60.5 47.5c-34.667 44 -87.334 66 -158.001 66c-69.333 0 -125.833 -31.167 -169.5 -93.5s-65.5 -147.5 -65.5 -255.5c0 -102.667 20.667 -183.5 62 -242.5
s101.333 -88.5 180 -88.5c108.667 0 183.667 58.667 225 176h160c-23.333 -107.333 -71.666 -192.5 -144.999 -255.5s-168.666 -94.5 -285.999 -94.5z" />
    <glyph glyph-name="Cdotaccent" unicode="&#x10a;" horiz-adv-x="1423" 
d="M764 -33c-208.667 0 -375.833 64.1689 -501.5 192.502s-188.5 297.166 -188.5 506.499c0 102.667 17.5 198.667 52.5 288s82 165 141 227s128.167 110.667 207.5 146s162.666 53 249.999 53c168.667 0 296.334 -53 383.001 -159l43 155h184v-536h-202
c-41.333 125.333 -91.833 218.666 -151.5 279.999s-131.5 92 -215.5 92c-218.667 0 -328 -175.333 -328 -526c0 -179.333 32.333 -311.833 97 -397.5s156.667 -128.5 276 -128.5c98 0 177 33.833 237 101.5s99 160.167 117 277.5h197
c-18 -178.667 -77.667 -318.667 -179 -420s-241 -152 -419 -152zM737.001 1487c-50.667 0 -92.333 15.333 -125 46s-49 69.334 -49 116.001c0 47.333 16.5 87.166 49.5 119.499s74.5 48.5 124.5 48.5c51.333 0 93.5 -15.333 126.5 -46s49.5 -69.334 49.5 -116.001
c0 -47.333 -16.667 -87.166 -50 -119.499s-75.333 -48.5 -126 -48.5z" />
    <glyph glyph-name="cdotaccent" unicode="&#x10b;" horiz-adv-x="1050" 
d="M575 -20c-161.333 0 -288.002 44 -380.002 132s-138 205 -138 351c0 154 49.167 278.833 147.5 374.5s225.5 143.5 381.5 143.5c66 0 126.333 -9.33301 181 -28s98.834 -43.167 132.501 -73.5s59.5 -63.5 77.5 -99.5s27 -72.667 27 -110
c0 -52.667 -14.333 -95.167 -43 -127.5s-69 -48.5 -121 -48.5c-48 0 -85.667 14 -113 42s-41 62.333 -41 103c0 31.333 8.5 58.5 25.5 81.5s37.167 38.833 60.5 47.5c-34.667 44 -87.334 66 -158.001 66c-69.333 0 -125.833 -31.167 -169.5 -93.5s-65.5 -147.5 -65.5 -255.5
c0 -102.667 20.667 -183.5 62 -242.5s101.333 -88.5 180 -88.5c108.667 0 183.667 58.667 225 176h160c-23.333 -107.333 -71.666 -192.5 -144.999 -255.5s-168.666 -94.5 -285.999 -94.5zM568.998 1090c-50.667 0 -92.333 15.335 -125 46.002s-49 69 -49 115
c0 47.333 16.5 87.166 49.5 119.499s74.5 48.5 124.5 48.5c51.333 0 93.5 -15.333 126.5 -46s49.5 -69.334 49.5 -116.001c0 -47.333 -16.667 -87 -50 -119s-75.333 -48 -126 -48z" />
    <glyph glyph-name="Ccaron" unicode="&#x10c;" horiz-adv-x="1423" 
d="M655 1499l-249 404h174l163 -177l158 177h174l-254 -404h-166zM764 -33c-208.667 0 -375.833 64.1689 -501.5 192.502s-188.5 297.166 -188.5 506.499c0 102.667 17.5 198.667 52.5 288s82 165 141 227s128.167 110.667 207.5 146s162.666 53 249.999 53
c168.667 0 296.334 -53 383.001 -159l43 155h184v-536h-202c-41.333 125.333 -91.833 218.666 -151.5 279.999s-131.5 92 -215.5 92c-218.667 0 -328 -175.333 -328 -526c0 -179.333 32.333 -311.833 97 -397.5s156.667 -128.5 276 -128.5c98 0 177 33.833 237 101.5
s99 160.167 117 277.5h197c-18 -178.667 -77.667 -318.667 -179 -420s-241 -152 -419 -152z" />
    <glyph glyph-name="ccaron" unicode="&#x10d;" horiz-adv-x="1050" 
d="M487 1102l-249 403h174l163 -176l158 176h174l-254 -403h-166zM575 -20c-161.333 0 -288.002 44 -380.002 132s-138 205 -138 351c0 154 49.167 278.833 147.5 374.5s225.5 143.5 381.5 143.5c66 0 126.333 -9.33301 181 -28s98.834 -43.167 132.501 -73.5
s59.5 -63.5 77.5 -99.5s27 -72.667 27 -110c0 -52.667 -14.333 -95.167 -43 -127.5s-69 -48.5 -121 -48.5c-48 0 -85.667 14 -113 42s-41 62.333 -41 103c0 31.333 8.5 58.5 25.5 81.5s37.167 38.833 60.5 47.5c-34.667 44 -87.334 66 -158.001 66
c-69.333 0 -125.833 -31.167 -169.5 -93.5s-65.5 -147.5 -65.5 -255.5c0 -102.667 20.667 -183.5 62 -242.5s101.333 -88.5 180 -88.5c108.667 0 183.667 58.667 225 176h160c-23.333 -107.333 -71.666 -192.5 -144.999 -255.5s-168.666 -94.5 -285.999 -94.5z" />
    <glyph glyph-name="Dcaron" unicode="&#x10e;" horiz-adv-x="1538" 
d="M713 1499l-250 404h174l164 -177l157 177h175l-254 -404h-166zM55 0v178h185v991h-185v179h604c134 0 252.5 -15.833 355.5 -47.5s187.167 -77 252.5 -136s114.5 -129 147.5 -210s49.5 -171.833 49.5 -272.5s-16 -192.167 -48 -274.5s-79.833 -154 -143.5 -215
s-146.5 -108.333 -248.5 -142s-219.333 -50.5 -352 -50.5h-617zM573 174h117c149.333 0 255 37.5 317 112.5s93 206.167 93 393.5c0 178 -32.5 304.833 -97.5 380.5s-173.833 113.5 -326.5 113.5h-103v-1000z" />
    <glyph glyph-name="dcaron" unicode="&#x10f;" horiz-adv-x="1216" 
d="M1292 1108h-106c-12.667 160.667 -19 271.334 -19 332.001c-0.666992 64.667 11.166 112.5 35.499 143.5s57.833 46.5 100.5 46.5c34 0 63.167 -12.167 87.5 -36.5s36.5 -55.833 36.5 -94.5c0 -23.333 -4.16699 -48.333 -12.5 -75s-23.166 -64.334 -44.499 -113.001z
M438 -20c-98.667 0 -181.335 33.335 -248.002 100.002c-87.333 87.333 -131 219 -131 395c0 85.333 12.333 163.166 37 233.499s59 127.166 103 170.499c64.667 68 148.667 102 252 102c124.667 0 220.667 -54.667 288 -164v422h-147v174h446v-1243h138v-170h-418v201
c-29.333 -69.333 -71.166 -123.5 -125.499 -162.5s-119.166 -58.5 -194.499 -58.5zM562.999 156.002c58.667 0 105.832 30 141.499 90s53.5 137.667 53.5 233c0 96 -16.167 173.667 -48.5 233s-81.166 89 -146.499 89c-121.333 0 -182 -109.333 -182 -328
c0 -211.333 60.667 -317 182 -317z" />
    <glyph glyph-name="Dcroat" unicode="&#x110;" horiz-adv-x="1538" 
d="M55 0v178h185v440h-185v168h185v383h-185v179h604c134 0 252.5 -15.833 355.5 -47.5s187.167 -77 252.5 -136s114.5 -129 147.5 -210s49.5 -171.833 49.5 -272.5s-16 -192.167 -48 -274.5s-79.833 -154 -143.5 -215s-146.5 -108.333 -248.5 -142
s-219.333 -50.5 -352 -50.5h-617zM573 174h117c149.333 0 255 37.5 317 112.5s93 206.167 93 393.5c0 178 -32.5 304.833 -97.5 380.5s-173.833 113.5 -326.5 113.5h-103v-388h271v-168h-271v-444z" />
    <glyph glyph-name="dcroat" unicode="&#x111;" horiz-adv-x="1216" 
d="M438 -20c-98.667 0 -181.335 33.333 -248.002 100c-87.333 87.333 -131 216.333 -131 387c0 83.333 12.333 159.5 37 228.5s59 125.167 103 168.5c65.333 68.667 149.333 103 252 103c124.667 0 220.667 -54.667 288 -164v227h-241v133h241v94h-147v156h446v-250h138
v-133h-138v-860h138v-170h-418v201c-29.333 -69.333 -71.166 -123.5 -125.499 -162.5s-119.166 -58.5 -194.499 -58.5zM562.999 156c58.667 0 105.832 29.5 141.499 88.5s53.5 135.167 53.5 228.5c0 92.667 -16.167 168 -48.5 226s-81.166 87 -146.499 87
c-121.333 0 -182 -107 -182 -321c0 -206 60.667 -309 182 -309z" />
    <glyph glyph-name="Emacron" unicode="&#x112;" horiz-adv-x="1447" 
d="M55 0l0.000976562 177.995h185v991h-185v179h1282v-480h-178c-14 69.333 -26.333 121.833 -37 157.5s-25.667 65.834 -45 90.501s-41.666 40.5 -66.999 47.5s-60.333 10.5 -105 10.5h-332v-408h111c20.667 0 37.167 0.666992 49.5 2s24 4.83301 35 10.5
s19.333 11.834 25 18.501s11.334 18.334 17.001 35.001s10.334 33.334 14.001 50.001s8.16699 40.667 13.5 72h159v-546h-159c-12.667 84.667 -27.5 137.834 -44.5 159.501s-53.5 32.5 -109.5 32.5h-111v-426h324c35.333 0 65 2 89 6s45.667 12.167 65 24.5
s34.666 25.833 45.999 40.5s22.166 37.5 32.499 68.5s18.666 61.667 24.999 92s14.166 72.5 23.499 126.5h178v-532h-1301zM463.001 1503v201h612v-201h-612z" />
    <glyph glyph-name="emacron" unicode="&#x113;" horiz-adv-x="1081" 
d="M1022 440l-653 -0.00195312c6 -107.333 30 -183.666 72 -228.999s102.667 -68 182 -68c58.667 0 106.167 13.167 142.5 39.5s65.166 69.166 86.499 128.499h160c-19.333 -104.667 -65.333 -186 -138 -244s-173.667 -87 -303 -87c-158 0 -283.167 44.667 -375.5 134
s-138.5 208.333 -138.5 357c0 96 21.833 182.833 65.5 260.5s104 138.667 181 183s162.833 66.5 257.5 66.5c105.333 0 193.833 -23.667 265.5 -71s123.334 -111.166 155.001 -191.499s45.167 -173.166 40.5 -278.499zM260 1106v201h612v-201h-612zM555 841.998
c-56 0 -99.166 -20.833 -129.499 -62.5s-48.5 -111.834 -54.5 -210.501h358c-4.66699 96.667 -20.834 166.334 -48.501 209.001s-69.5 64 -125.5 64z" />
    <glyph glyph-name="Ebreve" unicode="&#x114;" horiz-adv-x="1447" 
d="M55 0l0.000976562 177.995h185v991h-185v179h1282v-480h-178c-14 69.333 -26.333 121.833 -37 157.5s-25.667 65.834 -45 90.501s-41.666 40.5 -66.999 47.5s-60.333 10.5 -105 10.5h-332v-408h111c20.667 0 37.167 0.666992 49.5 2s24 4.83301 35 10.5
s19.333 11.834 25 18.501s11.334 18.334 17.001 35.001s10.334 33.334 14.001 50.001s8.16699 40.667 13.5 72h159v-546h-159c-12.667 84.667 -27.5 137.834 -44.5 159.501s-53.5 32.5 -109.5 32.5h-111v-426h324c35.333 0 65 2 89 6s45.667 12.167 65 24.5
s34.666 25.833 45.999 40.5s22.166 37.5 32.499 68.5s18.666 61.667 24.999 92s14.166 72.5 23.499 126.5h178v-532h-1301zM768.001 1489c-102.667 0 -181.667 31.667 -237 95s-82 157.333 -80 282h141c18 -116 77.333 -174 178 -174c99.333 0 158 58 176 174h141
c2 -124.667 -24.833 -218.667 -80.5 -282s-135.167 -95 -238.5 -95z" />
    <glyph glyph-name="ebreve" unicode="&#x115;" horiz-adv-x="1081" 
d="M1022 440l-653 -0.00195312c6 -107.333 30 -183.666 72 -228.999s102.667 -68 182 -68c58.667 0 106.167 13.167 142.5 39.5s65.166 69.166 86.499 128.499h160c-19.333 -104.667 -65.333 -186 -138 -244s-173.667 -87 -303 -87c-158 0 -283.167 44.667 -375.5 134
s-138.5 208.333 -138.5 357c0 96 21.833 182.833 65.5 260.5s104 138.667 181 183s162.833 66.5 257.5 66.5c105.333 0 193.833 -23.667 265.5 -71s123.334 -111.166 155.001 -191.499s45.167 -173.166 40.5 -278.499zM563 1092c-102.667 0 -181.667 31.5 -237 94.5
s-82 156.833 -80 281.5h141c18 -116 77.333 -174 178 -174c99.333 0 158 58 176 174h142c2 -124.667 -25 -218.5 -81 -281.5s-135.667 -94.5 -239 -94.5zM555 841.998c-56 0 -99.166 -20.833 -129.499 -62.5s-48.5 -111.834 -54.5 -210.501h358
c-4.66699 96.667 -20.834 166.334 -48.501 209.001s-69.5 64 -125.5 64z" />
    <glyph glyph-name="Edotaccent" unicode="&#x116;" horiz-adv-x="1447" 
d="M55 0l0.000976562 177.995h185v991h-185v179h1282v-480h-178c-14 69.333 -26.333 121.833 -37 157.5s-25.667 65.834 -45 90.501s-41.666 40.5 -66.999 47.5s-60.333 10.5 -105 10.5h-332v-408h111c20.667 0 37.167 0.666992 49.5 2s24 4.83301 35 10.5
s19.333 11.834 25 18.501s11.334 18.334 17.001 35.001s10.334 33.334 14.001 50.001s8.16699 40.667 13.5 72h159v-546h-159c-12.667 84.667 -27.5 137.834 -44.5 159.501s-53.5 32.5 -109.5 32.5h-111v-426h324c35.333 0 65 2 89 6s45.667 12.167 65 24.5
s34.666 25.833 45.999 40.5s22.166 37.5 32.499 68.5s18.666 61.667 24.999 92s14.166 72.5 23.499 126.5h178v-532h-1301zM768.001 1487c-50.667 0 -92.333 15.333 -125 46s-49 69.334 -49 116.001c0 47.333 16.5 87.166 49.5 119.499s74.5 48.5 124.5 48.5
c51.333 0 93.5 -15.333 126.5 -46s49.5 -69.334 49.5 -116.001c0 -47.333 -16.667 -87.166 -50 -119.499s-75.333 -48.5 -126 -48.5z" />
    <glyph glyph-name="edotaccent" unicode="&#x117;" horiz-adv-x="1081" 
d="M1022 440l-653 -0.00195312c6 -107.333 30 -183.666 72 -228.999s102.667 -68 182 -68c58.667 0 106.167 13.167 142.5 39.5s65.166 69.166 86.499 128.499h160c-19.333 -104.667 -65.333 -186 -138 -244s-173.667 -87 -303 -87c-158 0 -283.167 44.667 -375.5 134
s-138.5 208.333 -138.5 357c0 96 21.833 182.833 65.5 260.5s104 138.667 181 183s162.833 66.5 257.5 66.5c105.333 0 193.833 -23.667 265.5 -71s123.334 -111.166 155.001 -191.499s45.167 -173.166 40.5 -278.499zM563 1090c-50.667 0 -92.333 15.335 -125 46.002
s-49 69 -49 115c0 47.333 16.5 87.166 49.5 119.499s74.5 48.5 124.5 48.5c51.333 0 93.5 -15.333 126.5 -46s49.5 -69.334 49.5 -116.001c0 -47.333 -16.667 -87 -50 -119s-75.333 -48 -126 -48zM555.001 842c-56 0 -99.166 -20.833 -129.499 -62.5
s-48.5 -111.834 -54.5 -210.501h358c-4.66699 96.667 -20.834 166.334 -48.501 209.001s-69.5 64 -125.5 64z" />
    <glyph glyph-name="Eogonek" unicode="&#x118;" horiz-adv-x="1447" 
d="M55 0l-0.000976562 177.994h185v991h-185v179h1282v-480h-178c-14 69.333 -26.333 121.833 -37 157.5s-25.667 65.834 -45 90.501s-41.666 40.5 -66.999 47.5s-60.333 10.5 -105 10.5h-332v-408h111c20.667 0 37.167 0.666992 49.5 2s24 4.83301 35 10.5
s19.333 11.834 25 18.501s11.334 18.334 17.001 35.001s10.334 33.334 14.001 50.001s8.16699 40.667 13.5 72h159v-546h-159c-12.667 84.667 -27.5 137.834 -44.5 159.501s-53.5 32.5 -109.5 32.5h-111v-426h324c35.333 0 65 2 89 6s45.667 12.167 65 24.5
s34.666 25.833 45.999 40.5s22.166 37.5 32.499 68.5s18.666 61.667 24.999 92s14.166 72.5 23.499 126.5h178v-532h-127l-27 -25c-56 -50.667 -94.833 -93.5 -116.5 -128.5s-32.5 -68.5 -32.5 -100.5c0 -31.333 9.66699 -56.166 29 -74.499s47 -27.5 83 -27.5
c36.667 0 77 13 121 39l49 -107c-91.333 -58.667 -178.666 -88 -261.999 -88c-80 0 -141.667 19.333 -185 58s-65 87.667 -65 147c0 40.667 9.16699 78.5 27.5 113.5s41.833 66 70.5 93s68.334 58.5 119.001 94.5l9 6h-994z" />
    <glyph glyph-name="eogonek" unicode="&#x119;" horiz-adv-x="1081" 
d="M1022 440l-653.001 -0.00585938c6 -107.333 30 -183.666 72 -228.999s102.667 -68 182 -68c58.667 0 106.167 13.167 142.5 39.5s65.166 69.166 86.499 128.499h160c-13.333 -62 -33 -114.167 -59 -156.5s-63.667 -86.166 -113 -131.499l-52 -52
c-56 -50.667 -94.5 -93 -115.5 -127s-31.5 -66.667 -31.5 -98s9.66699 -56.166 29 -74.499s47.333 -27.5 84 -27.5c36 0 76 13 120 39l50 -107c-91.333 -58.667 -178.666 -88 -261.999 -88c-80 0 -141.667 19.333 -185 58s-65 87.667 -65 147
c0 52.667 13.5 98.834 40.5 138.501s70.167 82.834 129.5 129.501l22 19h-14c-168.667 0 -299.667 44.833 -393 134.5s-140 208.5 -140 356.5c0 96 21.833 182.833 65.5 260.5s104 138.667 181 183s162.833 66.5 257.5 66.5c105.333 0 193.833 -23.667 265.5 -71
s123.334 -111.166 155.001 -191.499s45.167 -173.166 40.5 -278.499zM554.999 841.994c-56 0 -99.166 -20.833 -129.499 -62.5s-48.5 -111.834 -54.5 -210.501h358c-4.66699 96.667 -20.834 166.334 -48.501 209.001s-69.5 64 -125.5 64z" />
    <glyph glyph-name="Ecaron" unicode="&#x11a;" horiz-adv-x="1447" 
d="M686 1499l-250 404h174l164 -177l158 177h174l-254 -404h-166zM55 0l0.000976562 177.995h185v991h-185v179h1282v-480h-178c-14 69.333 -26.333 121.833 -37 157.5s-25.667 65.834 -45 90.501s-41.666 40.5 -66.999 47.5s-60.333 10.5 -105 10.5h-332v-408h111
c20.667 0 37.167 0.666992 49.5 2s24 4.83301 35 10.5s19.333 11.834 25 18.501s11.334 18.334 17.001 35.001s10.334 33.334 14.001 50.001s8.16699 40.667 13.5 72h159v-546h-159c-12.667 84.667 -27.5 137.834 -44.5 159.501s-53.5 32.5 -109.5 32.5h-111v-426h324
c35.333 0 65 2 89 6s45.667 12.167 65 24.5s34.666 25.833 45.999 40.5s22.166 37.5 32.499 68.5s18.666 61.667 24.999 92s14.166 72.5 23.499 126.5h178v-532h-1301z" />
    <glyph glyph-name="ecaron" unicode="&#x11b;" horiz-adv-x="1081" 
d="M1022 440l-653 -0.00195312c6 -107.333 30 -183.666 72 -228.999s102.667 -68 182 -68c58.667 0 106.167 13.167 142.5 39.5s65.166 69.166 86.499 128.499h160c-19.333 -104.667 -65.333 -186 -138 -244s-173.667 -87 -303 -87c-158 0 -283.167 44.667 -375.5 134
s-138.5 208.333 -138.5 357c0 96 21.833 182.833 65.5 260.5s104 138.667 181 183s162.833 66.5 257.5 66.5c105.333 0 193.833 -23.667 265.5 -71s123.334 -111.166 155.001 -191.499s45.167 -173.166 40.5 -278.499zM481 1102l-250 403h175l163 -176l158 176h174
l-254 -403h-166zM555 841.998c-56 0 -99.166 -20.833 -129.499 -62.5s-48.5 -111.834 -54.5 -210.501h358c-4.66699 96.667 -20.834 166.334 -48.501 209.001s-69.5 64 -125.5 64z" />
    <glyph glyph-name="Gbreve" unicode="&#x11e;" horiz-adv-x="1538" 
d="M1098 186c-77.333 -146 -203.001 -218.999 -377.001 -218.999c-124 0 -235.167 29.5 -333.5 88.5s-175.166 142.167 -230.499 249.5s-83 229.666 -83 366.999c0 99.333 18 193.333 54 282s84 163.834 144 225.501s130 110.5 210 146.5s163 54 249 54
c163.333 0 288.333 -56 375 -168l43 164h186v-524h-227c-39.333 123.333 -86.5 214.166 -141.5 272.499s-121.833 87.5 -200.5 87.5c-99.333 0 -178.833 -43.333 -238.5 -130s-89.5 -218.667 -89.5 -396c0 -171.333 28.5 -303.166 85.5 -395.499
s141.167 -138.5 252.5 -138.5c78 0 141 30 189 90c43.333 51.333 65 131.666 65 240.999v37h-225v178h711v-178h-156v-536h-184zM747.999 1489c-102.667 0 -181.833 31.667 -237.5 95s-82.5 157.333 -80.5 282h141c18 -116 77.667 -174 179 -174c99.333 0 158 58 176 174
h141c2 -124.667 -24.833 -218.667 -80.5 -282s-135.167 -95 -238.5 -95z" />
    <glyph glyph-name="gbreve" unicode="&#x11f;" horiz-adv-x="1067" 
d="M928 674c0 -99.333 -35.6699 -175.668 -107.003 -229.001s-173.666 -80 -306.999 -80c-14 0 -36.333 0.666992 -67 2s-52 2 -64 2c-28.667 0 -52.167 -6.66699 -70.5 -20s-27.5 -29.333 -27.5 -48c0 -45.333 49 -68 147 -68h264c121.333 0 210.833 -22.667 268.5 -68
s86.5 -108 86.5 -188c0 -102 -48.5 -183 -145.5 -243s-245.167 -90 -444.5 -90c-151.333 0 -264.333 18.333 -339 55s-112 88 -112 154c0 48 20 88.167 60 120.5s96 52.833 168 61.5v10c-56.667 12 -100 34.167 -130 66.5s-45 68.833 -45 109.5
c0 48.667 22.5 92.334 67.5 131.001s102.5 62 172.5 70c-70.667 18 -125.167 48.167 -163.5 90.5s-57.5 96.833 -57.5 163.5c0 89.333 37.167 162.5 111.5 219.5s176.5 85.5 306.5 85.5c67.333 0 125.333 -6.66699 174 -20c24 67.333 59.833 120.333 107.5 159
s103.167 58 166.5 58c56.667 0 99.834 -14.167 129.501 -42.5s44.5 -62.833 44.5 -103.5c0 -36.667 -11.667 -67 -35 -91s-54.666 -36 -93.999 -36c-35.333 0 -63.5 10.333 -84.5 31s-31.5 46.667 -31.5 78c0 2.66699 0.333008 7 1 13s1 10.333 1 13
c-46 -4.66699 -83 -42.667 -111 -114c106.667 -53.333 160 -137.333 160 -252zM493.997 1120c-102.667 0 -181.833 31.667 -237.5 95s-82.5 157.333 -80.5 282h141c18 -116 77.667 -174 179 -174c99.333 0 158 58 176 174h141c2 -124.667 -24.833 -218.667 -80.5 -282
s-135.167 -95 -238.5 -95zM493.998 -219.002c98.667 0 171.667 11.5 219 34.5s71 54.5 71 94.5c0 56 -53.667 84 -161 84h-246c-54.667 0 -96 -9.16699 -124 -27.5s-42 -42.5 -42 -72.5c0 -75.333 94.333 -113 283 -113zM509.998 466.998c44.667 0 77.333 16.332 98 48.999
s31 83.334 31 152.001c0 134.667 -46.333 202 -139 202c-45.333 0 -78.5 -16.333 -99.5 -49s-31.5 -83.667 -31.5 -153c0 -134 47 -201 141 -201z" />
    <glyph glyph-name="Gdotaccent" unicode="&#x120;" horiz-adv-x="1538" 
d="M1098 186c-77.333 -146 -203.001 -218.999 -377.001 -218.999c-124 0 -235.167 29.5 -333.5 88.5s-175.166 142.167 -230.499 249.5s-83 229.666 -83 366.999c0 99.333 18 193.333 54 282s84 163.834 144 225.501s130 110.5 210 146.5s163 54 249 54
c163.333 0 288.333 -56 375 -168l43 164h186v-524h-227c-39.333 123.333 -86.5 214.166 -141.5 272.499s-121.833 87.5 -200.5 87.5c-99.333 0 -178.833 -43.333 -238.5 -130s-89.5 -218.667 -89.5 -396c0 -171.333 28.5 -303.166 85.5 -395.499
s141.167 -138.5 252.5 -138.5c78 0 141 30 189 90c43.333 51.333 65 131.666 65 240.999v37h-225v178h711v-178h-156v-536h-184zM747.999 1487c-50.667 0 -92.5 15.501 -125.5 46.501s-49.5 69.5 -49.5 115.5c0 47.333 16.667 87.166 50 119.499s75 48.5 125 48.5
c51.333 0 93.5 -15.333 126.5 -46s49.5 -69.334 49.5 -116.001c0 -47.333 -16.667 -87.166 -50 -119.499s-75.333 -48.5 -126 -48.5z" />
    <glyph glyph-name="gdotaccent" unicode="&#x121;" horiz-adv-x="1067" 
d="M928 674c0 -99.333 -35.6699 -175.668 -107.003 -229.001s-173.666 -80 -306.999 -80c-14 0 -36.333 0.666992 -67 2s-52 2 -64 2c-28.667 0 -52.167 -6.66699 -70.5 -20s-27.5 -29.333 -27.5 -48c0 -45.333 49 -68 147 -68h264c121.333 0 210.833 -22.667 268.5 -68
s86.5 -108 86.5 -188c0 -102 -48.5 -183 -145.5 -243s-245.167 -90 -444.5 -90c-151.333 0 -264.333 18.333 -339 55s-112 88 -112 154c0 48 20 88.167 60 120.5s96 52.833 168 61.5v10c-56.667 12 -100 34.167 -130 66.5s-45 68.833 -45 109.5
c0 48.667 22.5 92.334 67.5 131.001s102.5 62 172.5 70c-70.667 18 -125.167 48.167 -163.5 90.5s-57.5 96.833 -57.5 163.5c0 89.333 37.167 162.5 111.5 219.5s176.5 85.5 306.5 85.5c67.333 0 125.333 -6.66699 174 -20c24 67.333 59.833 120.333 107.5 159
s103.167 58 166.5 58c56.667 0 99.834 -14.167 129.501 -42.5s44.5 -62.833 44.5 -103.5c0 -36.667 -11.667 -67 -35 -91s-54.666 -36 -93.999 -36c-35.333 0 -63.5 10.333 -84.5 31s-31.5 46.667 -31.5 78c0 2.66699 0.333008 7 1 13s1 10.333 1 13
c-46 -4.66699 -83 -42.667 -111 -114c106.667 -53.333 160 -137.333 160 -252zM493.997 -219.002c98.667 0 171.667 11.5 219 34.5s71 54.5 71 94.5c0 56 -53.667 84 -161 84h-246c-54.667 0 -96 -9.16699 -124 -27.5s-42 -42.5 -42 -72.5c0 -75.333 94.333 -113 283 -113z
M486.997 1104c-50.667 0 -92.3311 15.333 -124.998 46s-49 69.334 -49 116.001c0 47.333 16.5 87.166 49.5 119.499s74.5 48.5 124.5 48.5c51.333 0 93.666 -15.333 126.999 -46s50 -69.334 50 -116.001c0 -47.333 -16.833 -87.166 -50.5 -119.499
s-75.834 -48.5 -126.501 -48.5zM510 466.998c44.667 0 77.333 16.332 98 48.999s31 83.334 31 152.001c0 134.667 -46.333 202 -139 202c-45.333 0 -78.5 -16.333 -99.5 -49s-31.5 -83.667 -31.5 -153c0 -134 47 -201 141 -201z" />
    <glyph glyph-name="Gcommaaccent" unicode="&#x122;" horiz-adv-x="1538" 
d="M586 -748l-43.001 97.001c72 33.333 126.833 69 164.5 107s59.834 80.667 66.501 128l-14 8c-18.667 -21.333 -44 -32 -76 -32c-36.667 0 -67.334 13 -92.001 39s-37 60 -37 102c0 46.667 16 86.667 48 120s72.667 50 122 50c58.667 0 105.834 -20.333 141.501 -61
s53.5 -96 53.5 -166c0 -182.667 -111.333 -313.334 -334 -392.001zM1098 186.001c-77.333 -146 -203.001 -218.999 -377.001 -218.999c-124 0 -235.167 29.5 -333.5 88.5s-175.166 142.167 -230.499 249.5s-83 229.666 -83 366.999c0 99.333 18 193.333 54 282
s84 163.834 144 225.501s130 110.5 210 146.5s163 54 249 54c163.333 0 288.333 -56 375 -168l43 164h186v-524h-227c-39.333 123.333 -86.5 214.166 -141.5 272.499s-121.833 87.5 -200.5 87.5c-99.333 0 -178.833 -43.333 -238.5 -130s-89.5 -218.667 -89.5 -396
c0 -171.333 28.5 -303.166 85.5 -395.499s141.167 -138.5 252.5 -138.5c78 0 141 30 189 90c43.333 51.333 65 131.666 65 240.999v37h-225v178h711v-178h-156v-536h-184z" />
    <glyph glyph-name="gcommaaccent" unicode="&#x123;" horiz-adv-x="1067" 
d="M928 674c0 -99.333 -35.6699 -175.668 -107.003 -229.001s-173.666 -80 -306.999 -80c-14 0 -36.333 0.666992 -67 2s-52 2 -64 2c-28.667 0 -52.167 -6.66699 -70.5 -20s-27.5 -29.333 -27.5 -48c0 -45.333 49 -68 147 -68h264c121.333 0 210.833 -22.667 268.5 -68
s86.5 -108 86.5 -188c0 -102 -48.5 -183 -145.5 -243s-245.167 -90 -444.5 -90c-151.333 0 -264.333 18.333 -339 55s-112 88 -112 154c0 48 20 88.167 60 120.5s96 52.833 168 61.5v10c-56.667 12 -100 34.167 -130 66.5s-45 68.833 -45 109.5
c0 48.667 22.5 92.334 67.5 131.001s102.5 62 172.5 70c-70.667 18 -125.167 48.167 -163.5 90.5s-57.5 96.833 -57.5 163.5c0 89.333 37.167 162.5 111.5 219.5s176.5 85.5 306.5 85.5c67.333 0 125.333 -6.66699 174 -20c24 67.333 59.833 120.333 107.5 159
s103.167 58 166.5 58c56.667 0 99.834 -14.167 129.501 -42.5s44.5 -62.833 44.5 -103.5c0 -36.667 -11.667 -67 -35 -91s-54.666 -36 -93.999 -36c-35.333 0 -63.5 10.333 -84.5 31s-31.5 46.667 -31.5 78c0 2.66699 0.333008 7 1 13s1 10.333 1 13
c-46 -4.66699 -83 -42.667 -111 -114c106.667 -53.333 160 -137.333 160 -252zM642.997 1722l43.002 -96c-72 -33.333 -126.833 -69 -164.5 -107s-59.834 -80.667 -66.501 -128l14 -9c19.333 22 44.666 33 75.999 33c36.667 0 67.334 -13 92.001 -39s37 -60 37 -102
c0 -46.667 -16 -86.667 -48 -120s-72.667 -50 -122 -50c-58.667 0 -105.834 20.333 -141.501 61s-53.5 96 -53.5 166c0 182 111.333 312.333 334 391zM493.999 -219.002c98.667 0 171.667 11.5 219 34.5s71 54.5 71 94.5c0 56 -53.667 84 -161 84h-246
c-54.667 0 -96 -9.16699 -124 -27.5s-42 -42.5 -42 -72.5c0 -75.333 94.333 -113 283 -113zM509.999 466.998c44.667 0 77.333 16.332 98 48.999s31 83.334 31 152.001c0 134.667 -46.333 202 -139 202c-45.333 0 -78.5 -16.333 -99.5 -49s-31.5 -83.667 -31.5 -153
c0 -134 47 -201 141 -201z" />
    <glyph glyph-name="Hbar" unicode="&#x126;" horiz-adv-x="1671" 
d="M55 881v159h185v129h-185v179h701v-179h-183v-141h527v141h-185v179h703v-179h-184v-129h184v-159h-184v-703h184v-178h-703v178h185v400h-527v-400h183v-178h-701v178h185v703h-185zM573 752h527v143h-527v-143z" />
    <glyph glyph-name="hbar" unicode="&#x127;" horiz-adv-x="1275" 
d="M45 0l0.000976562 170.001h139v860h-139v133h139v76h-139v174h440v-250h240v-133h-240v-301c80 157.333 190 236 330 236c99.333 0 173 -30.167 221 -90.5s72 -142.833 72 -247.5v-457h137v-170h-547v170h109v416c0 68 -14.333 116.333 -43 145
c-25.333 22 -57.333 33 -96 33c-48.667 0 -91.334 -22.333 -128.001 -67s-55 -100.334 -55 -167.001v-360h107v-170h-547z" />
    <glyph glyph-name="Imacron" unicode="&#x12a;" horiz-adv-x="866" 
d="M78 0v178h188v991h-188v179h710v-179h-188v-991h188v-178h-710zM127 1503v201h612v-201h-612z" />
    <glyph glyph-name="imacron" unicode="&#x12b;" horiz-adv-x="706" 
d="M63 0v170h156v618h-156v170h455v-788h156v-170h-611zM27 1106v201h612v-201h-612z" />
    <glyph glyph-name="Ibreve" unicode="&#x12c;" horiz-adv-x="866" 
d="M78 0v178h188v991h-188v179h710v-179h-188v-991h188v-178h-710zM430 1489c-102.667 0 -181.667 31.667 -237 95s-82 157.333 -80 282h141c18 -116 77.333 -174 178 -174c99.333 0 158 58 176 174h142c2 -124.667 -25 -218.667 -81 -282s-135.667 -95 -239 -95z" />
    <glyph glyph-name="ibreve" unicode="&#x12d;" horiz-adv-x="706" 
d="M63 0v170h156v618h-156v170h455v-788h156v-170h-611zM332 1092c-102.667 0 -181.833 31.5 -237.5 94.5s-82.5 156.833 -80.5 281.5h142c18 -116 77.333 -174 178 -174c99.333 0 158 58 176 174h141c2 -124.667 -24.833 -218.5 -80.5 -281.5s-135.167 -94.5 -238.5 -94.5z
" />
    <glyph glyph-name="Iogonek" unicode="&#x12e;" horiz-adv-x="866" 
d="M78 0l-0.00195312 177.999h188v991h-188v179h710v-179h-188v-991h188v-178h-202l-27 -25c-56 -50.667 -94.833 -93.5 -116.5 -128.5s-32.5 -68.5 -32.5 -100.5c0 -31.333 9.66699 -56.166 29 -74.499s47 -27.5 83 -27.5c36.667 0 77 13 121 39l49 -107
c-91.333 -58.667 -178.666 -88 -261.999 -88c-80 0 -141.667 19.333 -185 58s-65 87.667 -65 147c0 40.667 9.16699 78.5 27.5 113.5s41.833 66 70.5 93s68.334 58.5 119.001 94.5l9 6h-328z" />
    <glyph glyph-name="iogonek" unicode="&#x12f;" horiz-adv-x="706" 
d="M63 0l-0.00195312 169.999h156v618h-156v170h455v-788h156v-170h-154l-26 -25c-56 -50.667 -95 -93.5 -117 -128.5s-33 -68.5 -33 -100.5c0 -31.333 9.83301 -56.166 29.5 -74.499s47.5 -27.5 83.5 -27.5c36.667 0 77 13 121 39l49 -107
c-91.333 -58.667 -178.666 -88 -261.999 -88c-80 0 -141.667 19.333 -185 58s-65 87.667 -65 147c0 40.667 9.16699 78.5 27.5 113.5s41.833 66 70.5 93s68.334 58.5 119.001 94.5l8 6h-277zM353.998 1100c-55.333 0 -99.5 15.667 -132.5 47s-49.5 72.333 -49.5 123
s16.833 93 50.5 127s77.5 51 131.5 51c54.667 0 99.167 -16.333 133.5 -49s51.5 -73.667 51.5 -123c0 -50.667 -17.333 -92.667 -52 -126s-79 -50 -133 -50z" />
    <glyph glyph-name="Idotaccent" unicode="&#x130;" horiz-adv-x="866" 
d="M78 0v178h188v991h-188v179h710v-179h-188v-991h188v-178h-710zM430 1487c-50.667 0 -92.333 15.333 -125 46s-49 69.334 -49 116.001c0 47.333 16.5 87.166 49.5 119.499s74.5 48.5 124.5 48.5c51.333 0 93.5 -15.333 126.5 -46s49.5 -69.334 49.5 -116.001
c0 -47.333 -16.667 -87.166 -50 -119.499s-75.333 -48.5 -126 -48.5z" />
    <glyph glyph-name="dotlessi" unicode="&#x131;" horiz-adv-x="706" 
d="M63 0v170h156v618h-156v170h455v-788h156v-170h-611z" />
    <glyph glyph-name="Kcommaaccent" unicode="&#x136;" horiz-adv-x="1538" 
d="M573 455v-279h166v-176h-684v178h185v991h-185v179h693v-177h-175v-503l504 503h-166v177h572v-179h-166l-356 -350l458 -641h146v-178h-684v176h151l-299 434zM633 -748l-43.001 97.001c72 33.333 126.833 69 164.5 107s59.834 80.667 66.501 128l-14 8
c-18.667 -21.333 -44 -32 -76 -32c-36.667 0 -67.334 13 -92.001 39s-37 60 -37 102c0 46.667 16 86.667 48 120s72.667 50 122 50c58.667 0 105.834 -20.333 141.501 -61s53.5 -96 53.5 -166c0 -182.667 -111.333 -313.334 -334 -392.001z" />
    <glyph glyph-name="kcommaaccent" unicode="&#x137;" horiz-adv-x="1220" 
d="M1012 788l-213 -192l315 -426h103v-170h-527v168h107l-189 268l-123 -110v-158h103v-168h-543v170h139v1069h-139v174h440v-919l322 297h-152v167h500v-170h-143zM461 -748l-43.001 97.001c72 33.333 126.833 69 164.5 107s59.834 80.667 66.501 128l-14 8
c-18.667 -21.333 -44 -32 -76 -32c-36.667 0 -67.334 13 -92.001 39s-37 60 -37 102c0 46.667 16 86.667 48 120s72.667 50 122 50c58.667 0 105.834 -20.333 141.501 -61s53.5 -96 53.5 -166c0 -182.667 -111.333 -313.334 -334 -392.001z" />
    <glyph glyph-name="Lacute" unicode="&#x139;" horiz-adv-x="1304" 
d="M328 1493l90.001 237.999c27.333 70.667 54 122.334 80 155.001s61.333 49 106 49c35.333 0 65.666 -12.5 90.999 -37.5s38 -53.5 38 -85.5c0 -32.667 -9.16699 -62 -27.5 -88s-48.833 -58 -91.5 -96l-153 -135h-133zM55.001 1348l721.004 -0.00195312v-174h-203v-1000
h230c29.333 0 53.166 1.33301 71.499 4s36.5 9.33398 54.5 20.001s32.667 23.667 44 39s23.666 38.5 36.999 69.5s25.666 65.333 36.999 103s24.666 86.834 39.999 147.501h162v-557h-1194v178h185v991h-185v179z" />
    <glyph glyph-name="lacute" unicode="&#x13a;" horiz-adv-x="694" 
d="M229 1550l90.002 238c27.333 70.667 54.166 122.5 80.499 155.5s61.833 49.5 106.5 49.5c35.333 0 65.666 -12.5 90.999 -37.5s38 -53.5 38 -85.5c0 -32.667 -9.16699 -62 -27.5 -88s-48.833 -58 -91.5 -96l-154 -136h-133zM41.002 0v170h156v1069h-156v174h457v-1243
h155v-170h-612z" />
    <glyph glyph-name="Lcommaaccent" unicode="&#x13b;" horiz-adv-x="1304" 
d="M520 -748l-43 97.001c72 33.333 127 69 165 107s60.333 80.667 67 128l-15 8c-18.667 -21.333 -44 -32 -76 -32c-36.667 0 -67.334 13 -92.001 39s-37 60 -37 102c0 46.667 16 86.667 48 120s72.667 50 122 50c58.667 0 105.834 -20.333 141.501 -61s53.5 -96 53.5 -166
c0 -182.667 -111.333 -313.334 -334 -392.001zM55 1348l721.004 -0.00195312v-174h-203v-1000h230c29.333 0 53.166 1.33301 71.499 4s36.5 9.33398 54.5 20.001s32.667 23.667 44 39s23.666 38.5 36.999 69.5s25.666 65.333 36.999 103s24.666 86.834 39.999 147.501h162
v-557h-1194v178h185v991h-185v179z" />
    <glyph glyph-name="lcommaaccent" unicode="&#x13c;" horiz-adv-x="694" 
d="M195 -748l-43 97c72 33.333 126.833 69 164.5 107s59.834 80.667 66.501 128l-14 8c-18.667 -21.333 -44 -32 -76 -32c-36.667 0 -67.334 13 -92.001 39s-37 60 -37 102c0 46.667 16 86.667 48 120s72.667 50 122 50c58.667 0 105.667 -20.333 141 -61s53 -96 53 -166
c0 -183.333 -111 -314 -333 -392zM41 0v170h156v1069h-156v174h457v-1243h155v-170h-612z" />
    <glyph glyph-name="Lcaron" unicode="&#x13d;" horiz-adv-x="1304" 
d="M1018 1014l-107 0.000976562c-12 152 -18 262.667 -18 332c-0.666992 64.667 11.166 112.5 35.499 143.5s57.5 46.5 99.5 46.5c34 0 63.333 -12.167 88 -36.5s37 -55.833 37 -94.5c0 -23.333 -4.16699 -48.333 -12.5 -75s-23.166 -64.334 -44.499 -113.001zM55 1348
l721.004 -0.00195312v-174h-203v-1000h230c29.333 0 53.166 1.33301 71.499 4s36.5 9.33398 54.5 20.001s32.667 23.667 44 39s23.666 38.5 36.999 69.5s25.666 65.333 36.999 103s24.666 86.834 39.999 147.501h162v-557h-1194v178h185v991h-185v179z" />
    <glyph glyph-name="lcaron" unicode="&#x13e;" horiz-adv-x="694" 
d="M750 1079l-106.999 0.000976562c-12 152 -18 262.667 -18 332c-0.666992 64.667 11.166 112.667 35.499 144s57.5 47 99.5 47c34 0 63.333 -12.333 88 -37s37 -56.334 37 -95.001c0 -22.667 -4.33301 -47.167 -13 -73.5s-23.667 -64.5 -45 -114.5zM41.001 0.000976562
v170h156v1069h-156v174h457v-1243h155v-170h-612z" />
    <glyph glyph-name="Ldot" unicode="&#x13f;" horiz-adv-x="1304" 
d="M55 1348h721.002v-174h-203v-1000h230c28.667 0 52.334 1.33301 71.001 4s37 8.5 55 17.5s32.667 20.333 44 34s23.666 34 36.999 61s25.666 56.667 36.999 89s24.666 74.5 39.999 126.5h162v-506h-1194v178h185v991h-185v179zM1020 627
c-50.667 0 -91.667 14.833 -123 44.5s-47 67.834 -47 114.501c0 46 16 84.833 48 116.5s72.667 47.5 122 47.5c51.333 0 92.833 -14.833 124.5 -44.5s47.5 -67.834 47.5 -114.501c0 -45.333 -16.333 -84 -49 -116s-73.667 -48 -123 -48z" />
    <glyph glyph-name="ldot" unicode="&#x140;" horiz-adv-x="870" 
d="M782 549c-48.667 0 -88.5 14.832 -119.5 44.499s-46.5 66.834 -46.5 111.501c0 45.333 15.833 83.5 47.5 114.5s71.167 46.5 118.5 46.5c49.333 0 89.333 -14.667 120 -44s46 -66.333 46 -111c0 -46 -15.667 -84.5 -47 -115.5s-71 -46.5 -119 -46.5zM41 -0.000976562v170
h156v1069h-156v174h457v-1243h155v-170h-612z" />
    <glyph glyph-name="Lslash" unicode="&#x141;" horiz-adv-x="1310" 
d="M61 1348h720.997v-174h-202v-379l331 112v-166l-331 -114v-453h229c34.667 0 62.667 2.66699 84 8s41.333 14.5 60 27.5s35.334 35 50.001 66s28.834 67.5 42.501 109.5s29.834 99.333 48.501 172h161v-557h-1194v178h185v332l-170 -57v170l170 57v489h-185v179z" />
    <glyph glyph-name="lslash" unicode="&#x142;" horiz-adv-x="727" 
d="M57 0v170h156v428l-190 -59v147l190 59v494h-156v174h457v-571l195 63v-147l-195 -64v-524h156v-170h-613z" />
    <glyph glyph-name="Nacute" unicode="&#x143;" horiz-adv-x="1609" 
d="M743 1493l91.001 237.999c27.333 70.667 54 122.334 80 155.001s61.333 49 106 49c35.333 0 65.666 -12.5 90.999 -37.5s38 -53.5 38 -85.5c0 -32.667 -9.16699 -62 -27.5 -88s-48.833 -58 -91.5 -96l-153 -135h-134zM1067 -18.001l-633 1044h-18v-848h184v-178h-543v178
h176v991h-176v179h574l571 -942h19v763h-185v179h543v-179h-176v-1187h-336z" />
    <glyph glyph-name="nacute" unicode="&#x144;" horiz-adv-x="1290" 
d="M582 1096l90.001 237c27.333 70.667 54 122.5 80 155.5s61.333 49.5 106 49.5c35.333 0 65.666 -12.5 90.999 -37.5s38 -53.5 38 -85.5c0 -32.667 -9.16699 -62 -27.5 -88s-48.833 -58 -91.5 -96l-153 -135h-133zM59.001 0l-0.000976562 170h142v618h-142v170h422v-251
c76 181.333 192 272 348 272c99.333 0 173 -30.167 221 -90.5s72 -142.833 72 -247.5v-471h138v-170h-547v170h108v430c0 68 -14.333 116.333 -43 145c-25.333 22 -56.666 33 -93.999 33c-49.333 0 -92.333 -22.167 -129 -66.5s-55 -99.833 -55 -166.5v-375h106v-170h-547z
" />
    <glyph glyph-name="Ncommaaccent" unicode="&#x145;" horiz-adv-x="1609" 
d="M641 -748l-43.001 97.001c72 33.333 126.833 69 164.5 107s59.834 80.667 66.501 128l-14 8c-18.667 -21.333 -44 -32 -76 -32c-36.667 0 -67.334 13 -92.001 39s-37 60 -37 102c0 46.667 16 86.667 48 120s72.667 50 122 50c58.667 0 105.834 -20.333 141.501 -61
s53.5 -96 53.5 -166c0 -182.667 -111.333 -313.334 -334 -392.001zM1067 -17.999l-633 1044h-18v-848h184v-178h-543v178h176v991h-176v179h574l571 -942h19v763h-185v179h543v-179h-176v-1187h-336z" />
    <glyph glyph-name="ncommaaccent" unicode="&#x146;" horiz-adv-x="1290" 
d="M508 -748l-43.001 97.001c72 33.333 126.833 69 164.5 107s59.834 80.667 66.501 128l-14 8c-18.667 -21.333 -44 -32 -76 -32c-36.667 0 -67.334 13 -92.001 39s-37 60 -37 102c0 46.667 16 86.667 48 120s72.667 50 122 50c58.667 0 105.834 -20.333 141.501 -61
s53.5 -96 53.5 -166c0 -182.667 -111.333 -313.334 -334 -392.001zM58.999 0.000976562l-0.000976562 170h142v618h-142v170h422v-251c76 181.333 192 272 348 272c99.333 0 173 -30.167 221 -90.5s72 -142.833 72 -247.5v-471h138v-170h-547v170h108v430
c0 68 -14.333 116.333 -43 145c-25.333 22 -56.666 33 -93.999 33c-49.333 0 -92.333 -22.167 -129 -66.5s-55 -99.833 -55 -166.5v-375h106v-170h-547z" />
    <glyph glyph-name="Ncaron" unicode="&#x147;" horiz-adv-x="1609" 
d="M748 1499l-250 404h174l164 -177l157 177h174l-254 -404h-165zM1067 -18l-633 1044h-18v-848h184v-178h-543v178h176v991h-176v179h574l571 -942h19v763h-185v179h543v-179h-176v-1187h-336z" />
    <glyph glyph-name="ncaron" unicode="&#x148;" horiz-adv-x="1290" 
d="M584 1102l-250 403h174l164 -176l157 176h175l-254 -403h-166zM59 0l-0.000976562 170h142v618h-142v170h422v-251c76 181.333 192 272 348 272c99.333 0 173 -30.167 221 -90.5s72 -142.833 72 -247.5v-471h138v-170h-547v170h108v430c0 68 -14.333 116.333 -43 145
c-25.333 22 -56.666 33 -93.999 33c-49.333 0 -92.333 -22.167 -129 -66.5s-55 -99.833 -55 -166.5v-375h106v-170h-547z" />
    <glyph glyph-name="Omacron" unicode="&#x14c;" horiz-adv-x="1531" 
d="M461 1503v201h612v-201h-612zM766 -33c-99.333 0 -191.665 16.833 -276.998 50.5s-158.5 80.667 -219.5 141s-108.833 134.666 -143.5 222.999s-52 185.166 -52 290.499c0 138 30.5 261.167 91.5 369.5s144 191.833 249 250.5s222.167 88 351.5 88
c133.333 0 252.166 -28.667 356.499 -86s186.333 -139.666 246 -246.999s89.5 -231 89.5 -371c0 -104 -17.833 -200.333 -53.5 -289s-84.334 -163.667 -146.001 -225s-135 -109.166 -220 -143.499s-175.833 -51.5 -272.5 -51.5zM772.001 135
c109.333 0 190.333 43.5 243 130.5s79 223.167 79 408.5c0 358.667 -111.333 538 -334 538c-109.333 0 -190.333 -43.5 -243 -130.5s-79 -222.833 -79 -407.5c0 -359.333 111.333 -539 334 -539z" />
    <glyph glyph-name="omacron" unicode="&#x14d;" 
d="M268 1106v201h613v-201h-613zM575 -20c-153.333 0 -277.999 45.5 -373.999 136.5s-144 210.5 -144 358.5c0 146.667 49.5 267.667 148.5 363s223.167 143 372.5 143c152 0 276 -45.833 372 -137.5s144 -211.167 144 -358.5s-49.333 -268.333 -148 -363
s-222.334 -142 -371.001 -142zM582.001 119c65.333 0 112.333 28.167 141 84.5s43 148.833 43 277.5c0 127.333 -16 219.333 -48 276s-81.667 85 -149 85c-64.667 0 -111.5 -28.333 -140.5 -85s-43.5 -149.334 -43.5 -278.001c0 -127.333 16.167 -219.166 48.5 -275.499
s81.833 -84.5 148.5 -84.5z" />
    <glyph glyph-name="Obreve" unicode="&#x14e;" horiz-adv-x="1531" 
d="M766 -33c-99.333 0 -191.665 16.833 -276.998 50.5s-158.5 80.667 -219.5 141s-108.833 134.666 -143.5 222.999s-52 185.166 -52 290.499c0 138 30.5 261.167 91.5 369.5s144 191.833 249 250.5s222.167 88 351.5 88c133.333 0 252.166 -28.667 356.499 -86
s186.333 -139.666 246 -246.999s89.5 -231 89.5 -371c0 -104 -17.833 -200.333 -53.5 -289s-84.334 -163.667 -146.001 -225s-135 -109.166 -220 -143.499s-175.833 -51.5 -272.5 -51.5zM772.001 135c109.333 0 190.333 43.5 243 130.5s79 223.167 79 408.5
c0 358.667 -111.333 538 -334 538c-109.333 0 -190.333 -43.5 -243 -130.5s-79 -222.833 -79 -407.5c0 -359.333 111.333 -539 334 -539zM764.001 1489c-102.667 0 -181.833 31.667 -237.5 95s-82.5 157.333 -80.5 282h142c18 -116 77.333 -174 178 -174
c99.333 0 158 58 176 174h141c2 -124.667 -24.833 -218.667 -80.5 -282s-135.167 -95 -238.5 -95z" />
    <glyph glyph-name="obreve" unicode="&#x14f;" 
d="M575 -20c-153.333 0 -277.999 45.5 -373.999 136.5s-144 210.5 -144 358.5c0 146.667 49.5 267.667 148.5 363s223.167 143 372.5 143c152 0 276 -45.833 372 -137.5s144 -211.167 144 -358.5s-49.333 -268.333 -148 -363s-222.334 -142 -371.001 -142zM582.001 119
c65.333 0 112.333 28.167 141 84.5s43 148.833 43 277.5c0 127.333 -16 219.333 -48 276s-81.667 85 -149 85c-64.667 0 -111.5 -28.333 -140.5 -85s-43.5 -149.334 -43.5 -278.001c0 -127.333 16.167 -219.166 48.5 -275.499s81.833 -84.5 148.5 -84.5zM573.001 1092
c-102.667 0 -181.667 31.5 -237 94.5s-82 156.833 -80 281.5h141c18 -116 77.333 -174 178 -174c100 0 159 58 177 174h141c2 -124.667 -25 -218.5 -81 -281.5s-135.667 -94.5 -239 -94.5z" />
    <glyph glyph-name="Ohungarumlaut" unicode="&#x150;" horiz-adv-x="1531" 
d="M872 1493l98.998 238.001c28 69.333 55.333 120.666 82 153.999s61.334 50 104.001 50c34 0 63 -11.833 87 -35.5s36 -51.167 36 -82.5c0 -32 -9.16699 -61.333 -27.5 -88s-48.166 -59 -89.499 -97l-151 -139h-140zM517.998 1493l86.002 238.002
c25.333 71.333 50 123.166 74 155.499s58 48.5 102 48.5c35.333 0 64.666 -11.833 87.999 -35.5s35 -51.167 35 -82.5c0 -33.333 -8.33301 -63.333 -25 -90s-44.334 -58.334 -83.001 -95.001l-148 -139h-129zM766 -32.9971c-99.333 0 -191.665 16.833 -276.998 50.5
s-158.5 80.667 -219.5 141s-108.833 134.666 -143.5 222.999s-52 185.166 -52 290.499c0 138 30.5 261.167 91.5 369.5s144 191.833 249 250.5s222.167 88 351.5 88c133.333 0 252.166 -28.667 356.499 -86s186.333 -139.666 246 -246.999s89.5 -231 89.5 -371
c0 -104 -17.833 -200.333 -53.5 -289s-84.334 -163.667 -146.001 -225s-135 -109.166 -220 -143.499s-175.833 -51.5 -272.5 -51.5zM772.001 135.003c109.333 0 190.333 43.5 243 130.5s79 223.167 79 408.5c0 358.667 -111.333 538 -334 538
c-109.333 0 -190.333 -43.5 -243 -130.5s-79 -222.833 -79 -407.5c0 -359.333 111.333 -539 334 -539z" />
    <glyph glyph-name="ohungarumlaut" unicode="&#x151;" 
d="M682 1096l97.999 237c28 69.333 55.5 120.833 82.5 154.5s61.833 50.5 104.5 50.5c34 0 63 -12 87 -36s36 -51.667 36 -83s-9.16699 -60.333 -27.5 -87s-48.166 -59 -89.499 -97l-152 -139h-139zM327.999 1096l85.999 236.999c25.333 71.333 50 123.333 74 156
s58 49 102 49c34.667 0 63.834 -12 87.501 -36s35.5 -51.667 35.5 -83c0 -32.667 -8.33301 -62.167 -25 -88.5s-44.667 -58.166 -84 -95.499l-147 -139h-129zM574.998 -20.001c-153.333 0 -277.999 45.5 -373.999 136.5s-144 210.5 -144 358.5
c0 146.667 49.5 267.667 148.5 363s223.167 143 372.5 143c152 0 276 -45.833 372 -137.5s144 -211.167 144 -358.5s-49.333 -268.333 -148 -363s-222.334 -142 -371.001 -142zM581.999 118.999c65.333 0 112.333 28.167 141 84.5s43 148.833 43 277.5
c0 127.333 -16 219.333 -48 276s-81.667 85 -149 85c-64.667 0 -111.5 -28.333 -140.5 -85s-43.5 -149.334 -43.5 -278.001c0 -127.333 16.167 -219.166 48.5 -275.499s81.833 -84.5 148.5 -84.5z" />
    <glyph glyph-name="OE" unicode="&#x152;" horiz-adv-x="2177" 
d="M879 0c-134 0 -252.501 15.8281 -355.501 47.4951s-187.167 77 -252.5 136s-114.5 129 -147.5 210s-49.5 171.833 -49.5 272.5s16.167 192.167 48.5 274.5s80.333 154 144 215s146.5 108.333 248.5 142s219 50.5 351 50.5h1198v-480h-178
c-14 69.333 -26.333 121.833 -37 157.5s-25.667 65.834 -45 90.501s-41.666 40.5 -66.999 47.5s-60.333 10.5 -105 10.5h-332v-408h111c20.667 0 37.167 0.666992 49.5 2s24 4.83301 35 10.5s19.333 11.834 25 18.501s11.334 18.334 17.001 35.001
s10.334 33.334 14.001 50.001s8.16699 40.667 13.5 72h159v-546h-159c-12.667 84.667 -27.5 137.834 -44.5 159.501s-53.5 32.5 -109.5 32.5h-111v-426h324c35.333 0 65.166 2 89.499 6s46 12.167 65 24.5s34.333 26 46 41s22.667 37.667 33 68s18.666 61 24.999 92
s13.833 73.167 22.5 126.5h178v-532h-1204zM861.999 173.995h105v1000h-117c-150.667 0 -256.667 -37.5 -318 -112.5s-92 -206.167 -92 -393.5c0 -178 32.167 -304.833 96.5 -380.5s172.833 -113.5 325.5 -113.5z" />
    <glyph glyph-name="oe" unicode="&#x153;" horiz-adv-x="1785" 
d="M1724 440l-650.999 0.00195312c4.66699 -107.333 28.167 -183.666 70.5 -228.999s103.5 -68 183.5 -68c57.333 0 104.5 13.167 141.5 39.5s66.167 69.166 87.5 128.499h160c-21.333 -105.333 -66.5 -186.833 -135.5 -244.5s-162.5 -86.5 -280.5 -86.5
c-175.333 0 -301.333 56.667 -378 170c-83.333 -113.333 -202.333 -170 -357 -170c-148 0 -269.667 45.667 -365 137s-143 210.666 -143 357.999c0 146 49 266.833 147 362.5s219 143.5 363 143.5c162 0 283.667 -58 365 -174c81.333 116 198 174 350 174
c99.333 0 183.666 -23.667 252.999 -71s119.5 -111.333 150.5 -192s43.833 -173.334 38.5 -278.001zM582.001 119.002c65.333 0 112.333 28.167 141 84.5s43 148.833 43 277.5c0 127.333 -16 219.333 -48 276s-81.667 85 -149 85c-64.667 0 -111.5 -28.333 -140.5 -85
s-43.5 -149.334 -43.5 -278.001c0 -127.333 16.167 -219.166 48.5 -275.499s81.833 -84.5 148.5 -84.5zM1257 842.002c-54.667 0 -97.166 -20.833 -127.499 -62.5s-48.5 -111.834 -54.5 -210.501h359c-4.66699 96.667 -21.334 166.334 -50.001 209.001s-71 64 -127 64z" />
    <glyph glyph-name="Racute" unicode="&#x154;" horiz-adv-x="1490" 
d="M666 1493l90.001 237.999c27.333 70.667 54 122.334 80 155.001s61.333 49 106 49c35.333 0 65.666 -12.5 90.999 -37.5s38 -53.5 38 -85.5c0 -32.667 -9.16699 -62 -27.5 -88s-48.833 -58 -91.5 -96l-153 -135h-133zM573.001 587.999v-409.999h191v-178h-709v178h185
v991h-185v179h740c98 0 183.333 -9.66699 256 -29s129.334 -45.666 170.001 -78.999s70.5 -69.5 89.5 -108.5s28.5 -80.833 28.5 -125.5c0 -188.667 -139 -299.334 -417 -332.001v-15c122.667 -10.667 210.5 -41.334 263.5 -92.001s81.167 -119 84.5 -205l6 -79
c2 -42.667 7.66699 -71.5 17 -86.5s24.666 -22.5 45.999 -22.5c15.333 0 29.333 9 42 27s26 49.333 40 94l121 -39c-21.333 -89.333 -56 -159.166 -104 -209.499s-115 -75.5 -201 -75.5c-104.667 0 -181.667 27.667 -231 83s-74 139.666 -74 252.999l-2 70
c-0.666992 39.333 -3.66699 71.5 -9 96.5s-15 46.5 -29 64.5s-33.167 30.833 -57.5 38.5s-55.5 11.5 -93.5 11.5h-168zM573.001 754l179 -0.000976562c80.667 0 139 16.833 175 50.5s54 89.167 54 166.5c0 72.667 -16 125.334 -48 158.001s-90.333 49 -175 49h-185v-424z
" />
    <glyph glyph-name="racute" unicode="&#x155;" horiz-adv-x="980" 
d="M442 1096l90.002 237c27.333 70.667 54.166 122.5 80.499 155.5s61.833 49.5 106.5 49.5c35.333 0 65.666 -12.5 90.999 -37.5s38 -53.5 38 -85.5c0 -32.667 -9.16699 -62 -27.5 -88s-48.833 -58 -91.5 -96l-154 -135h-133zM59.002 0l-0.000976562 170.001h142v618h-142
v170h422v-245c28 87.333 68 153.5 120 198.5s111.667 67.5 179 67.5c58 0 105 -18.333 141 -55s54 -81 54 -133c0 -50.667 -15.5 -92.834 -46.5 -126.501s-68.833 -50.5 -113.5 -50.5c-46.667 0 -85 13 -115 39s-45 61.667 -45 107c0 1.33301 0.333008 3.83301 1 7.5
s1 6.5 1 8.5c-29.333 -2 -58.666 -19 -87.999 -51s-52.333 -76.333 -69 -133v-422h178v-170h-619z" />
    <glyph glyph-name="Rcommaaccent" unicode="&#x156;" horiz-adv-x="1490" 
d="M608 -748l-42.999 97.001c72 33.333 127 69 165 107s60.333 80.667 67 128l-15 8c-18.667 -21.333 -43.667 -32 -75 -32c-36.667 0 -67.334 13 -92.001 39s-37 60 -37 102c0 46.667 16 86.667 48 120s72.667 50 122 50c58.667 0 105.667 -20.333 141 -61s53 -96 53 -166
c0 -182.667 -111.333 -313.334 -334 -392.001zM573.001 588.001v-409.999h191v-178h-709v178h185v991h-185v179h740c98 0 183.333 -9.66699 256 -29s129.334 -45.666 170.001 -78.999s70.5 -69.5 89.5 -108.5s28.5 -80.833 28.5 -125.5
c0 -188.667 -139 -299.334 -417 -332.001v-15c122.667 -10.667 210.5 -41.334 263.5 -92.001s81.167 -119 84.5 -205l6 -79c2 -42.667 7.66699 -71.5 17 -86.5s24.666 -22.5 45.999 -22.5c15.333 0 29.333 9 42 27s26 49.333 40 94l121 -39
c-21.333 -89.333 -56 -159.166 -104 -209.499s-115 -75.5 -201 -75.5c-104.667 0 -181.667 27.667 -231 83s-74 139.666 -74 252.999l-2 70c-0.666992 39.333 -3.66699 71.5 -9 96.5s-15 46.5 -29 64.5s-33.167 30.833 -57.5 38.5s-55.5 11.5 -93.5 11.5h-168z
M573.001 754.002l179 -0.000976562c80.667 0 139 16.833 175 50.5s54 89.167 54 166.5c0 72.667 -16 125.334 -48 158.001s-90.333 49 -175 49h-185v-424z" />
    <glyph glyph-name="rcommaaccent" unicode="&#x157;" horiz-adv-x="980" 
d="M211 -748l-43.001 97.001c72 33.333 126.833 69 164.5 107s59.834 80.667 66.501 128l-14 8c-18.667 -21.333 -44 -32 -76 -32c-36.667 0 -67.334 13 -92.001 39s-37 60 -37 102c0 46.667 16 86.667 48 120s72.667 50 122 50c58.667 0 105.834 -20.333 141.501 -61
s53.5 -96 53.5 -166c0 -182.667 -111.333 -313.334 -334 -392.001zM58.999 0.000976562l-0.000976562 170.001h142v618h-142v170h422v-245c28 87.333 68 153.5 120 198.5s111.667 67.5 179 67.5c58 0 105 -18.333 141 -55s54 -81 54 -133
c0 -50.667 -15.5 -92.834 -46.5 -126.501s-68.833 -50.5 -113.5 -50.5c-46.667 0 -85 13 -115 39s-45 61.667 -45 107c0 1.33301 0.333008 3.83301 1 7.5s1 6.5 1 8.5c-29.333 -2 -58.666 -19 -87.999 -51s-52.333 -76.333 -69 -133v-422h178v-170h-619z" />
    <glyph glyph-name="Rcaron" unicode="&#x158;" horiz-adv-x="1490" 
d="M670 1499l-250 404h174l164 -177l157 177h175l-254 -404h-166zM573 588v-409.999h191v-178h-709v178h185v991h-185v179h740c98 0 183.333 -9.66699 256 -29s129.334 -45.666 170.001 -78.999s70.5 -69.5 89.5 -108.5s28.5 -80.833 28.5 -125.5
c0 -188.667 -139 -299.334 -417 -332.001v-15c122.667 -10.667 210.5 -41.334 263.5 -92.001s81.167 -119 84.5 -205l6 -79c2 -42.667 7.66699 -71.5 17 -86.5s24.666 -22.5 45.999 -22.5c15.333 0 29.333 9 42 27s26 49.333 40 94l121 -39
c-21.333 -89.333 -56 -159.166 -104 -209.499s-115 -75.5 -201 -75.5c-104.667 0 -181.667 27.667 -231 83s-74 139.666 -74 252.999l-2 70c-0.666992 39.333 -3.66699 71.5 -9 96.5s-15 46.5 -29 64.5s-33.167 30.833 -57.5 38.5s-55.5 11.5 -93.5 11.5h-168zM573 754.001
l179 -0.000976562c80.667 0 139 16.833 175 50.5s54 89.167 54 166.5c0 72.667 -16 125.334 -48 158.001s-90.333 49 -175 49h-185v-424z" />
    <glyph glyph-name="rcaron" unicode="&#x159;" horiz-adv-x="980" 
d="M444 1102l-249 403h174l163 -176l158 176h174l-254 -403h-166zM59 0l-0.000976562 170.001h142v618h-142v170h422v-245c28 87.333 68 153.5 120 198.5s111.667 67.5 179 67.5c58 0 105 -18.333 141 -55s54 -81 54 -133c0 -50.667 -15.5 -92.834 -46.5 -126.501
s-68.833 -50.5 -113.5 -50.5c-46.667 0 -85 13 -115 39s-45 61.667 -45 107c0 1.33301 0.333008 3.83301 1 7.5s1 6.5 1 8.5c-29.333 -2 -58.666 -19 -87.999 -51s-52.333 -76.333 -69 -133v-422h178v-170h-619z" />
    <glyph glyph-name="Sacute" unicode="&#x15a;" horiz-adv-x="1265" 
d="M553 1493l90.001 237.999c27.333 70.667 54 122.334 80 155.001s61.333 49 106 49c35.333 0 65.666 -12.5 90.999 -37.5s38 -53.5 38 -85.5c0 -32.667 -9 -62 -27 -88s-48.333 -58 -91 -96l-154 -135h-133zM92.001 -29.001l-0.00488281 499.997h180
c45.333 -117.333 99.833 -202.333 163.5 -255s148.5 -79 254.5 -79c71.333 0 127.166 16.167 167.499 48.5s60.5 75.5 60.5 129.5c0 24 -5.83301 45.333 -17.5 64s-24.667 33.834 -39 45.501s-38.666 23.834 -72.999 36.501s-63.166 22.167 -86.499 28.5
s-60.333 15.833 -111 28.5c-7.33301 2 -12.666 3.33301 -15.999 4c-37.333 9.33301 -69.333 17.666 -96 24.999s-57.667 17.5 -93 30.5s-65.333 26.667 -90 41s-49.834 32.5 -75.501 54.5s-46.5 45.833 -62.5 71.5s-29 56.167 -39 91.5s-15 74 -15 116
c0 123.333 45.833 225.5 137.5 306.5s203.834 121.5 336.501 121.5c73.333 0 140.333 -13.167 201 -39.5s108.334 -62.833 143.001 -109.5l43 145h180v-479h-180c-43.333 112 -92.666 192.167 -147.999 240.5s-126.333 72.5 -213 72.5c-66 0 -117.667 -16.5 -155 -49.5
s-56 -73.833 -56 -122.5c0 -18 3 -34.667 9 -50s13.5 -28.666 22.5 -39.999s22 -22.166 39 -32.499s33.167 -19 48.5 -26s36.333 -14.5 63 -22.5s49.834 -14.5 69.501 -19.5l79.5 -19.5c9.33301 -2 16.333 -3.66699 21 -5c38 -9.33301 69.833 -17.5 95.5 -24.5
s56 -17 91 -30s64.167 -26.333 87.5 -40s47.833 -31 73.5 -52s46 -44 61 -69s27.5 -54.667 37.5 -89s15 -71.833 15 -112.5c0 -128.667 -46 -234 -138 -316s-211 -123 -357 -123c-82 0 -158 15.167 -228 45.5s-124.667 69.833 -164 118.5l-49 -160h-178z" />
    <glyph glyph-name="sacute" unicode="&#x15b;" horiz-adv-x="989" 
d="M414 1096l90.001 237c27.333 70.667 54 122.5 80 155.5s61.333 49.5 106 49.5c35.333 0 65.666 -12.5 90.999 -37.5s38 -53.5 38 -85.5c0 -32.667 -9.16699 -62 -27.5 -88s-48.833 -58 -91.5 -96l-153 -135h-133zM72.001 -18l0.000976562 351.996h157
c43.333 -66 92.833 -118.667 148.5 -158s112.167 -59 169.5 -59c42 0 73.333 8.66699 94 26s31 41.333 31 72c0 36.667 -16.5 65 -49.5 85s-97.833 42.333 -194.5 67c-60 15.333 -110.333 31.5 -151 48.5s-75.834 37.5 -105.501 61.5s-51.334 51.833 -65.001 83.5
s-20.5 68.834 -20.5 111.501c0 86.667 32 159.834 96 219.501s148 89.5 252 89.5c118 0 209.667 -39.667 275 -119l32 115h160v-328h-158c-38.667 60 -81.667 107.5 -129 142.5s-95.666 52.5 -144.999 52.5c-39.333 0 -69.333 -8.33301 -90 -25s-31 -39 -31 -67
c0 -34 16.167 -60.5 48.5 -79.5s95.5 -40.5 189.5 -64.5c57.333 -15.333 105.333 -30.666 144 -45.999s74.667 -35 108 -59s58 -53.167 74 -87.5s24 -74.5 24 -120.5c0 -87.333 -32.5 -161.666 -97.5 -222.999s-153.5 -92 -265.5 -92c-131.333 0 -235 43.667 -311 131
l-33 -129h-157z" />
    <glyph glyph-name="Scedilla" unicode="&#x15e;" horiz-adv-x="1265" 
d="M608 -510c-103.333 0 -194.007 21.9971 -272.007 65.9971l59 100c56 -27.333 114.667 -41 176 -41c66 0 99 19 99 57c0 22 -13.667 39.833 -41 53.5s-66.333 20.5 -117 20.5c-13.333 0 -31.666 -2 -54.999 -6l-47 86l180 154
c-119.333 23.333 -209.666 73.666 -270.999 150.999l-49 -160h-178v500h180c45.333 -117.333 99.833 -202.333 163.5 -255s148.5 -79 254.5 -79c71.333 0 127.166 16.167 167.499 48.5s60.5 75.5 60.5 129.5c0 24 -5.83301 45.333 -17.5 64s-24.667 33.834 -39 45.501
s-38.666 23.834 -72.999 36.501s-63.166 22.167 -86.499 28.5s-60.333 15.833 -111 28.5c-7.33301 2 -12.666 3.33301 -15.999 4c-37.333 9.33301 -69.333 17.666 -96 24.999s-57.667 17.5 -93 30.5s-65.333 26.667 -90 41s-49.834 32.5 -75.501 54.5
s-46.5 45.833 -62.5 71.5s-29 56.167 -39 91.5s-15 74 -15 116c0 123.333 45.833 225.5 137.5 306.5s203.834 121.5 336.501 121.5c73.333 0 140.333 -13.167 201 -39.5s108.334 -62.833 143.001 -109.5l43 145h180v-479h-180c-43.333 112 -92.666 192.167 -147.999 240.5
s-126.333 72.5 -213 72.5c-66 0 -117.667 -16.5 -155 -49.5s-56 -73.833 -56 -122.5c0 -18 3 -34.667 9 -50s13.5 -28.666 22.5 -39.999s22 -22.166 39 -32.499s33.167 -19 48.5 -26s36.333 -14.5 63 -22.5s49.834 -14.5 69.501 -19.5l79.5 -19.5
c9.33301 -2 16.333 -3.66699 21 -5c38 -9.33301 69.833 -17.5 95.5 -24.5s56 -17 91 -30s64.167 -26.333 87.5 -40s47.833 -31 73.5 -52s46 -44 61 -69s27.5 -54.667 37.5 -89s15 -71.833 15 -112.5c0 -125.333 -43.667 -228.666 -131 -309.999s-201.333 -124.333 -342 -129
l-86 -88l2 -8c78 -8.66699 136.5 -29.167 175.5 -61.5s58.5 -71.833 58.5 -118.5c0 -62 -24.333 -111 -73 -147s-116 -54 -202 -54z" />
    <glyph glyph-name="scedilla" unicode="&#x15f;" horiz-adv-x="989" 
d="M463 -510c-104 0 -194.998 21.9971 -272.998 65.9971l60 100c56 -27.333 114.667 -41 176 -41c65.333 0 98 19 98 57c0 22 -13.5 39.833 -40.5 53.5s-65.833 20.5 -116.5 20.5c-14 0 -32.667 -2 -56 -6l-47 86l197 166c-78 17.333 -144.333 57 -199 119l-33 -129h-157
v352h157c43.333 -66 92.833 -118.667 148.5 -158s112.167 -59 169.5 -59c42 0 73.333 8.66699 94 26s31 41.333 31 72c0 36.667 -16.5 65 -49.5 85s-97.833 42.333 -194.5 67c-60 15.333 -110.333 31.5 -151 48.5s-75.834 37.5 -105.501 61.5s-51.334 51.833 -65.001 83.5
s-20.5 68.834 -20.5 111.501c0 86.667 32 159.834 96 219.501s148 89.5 252 89.5c118 0 209.667 -39.667 275 -119l32 115h160v-328h-158c-38.667 60 -81.667 107.5 -129 142.5s-95.666 52.5 -144.999 52.5c-39.333 0 -69.333 -8.33301 -90 -25s-31 -39 -31 -67
c0 -34 16.167 -60.5 48.5 -79.5s95.5 -40.5 189.5 -64.5c57.333 -15.333 105.333 -30.666 144 -45.999s74.667 -35 108 -59s58 -53.167 74 -87.5s24 -74.5 24 -120.5c0 -84 -29.833 -156 -89.5 -216s-141.834 -92.333 -246.501 -97l-98 -103l2 -8
c77.333 -8.66699 135.5 -29.167 174.5 -61.5s58.5 -71.833 58.5 -118.5c0 -62 -24.167 -111 -72.5 -147s-115.5 -54 -201.5 -54z" />
    <glyph glyph-name="Scaron" unicode="&#x160;" horiz-adv-x="1265" 
d="M557 1499l-250 404h174l164 -177l158 177h174l-254 -404h-166zM92 -29l-0.00488281 499.997h180c45.333 -117.333 99.833 -202.333 163.5 -255s148.5 -79 254.5 -79c71.333 0 127.166 16.167 167.499 48.5s60.5 75.5 60.5 129.5c0 24 -5.83301 45.333 -17.5 64
s-24.667 33.834 -39 45.501s-38.666 23.834 -72.999 36.501s-63.166 22.167 -86.499 28.5s-60.333 15.833 -111 28.5c-7.33301 2 -12.666 3.33301 -15.999 4c-37.333 9.33301 -69.333 17.666 -96 24.999s-57.667 17.5 -93 30.5s-65.333 26.667 -90 41
s-49.834 32.5 -75.501 54.5s-46.5 45.833 -62.5 71.5s-29 56.167 -39 91.5s-15 74 -15 116c0 123.333 45.833 225.5 137.5 306.5s203.834 121.5 336.501 121.5c73.333 0 140.333 -13.167 201 -39.5s108.334 -62.833 143.001 -109.5l43 145h180v-479h-180
c-43.333 112 -92.666 192.167 -147.999 240.5s-126.333 72.5 -213 72.5c-66 0 -117.667 -16.5 -155 -49.5s-56 -73.833 -56 -122.5c0 -18 3 -34.667 9 -50s13.5 -28.666 22.5 -39.999s22 -22.166 39 -32.499s33.167 -19 48.5 -26s36.333 -14.5 63 -22.5
s49.834 -14.5 69.501 -19.5l79.5 -19.5c9.33301 -2 16.333 -3.66699 21 -5c38 -9.33301 69.833 -17.5 95.5 -24.5s56 -17 91 -30s64.167 -26.333 87.5 -40s47.833 -31 73.5 -52s46 -44 61 -69s27.5 -54.667 37.5 -89s15 -71.833 15 -112.5c0 -128.667 -46 -234 -138 -316
s-211 -123 -357 -123c-82 0 -158 15.167 -228 45.5s-124.667 69.833 -164 118.5l-49 -160h-178z" />
    <glyph glyph-name="scaron" unicode="&#x161;" horiz-adv-x="989" 
d="M418 1102l-250 403h174l164 -176l158 176h174l-254 -403h-166zM72 -18l0.000976562 351.996h157c43.333 -66 92.833 -118.667 148.5 -158s112.167 -59 169.5 -59c42 0 73.333 8.66699 94 26s31 41.333 31 72c0 36.667 -16.5 65 -49.5 85s-97.833 42.333 -194.5 67
c-60 15.333 -110.333 31.5 -151 48.5s-75.834 37.5 -105.501 61.5s-51.334 51.833 -65.001 83.5s-20.5 68.834 -20.5 111.501c0 86.667 32 159.834 96 219.501s148 89.5 252 89.5c118 0 209.667 -39.667 275 -119l32 115h160v-328h-158c-38.667 60 -81.667 107.5 -129 142.5
s-95.666 52.5 -144.999 52.5c-39.333 0 -69.333 -8.33301 -90 -25s-31 -39 -31 -67c0 -34 16.167 -60.5 48.5 -79.5s95.5 -40.5 189.5 -64.5c57.333 -15.333 105.333 -30.666 144 -45.999s74.667 -35 108 -59s58 -53.167 74 -87.5s24 -74.5 24 -120.5
c0 -87.333 -32.5 -161.666 -97.5 -222.999s-153.5 -92 -265.5 -92c-131.333 0 -235 43.667 -311 131l-33 -129h-157z" />
    <glyph glyph-name="Tcommaaccent" unicode="&#x162;" horiz-adv-x="1429" 
d="M563 -748l-43.001 97.001c72 33.333 127 69 165 107s60.333 80.667 67 128l-15 8c-18.667 -21.333 -43.667 -32 -75 -32c-36.667 0 -67.5 13 -92.5 39s-37.5 60 -37.5 102c0 46.667 16 86.667 48 120s72.667 50 122 50c58.667 0 105.834 -20.333 141.501 -61
s53.5 -96 53.5 -166c0 -182.667 -111.333 -313.334 -334 -392.001zM335.999 0.000976562l-0.00195312 177.999h211v1016h-51c-29.333 0 -53.666 -1.66699 -72.999 -5s-37.833 -10.666 -55.5 -21.999s-32.334 -25.166 -44.001 -41.499s-23.667 -40.333 -36 -72
s-23.5 -66.167 -33.5 -103.5s-21.667 -85.666 -35 -144.999h-162v543h1315v-543h-162c-13.333 60 -25 108.5 -35 145.5s-21.167 71.333 -33.5 103s-24.166 55.667 -35.499 72s-25.833 30.166 -43.5 41.499s-36.167 18.666 -55.5 21.999s-43.666 5 -72.999 5h-51v-1016h211
v-178h-758z" />
    <glyph glyph-name="tcommaaccent" unicode="&#x163;" horiz-adv-x="847" 
d="M293 -748l-43.001 97.001c72 33.333 126.833 69 164.5 107s59.834 80.667 66.501 128l-14 8c-18.667 -21.333 -44 -32 -76 -32c-36.667 0 -67.334 13 -92.001 39s-37 60 -37 102c0 46.667 16 86.667 48 120s72.667 50 122 50c58.667 0 105.834 -20.333 141.501 -61
s53.5 -96 53.5 -166c0 -182.667 -111.333 -313.334 -334 -392.001zM183.999 1174l293 34.001v-260h307v-160h-307v-483c0 -91.333 33.667 -137 101 -137c30 0 54 13 72 39s36.333 73 55 141l122 -35c-22.667 -116.667 -60.667 -201.334 -114 -254.001s-128 -79 -224 -79
c-207.333 0 -311 109 -311 327v481h-170v160h176v226z" />
    <glyph glyph-name="Tcaron" unicode="&#x164;" horiz-adv-x="1429" 
d="M633 1499l-250 404h174l164 -177l158 177h174l-254 -404h-166zM336 0l-0.00195312 177.999h211v1016h-51c-29.333 0 -53.666 -1.66699 -72.999 -5s-37.833 -10.666 -55.5 -21.999s-32.334 -25.166 -44.001 -41.499s-23.667 -40.333 -36 -72s-23.5 -66.167 -33.5 -103.5
s-21.667 -85.666 -35 -144.999h-162v543h1315v-543h-162c-13.333 60 -25 108.5 -35 145.5s-21.167 71.333 -33.5 103s-24.166 55.667 -35.499 72s-25.833 30.166 -43.5 41.499s-36.167 18.666 -55.5 21.999s-43.666 5 -72.999 5h-51v-1016h211v-178h-758z" />
    <glyph glyph-name="tcaron" unicode="&#x165;" horiz-adv-x="847" 
d="M723 1079l-107 0.00195312c-12 152 -18 262.667 -18 332c-0.666992 64.667 11.166 112.667 35.499 144s57.5 47 99.5 47c34 0 63.333 -12.333 88 -37s37 -56.334 37 -95.001c0 -23.333 -4.16699 -48.333 -12.5 -75s-23.166 -64.334 -44.499 -113.001zM184 1174
l293 34.001v-260h307v-160h-307v-483c0 -91.333 33.667 -137 101 -137c30 0 54 13 72 39s36.333 73 55 141l122 -35c-22.667 -116.667 -60.667 -201.334 -114 -254.001s-128 -79 -224 -79c-207.333 0 -311 109 -311 327v481h-170v160h176v226z" />
    <glyph glyph-name="Umacron" unicode="&#x16a;" horiz-adv-x="1540" 
d="M797 -33c-194 0 -340.498 43.5 -439.498 130.5s-148.5 208.833 -148.5 365.5v706h-174v179h696v-179h-188v-659c0 -122 25.833 -208.833 77.5 -260.5s130.167 -77.5 235.5 -77.5c91.333 0 163.666 26.667 216.999 80c56 56 84 155.667 84 299v618h-180v179h539v-179h-168
v-696c0 -70 -11.167 -135 -33.5 -195s-55.333 -113.5 -99 -160.5s-101.334 -83.833 -173.001 -110.5s-153.5 -40 -245.5 -40zM526.002 1503v201h613v-201h-613z" />
    <glyph glyph-name="umacron" unicode="&#x16b;" horiz-adv-x="1267" 
d="M459 -18c-97.333 0 -169.499 30 -216.499 90s-70.5 141.667 -70.5 245v471h-139v170h438v-600c0 -66 14.333 -114.333 43 -145c22 -22 52.667 -33 92 -33c47.333 0 89.166 22.5 125.499 67.5s54.5 101.167 54.5 168.5v372h-141v170h440v-788h140v-170h-420v252
c-76.667 -180 -192 -270 -346 -270zM301.001 1106v201h612v-201h-612z" />
    <glyph glyph-name="Ubreve" unicode="&#x16c;" horiz-adv-x="1540" 
d="M797 -33c-194 0 -340.498 43.5 -439.498 130.5s-148.5 208.833 -148.5 365.5v706h-174v179h696v-179h-188v-659c0 -122 25.833 -208.833 77.5 -260.5s130.167 -77.5 235.5 -77.5c91.333 0 163.666 26.667 216.999 80c56 56 84 155.667 84 299v618h-180v179h539v-179h-168
v-696c0 -70 -11.167 -135 -33.5 -195s-55.333 -113.5 -99 -160.5s-101.334 -83.833 -173.001 -110.5s-153.5 -40 -245.5 -40zM831.002 1489c-102.667 0 -181.667 31.667 -237 95s-82 157.333 -80 282h141c18 -116 77.667 -174 179 -174c99.333 0 158 58 176 174h141
c2 -124.667 -25 -218.667 -81 -282s-135.667 -95 -239 -95z" />
    <glyph glyph-name="ubreve" unicode="&#x16d;" horiz-adv-x="1267" 
d="M459 -18c-97.333 0 -169.499 30 -216.499 90s-70.5 141.667 -70.5 245v471h-139v170h438v-600c0 -66 14.333 -114.333 43 -145c22 -22 52.667 -33 92 -33c47.333 0 89.166 22.5 125.499 67.5s54.5 101.167 54.5 168.5v372h-141v170h440v-788h140v-170h-420v252
c-76.667 -180 -192 -270 -346 -270zM604.001 1092c-102.667 0 -181.667 31.5 -237 94.5s-82 156.833 -80 281.5h141c18 -116 77.333 -174 178 -174c99.333 0 158 58 176 174h142c2 -124.667 -25 -218.5 -81 -281.5s-135.667 -94.5 -239 -94.5z" />
    <glyph glyph-name="Uring" unicode="&#x16e;" horiz-adv-x="1540" 
d="M834 1481c-82.667 0 -147.833 22.499 -195.5 67.499s-71.5 100.833 -71.5 167.5s24.333 123.334 73 170.001s113.334 70 194.001 70c81.333 0 145.666 -22.667 192.999 -68s71 -101.333 71 -168c0 -66 -24 -122.333 -72 -169s-112 -70 -192 -70zM836.001 1583
c31.333 0 56.499 12.001 75.499 36.001s28.5 57 28.5 99c0 43.333 -10 76.666 -30 99.999s-47 35 -81 35c-30.667 0 -55.667 -11.667 -75 -35s-29 -56 -29 -98c0 -42.667 10.333 -76.167 31 -100.5s47.334 -36.5 80.001 -36.5zM797 -33c-194 0 -340.498 43.5 -439.498 130.5
s-148.5 208.833 -148.5 365.5v706h-174v179h696v-179h-188v-659c0 -122 25.833 -208.833 77.5 -260.5s130.167 -77.5 235.5 -77.5c91.333 0 163.666 26.667 216.999 80c56 56 84 155.667 84 299v618h-180v179h539v-179h-168v-696c0 -70 -11.167 -135 -33.5 -195
s-55.333 -113.5 -99 -160.5s-101.334 -83.833 -173.001 -110.5s-153.5 -40 -245.5 -40z" />
    <glyph glyph-name="uring" unicode="&#x16f;" horiz-adv-x="1267" 
d="M606 1083c-82.667 0 -147.666 22.667 -194.999 68s-71 101.333 -71 168s24.167 123.334 72.5 170.001s112.833 70 193.5 70c81.333 0 145.666 -22.833 192.999 -68.5s71 -101.5 71 -167.5c0 -66.667 -24 -123.334 -72 -170.001s-112 -70 -192 -70zM608.001 1186
c31.333 0 56.667 12.001 76 36.001s29 57 29 99c0 43.333 -10 76.666 -30 99.999s-47 35 -81 35c-30.667 0 -55.667 -11.667 -75 -35s-29 -56 -29 -98c0 -42.667 10.167 -76.167 30.5 -100.5s46.833 -36.5 79.5 -36.5zM459.002 -17.999c-97.333 0 -169.499 30 -216.499 90
s-70.5 141.667 -70.5 245v471h-139v170h438v-600c0 -66 14.333 -114.333 43 -145c22 -22 52.667 -33 92 -33c47.333 0 89.166 22.5 125.499 67.5s54.5 101.167 54.5 168.5v372h-141v170h440v-788h140v-170h-420v252c-76.667 -180 -192 -270 -346 -270z" />
    <glyph glyph-name="Uhungarumlaut" unicode="&#x170;" horiz-adv-x="1540" 
d="M797 -33c-194 0 -340.498 43.5 -439.498 130.5s-148.5 208.833 -148.5 365.5v706h-174v179h696v-179h-188v-659c0 -122 25.833 -208.833 77.5 -260.5s130.167 -77.5 235.5 -77.5c91.333 0 163.666 26.667 216.999 80c56 56 84 155.667 84 299v618h-180v179h539v-179h-168
v-696c0 -70 -11.167 -135 -33.5 -195s-55.333 -113.5 -99 -160.5s-101.334 -83.833 -173.001 -110.5s-153.5 -40 -245.5 -40zM940.002 1493l97.999 238.001c28 69.333 55.5 120.666 82.5 153.999s61.833 50 104.5 50c34 0 63 -11.833 87 -35.5s36 -51.167 36 -82.5
c0 -32 -9.16699 -61.333 -27.5 -88s-48.166 -59 -89.499 -97l-152 -139h-139zM586.001 1493l86.001 238.002c25.333 71.333 50 123.166 74 155.499s58 48.5 102 48.5c35.333 0 64.666 -11.833 87.999 -35.5s35 -51.167 35 -82.5c0 -33.333 -8.33301 -63.333 -25 -90
s-44.667 -58.334 -84 -95.001l-147 -139h-129z" />
    <glyph glyph-name="uhungarumlaut" unicode="&#x171;" horiz-adv-x="1267" 
d="M459 -18c-97.333 0 -169.499 30 -216.499 90s-70.5 141.667 -70.5 245v471h-139v170h438v-600c0 -66 14.333 -114.333 43 -145c22 -22 52.667 -33 92 -33c47.333 0 89.166 22.5 125.499 67.5s54.5 101.167 54.5 168.5v372h-141v170h440v-788h140v-170h-420v252
c-76.667 -180 -192 -270 -346 -270zM713.001 1096l98 237c28 70 55.5 121.667 82.5 155s61.5 50 103.5 50c34 0 63 -12 87 -36s36 -51.667 36 -83c0 -32 -9 -61.167 -27 -87.5s-47.667 -58.5 -89 -96.5l-152 -139h-139zM358.001 1096l86.002 236.999
c25.333 71.333 50.166 123.333 74.499 156s58.5 49 102.5 49c34.667 0 63.667 -12 87 -36s35 -51.667 35 -83c0 -33.333 -8.33301 -63.166 -25 -89.499s-44.334 -57.833 -83.001 -94.5l-148 -139h-129z" />
    <glyph glyph-name="Uogonek" unicode="&#x172;" horiz-adv-x="1540" 
d="M786 -512c-80 0 -141.498 19.332 -184.498 57.999s-64.5 87.667 -64.5 147c0 55.333 14.5 103.5 43.5 144.5s75.167 84.833 138.5 131.5c-168.667 12 -295.834 60.833 -381.501 146.5s-128.5 201.5 -128.5 347.5v706h-174v179h696v-179h-188v-659
c0 -122 25.833 -208.833 77.5 -260.5s130.167 -77.5 235.5 -77.5c91.333 0 163.666 26.667 216.999 80c56 56 84 155.667 84 299v618h-180v179h539v-179h-168v-696c0 -128.667 -36.833 -238.667 -110.5 -330s-181.167 -147.333 -322.5 -168
c-56 -50.667 -94.833 -93.5 -116.5 -128.5s-32.5 -68.5 -32.5 -100.5c0 -31.333 9.83301 -56.166 29.5 -74.499s47.5 -27.5 83.5 -27.5s76 13 120 39l50 -107c-91.333 -58.667 -179 -88 -263 -88z" />
    <glyph glyph-name="uogonek" unicode="&#x173;" horiz-adv-x="1267" 
d="M459 -18c-97.333 0 -169.501 29.999 -216.501 89.999s-70.5 141.667 -70.5 245v471h-139v170h438v-600c0 -66 14.333 -114.333 43 -145c22 -22 52.667 -33 92 -33c47.333 0 89.166 22.5 125.499 67.5s54.5 101.167 54.5 168.5v372h-141v170h440v-788h140v-170h-78
l-27 -25c-56 -50.667 -94.833 -93.5 -116.5 -128.5s-32.5 -68.5 -32.5 -100.5c0 -31.333 9.66699 -56.166 29 -74.499s47 -27.5 83 -27.5c36.667 0 77 13 121 39l49 -107c-91.333 -58.667 -178.666 -88 -261.999 -88c-80 0 -141.667 19.333 -185 58s-65 87.667 -65 147
c0 40.667 9.16699 78.5 27.5 113.5s41.833 66 70.5 93s68.334 58.5 119.001 94.5l9 6h-162v252c-76.667 -180 -192 -270 -346 -270z" />
    <glyph glyph-name="Wcircumflex" unicode="&#x174;" horiz-adv-x="2183" 
d="M1520 1171h-174l233 -852h16l238 852h-168v177h522v-179h-155l-365 -1177h-324l-221 751l-272 -751h-320l-352 1177h-170v179h697v-177h-164l237 -856h17l247 682l-51 174h-151v177h680v-177zM838 1493l254 403h165l250 -403h-174l-164 176l-157 -176h-174z" />
    <glyph glyph-name="wcircumflex" unicode="&#x175;" horiz-adv-x="1728" 
d="M1208 791h-125l170 -568h9l155 568h-110v167h415v-170h-125l-245 -796h-310l-161 491l-176 -491h-314l-248 796h-125v170h555v-167h-118l161 -568h9l176 492l-25 76h-108v167h540v-167zM596 1096l254 403h166l250 -403h-174l-164 176l-158 -176h-174z" />
    <glyph glyph-name="Ycircumflex" unicode="&#x176;" horiz-adv-x="1384" 
d="M788 739l256 432h-161v177h520v-179h-150l-383 -608v-383h183v-178h-699v178h183v363l-390 628h-141v179h688v-177h-153zM422 1493l254 403h166l250 -403h-174l-164 176l-158 -176h-174z" />
    <glyph glyph-name="ycircumflex" unicode="&#x177;" 
d="M182 29c48.667 0 86.501 -15.999 113.501 -47.999s40.5 -70 40.5 -114c0 -28 -5.66699 -53.333 -17 -76c44 5.33301 80.333 21.5 109 48.5s57.334 75.167 86.001 144.5l-385 804h-127v170h600v-170h-145l215 -501l192 501h-121v170h420v-170h-116l-328 -761
c-26.667 -62 -52.834 -114.833 -78.501 -158.5s-55.5 -83.167 -89.5 -118.5s-72.667 -61.833 -116 -79.5s-92 -26.5 -146 -26.5c-84.667 0 -149.834 19.667 -195.501 59s-68.5 90.666 -68.5 153.999c0 48.667 14.667 89.5 44 122.5s67 49.5 113 49.5zM283.001 1096l254 403
h165l250 -403h-174l-164 176l-157 -176h-174z" />
    <glyph glyph-name="Ydieresis" unicode="&#x178;" horiz-adv-x="1384" 
d="M788 739l256 432h-161v177h520v-179h-150l-383 -608v-383h183v-178h-699v178h183v363l-390 628h-141v179h688v-177h-153zM963 1499c-46.667 0 -85 14.6689 -115 44.002s-45 66.666 -45 111.999c0 44.667 15.333 82.5 46 113.5s68.667 46.5 114 46.5
c46.667 0 84.5 -14.833 113.5 -44.5s43.5 -66.834 43.5 -111.501s-14.833 -82.5 -44.5 -113.5s-67.167 -46.5 -112.5 -46.5zM551 1499c-46.667 0 -85 14.6689 -115 44.002s-45 66.666 -45 111.999c0 44.667 15.333 82.5 46 113.5s68.667 46.5 114 46.5
c46.667 0 85 -14.833 115 -44.5s45 -66.834 45 -111.501s-15.167 -82.5 -45.5 -113.5s-68.5 -46.5 -114.5 -46.5z" />
    <glyph glyph-name="Zacute" unicode="&#x179;" horiz-adv-x="1341" 
d="M604 1493l90.002 237.999c27.333 70.667 54.166 122.334 80.499 155.001s61.833 49 106.5 49c35.333 0 65.666 -12.5 90.999 -37.5s38 -53.5 38 -85.5c0 -32.667 -9.16699 -62 -27.5 -88s-48.833 -58 -91.5 -96l-154 -135h-133zM57.002 -0.000976562v161.999l811 1012
h-327c-29.333 0 -53.166 -1.33301 -71.499 -4s-36.5 -8.83398 -54.5 -18.501s-32.833 -21.834 -44.5 -36.501s-24.167 -36.5 -37.5 -65.5s-25.666 -61.667 -36.999 -98s-24.666 -83.166 -39.999 -140.499h-160v537h1168v-162l-813 -1012h374
c29.333 0 53.166 1.33301 71.499 4s36.5 9.33398 54.5 20.001s32.667 23.667 44 39s23.666 38.5 36.999 69.5s25.666 65.333 36.999 103s25 86.834 41 147.501h160v-557h-1213z" />
    <glyph glyph-name="zacute" unicode="&#x17a;" horiz-adv-x="1017" 
d="M440 1096l90.002 237c27.333 70.667 54.166 122.5 80.499 155.5s61.833 49.5 106.5 49.5c35.333 0 65.666 -12.5 90.999 -37.5s38 -53.5 38 -85.5c0 -32.667 -9.16699 -62 -27.5 -88s-48.833 -58 -91.5 -96l-154 -135h-133zM59.002 0v141l562 678h-179
c-28 0 -50.333 -1.5 -67 -4.5s-33 -8.66699 -49 -17s-29.5 -21.833 -40.5 -40.5s-22 -42.167 -33 -70.5s-22.833 -65.5 -35.5 -111.5h-137v383h874v-141l-563 -676h211c34 0 60.333 2.16699 79 6.5s37.167 15.5 55.5 33.5s34 44 47 78s26.833 81.333 41.5 142h138v-401h-904
z" />
    <glyph glyph-name="Zdotaccent" unicode="&#x17b;" horiz-adv-x="1341" 
d="M57 0v161.999l811 1012h-327c-29.333 0 -53.166 -1.33301 -71.499 -4s-36.5 -8.83398 -54.5 -18.501s-32.833 -21.834 -44.5 -36.501s-24.167 -36.5 -37.5 -65.5s-25.666 -61.667 -36.999 -98s-24.666 -83.166 -39.999 -140.499h-160v537h1168v-162l-813 -1012h374
c29.333 0 53.166 1.33301 71.499 4s36.5 9.33398 54.5 20.001s32.667 23.667 44 39s23.666 38.5 36.999 69.5s25.666 65.333 36.999 103s25 86.834 41 147.501h160v-557h-1213zM690 1487c-50.667 0 -92.333 15.333 -125 46s-49 69.334 -49 116.001
c0 47.333 16.5 87.166 49.5 119.499s74.5 48.5 124.5 48.5c51.333 0 93.5 -15.333 126.5 -46s49.5 -69.334 49.5 -116.001c0 -47.333 -16.667 -87.166 -50 -119.499s-75.333 -48.5 -126 -48.5z" />
    <glyph glyph-name="zdotaccent" unicode="&#x17c;" horiz-adv-x="1017" 
d="M59 0v141l562 678h-179c-28 0 -50.333 -1.5 -67 -4.5s-33 -8.66699 -49 -17s-29.5 -21.833 -40.5 -40.5s-22 -42.167 -33 -70.5s-22.833 -65.5 -35.5 -111.5h-137v383h874v-141l-563 -676h211c34 0 60.333 2.16699 79 6.5s37.167 15.5 55.5 33.5s34 44 47 78
s26.833 81.333 41.5 142h138v-401h-904zM524 1090c-50.667 0 -92.333 15.335 -125 46.002s-49 69 -49 115c0 47.333 16.5 87.166 49.5 119.499s74.5 48.5 124.5 48.5c51.333 0 93.5 -15.333 126.5 -46s49.5 -69.334 49.5 -116.001c0 -47.333 -16.667 -87 -50 -119
s-75.333 -48 -126 -48z" />
    <glyph glyph-name="Zcaron" unicode="&#x17d;" horiz-adv-x="1341" 
d="M608 1499l-250 404h174l164 -177l158 177h174l-254 -404h-166zM57 0v161.999l811 1012h-327c-29.333 0 -53.166 -1.33301 -71.499 -4s-36.5 -8.83398 -54.5 -18.501s-32.833 -21.834 -44.5 -36.501s-24.167 -36.5 -37.5 -65.5s-25.666 -61.667 -36.999 -98
s-24.666 -83.166 -39.999 -140.499h-160v537h1168v-162l-813 -1012h374c29.333 0 53.166 1.33301 71.499 4s36.5 9.33398 54.5 20.001s32.667 23.667 44 39s23.666 38.5 36.999 69.5s25.666 65.333 36.999 103s25 86.834 41 147.501h160v-557h-1213z" />
    <glyph glyph-name="zcaron" unicode="&#x17e;" horiz-adv-x="1017" 
d="M442 1102l-249 403h174l163 -176l158 176h174l-254 -403h-166zM59 0v141l562 678h-179c-28 0 -50.333 -1.5 -67 -4.5s-33 -8.66699 -49 -17s-29.5 -21.833 -40.5 -40.5s-22 -42.167 -33 -70.5s-22.833 -65.5 -35.5 -111.5h-137v383h874v-141l-563 -676h211
c34 0 60.333 2.16699 79 6.5s37.167 15.5 55.5 33.5s34 44 47 78s26.833 81.333 41.5 142h138v-401h-904z" />
    </font>
</defs>
</svg>
